<svg xmlns="http://www.w3.org/2000/svg" width="40" height="40" viewBox="0 0 40 40" fill="none">
<path fillRule="evenodd" clipRule="evenodd" d="M8.90502 3.15454L8.79112 3.27344L8.77762 7.11064L8.76412 10.9477L8.92082 11.1008L9.07752 11.2538L11.5067 11.2024C12.9352 11.1722 14.464 11.1625 15.2179 11.1789C16.2715 11.2019 16.5954 11.1955 17.036 11.1431C17.4895 11.0892 18.0409 11.0808 20.616 11.0885C24.8808 11.1013 25.2446 11.0964 25.5976 11.0212C25.9661 10.9427 25.9344 11.0088 25.8633 10.4664C25.7865 9.88074 25.8799 9.15394 26.0724 8.83994L26.1828 8.65994L26.5413 8.61164C26.7665 8.58134 27.1306 8.57174 27.5199 8.58584C28.2043 8.61054 28.2891 8.58664 28.4935 8.31064C28.5775 8.19724 28.6413 4.55664 28.5751 3.65454L28.5512 3.32914L28.3656 3.30484C27.8771 3.24104 20.4683 3.19444 20.408 3.25474C20.3568 3.30584 20.3472 3.66304 20.3394 5.80704C20.3274 9.09674 20.3642 9.00854 19.0399 8.92114C18.7649 8.90294 18.3509 8.89754 18.1199 8.90914C17.8889 8.92074 17.4479 8.90734 17.1399 8.87944C16.7776 8.84664 15.7398 8.82594 14.1999 8.82104C10.8817 8.81044 11.2238 9.16314 11.2215 5.75074L11.2199 3.32164L11.0999 3.20524L10.9799 3.08884L9.99942 3.06224L9.01892 3.03564L8.90502 3.15454ZM12.0862 14.5591C11.6747 14.5934 11.6799 14.5784 11.6799 15.7368V16.7049L11.7899 16.8024L11.8999 16.8999L14.4999 16.8714C15.9299 16.8557 18.4319 16.8234 20.0599 16.7997C21.6879 16.7759 23.5149 16.7593 24.1199 16.7627C24.8601 16.7669 25.3017 16.7527 25.4699 16.7192L25.7199 16.6695V15.7361C25.7199 14.8097 25.7192 14.8023 25.6299 14.7524C25.5182 14.69 23.4456 14.6452 20.4599 14.6406C19.3159 14.6389 18.0829 14.6181 17.7199 14.5944C17.0374 14.5499 12.535 14.5217 12.0862 14.5591ZM14.8548 20.2654C14.7861 20.2758 14.6871 20.3297 14.6348 20.3853L14.5399 20.4863L14.5358 24.2931C14.5315 28.2428 14.5324 28.2208 14.3608 28.4985C14.185 28.7829 14.0299 28.8183 12.9 28.8319L11.9001 28.8439L11.788 28.9513L11.6759 29.0587L11.6818 30.0393C11.6879 31.0667 11.6778 31.1411 11.5048 31.3468C11.2853 31.6076 11.0922 31.6493 10.0024 31.6715C8.77712 31.6963 8.86362 31.6434 8.82792 32.3899C8.81402 32.6797 8.81302 33.1199 8.82572 33.3683C8.87622 34.3611 8.41772 34.5957 6.62782 34.493L6.19572 34.4682L6.05782 34.6019L5.91992 34.7356V35.7035V36.6714L6.03172 36.7912C6.17232 36.9416 6.76392 36.9894 7.87992 36.9405C8.26492 36.9236 9.11362 36.9045 9.76592 36.8979C10.4181 36.8914 11.2191 36.8673 11.5459 36.8444C11.9101 36.8189 14.1021 36.8028 17.2128 36.8029C20.4479 36.803 22.6288 36.7864 23.2328 36.7572C23.7537 36.732 24.33 36.7234 24.5136 36.738C24.6971 36.7527 25.0931 36.7601 25.3936 36.7546C25.694 36.7491 26.4259 36.75 27.0199 36.7567C28.063 36.7685 28.5999 36.7276 28.5999 36.6363C28.5999 36.6181 28.5726 36.1887 28.5392 35.6821C28.4807 34.7948 28.4813 34.7503 28.5555 34.4671C28.6836 33.9779 28.6917 33.783 28.6049 33.2799C28.5491 32.956 28.5351 32.7667 28.5578 32.6399C28.6289 32.2433 28.643 31.8799 28.5874 31.8799C28.501 31.8799 28.215 31.613 28.1606 31.4815C28.1005 31.3366 28.0144 31.3313 26.8743 31.4025L26.1918 31.4452L26.0452 31.3481C25.9645 31.2948 25.8521 31.1811 25.7953 31.0955L25.6921 30.9399L25.7227 30.3199C25.7785 29.186 25.7732 29.0495 25.6723 29.0175C25.6242 29.0022 25.495 28.8975 25.3853 28.7848L25.1857 28.5799L24.2428 28.5671L23.2999 28.5542L23.1665 28.4271C22.8418 28.1176 22.7198 27.3594 22.8629 26.5413C22.9155 26.2403 22.9184 26.1052 22.8807 25.7013C22.8561 25.4365 22.8413 24.9319 22.8479 24.5799C22.8587 24.0047 22.859 23.4931 22.85 21.1846C22.848 20.6729 22.8346 20.5014 22.7949 20.4768C22.695 20.415 22.2488 20.3999 19.9399 20.3802C18.6639 20.3693 17.4579 20.3422 17.2599 20.3201C16.8674 20.2762 15.0567 20.235 14.8548 20.2654Z" fill="#F6019D"/>
<path fillRule="evenodd" clipRule="evenodd" d="M8.93988 2.77518C8.79868 2.83908 8.63968 2.98208 8.53898 3.13568C8.47128 3.23908 8.46638 3.46828 8.45468 7.08708C8.44118 11.2977 8.42698 11.0269 8.67448 11.2937C8.93638 11.5761 8.49198 11.5579 14.0819 11.515C16.8418 11.4938 20.4769 11.4769 22.1599 11.4773C24.7008 11.478 25.3081 11.4675 25.7399 11.4152C26.1509 11.3654 26.751 11.3508 28.6026 11.3455C31.204 11.3381 31.0372 11.3556 31.2574 11.0669L31.3601 10.9321L31.3552 7.10708L31.3503 3.28198L31.1574 3.10158L30.9646 2.92118L30.3522 2.94388C30.0132 2.95638 29.4989 2.94618 29.1999 2.92088C28.8826 2.89408 26.9771 2.86128 24.5799 2.84148L20.4999 2.80778L20.329 2.90608C20.235 2.96018 20.1123 3.07358 20.0563 3.15818L19.9545 3.31208L19.9575 5.70598C19.9608 8.38378 19.9774 8.22358 19.6733 8.45008L19.5399 8.54938L18.0599 8.51728C17.2459 8.49968 15.5264 8.48408 14.2388 8.48258C11.6692 8.47968 11.8209 8.49418 11.6361 8.23458L11.5478 8.11058L11.5536 5.72278L11.5594 3.33488L11.4418 3.14938C11.2116 2.78638 11.1615 2.77198 10.0399 2.74468C9.25988 2.72568 9.03538 2.73188 8.93988 2.77518ZM11.0999 3.20528L11.2199 3.32168L11.2215 5.75078C11.2238 9.16318 10.8817 8.81048 14.1999 8.82108C15.7398 8.82598 16.7776 8.84668 17.1399 8.87948C17.4479 8.90738 17.8889 8.92078 18.1199 8.90918C18.3509 8.89758 18.7649 8.90298 19.0399 8.92118C20.3642 9.00858 20.3274 9.09678 20.3394 5.80708C20.3472 3.66308 20.3568 3.30588 20.408 3.25478C20.4683 3.19448 27.8771 3.24108 28.3656 3.30488L28.5512 3.32918L28.5751 3.65458C28.6413 4.55668 28.5775 8.19728 28.4935 8.31068C28.2891 8.58668 28.2043 8.61058 27.5199 8.58588C27.1306 8.57178 26.7665 8.58138 26.5413 8.61168L26.1828 8.65998L26.0724 8.83998C25.8799 9.15398 25.7865 9.88078 25.8633 10.4665C25.9344 11.0089 25.9661 10.9428 25.5976 11.0213C25.2446 11.0965 24.8808 11.1014 20.616 11.0886C18.0409 11.0809 17.4895 11.0893 17.036 11.1432C16.5954 11.1956 16.2715 11.202 15.2179 11.179C14.464 11.1626 12.9352 11.1723 11.5067 11.2025L9.07748 11.2539L8.92078 11.1009L8.76408 10.9478L8.77758 7.11068L8.79108 3.27348L8.90498 3.15458L9.01888 3.03568L9.99938 3.06228L10.9799 3.08888L11.0999 3.20528ZM11.7399 14.2881C11.6519 14.3396 11.525 14.4635 11.4579 14.5634L11.336 14.745L11.3379 15.8056L11.3399 16.8662L11.4495 17.0099C11.6395 17.259 11.4975 17.2515 15.4539 17.2214C17.4372 17.2064 20.4639 17.1871 22.1799 17.1787C23.8959 17.1702 25.4889 17.1454 25.7199 17.1234C25.9509 17.1015 26.5989 17.0711 27.1599 17.056L28.1799 17.0285L28.3299 16.879L28.4799 16.7294V15.7194V14.7095L28.3033 14.5328L28.1266 14.3562L27.0933 14.3616C26.47 14.3648 25.9488 14.3485 25.7799 14.3205C25.4891 14.2723 25.3177 14.2705 16.5999 14.2211L11.8999 14.1944L11.7399 14.2881ZM17.7199 14.5945C18.0829 14.6182 19.3159 14.639 20.4599 14.6407C23.4456 14.6453 25.5182 14.6901 25.6299 14.7525C25.7192 14.8024 25.7199 14.8098 25.7199 15.7362V16.6696L25.4699 16.7193C25.3017 16.7528 24.8601 16.767 24.1199 16.7628C23.5149 16.7594 21.6879 16.776 20.0599 16.7998C18.4319 16.8235 15.9299 16.8558 14.4999 16.8715L11.8999 16.9L11.7899 16.8025L11.6799 16.705V15.7369C11.6799 14.5785 11.6747 14.5935 12.0862 14.5592C12.535 14.5218 17.0374 14.55 17.7199 14.5945ZM14.5753 20.0212C14.4848 20.0815 14.3633 20.204 14.3053 20.2934L14.1999 20.456V24.2829V28.1097L14.0446 28.2849L13.8892 28.46L12.8146 28.48C11.2754 28.5086 11.3512 28.4309 11.3512 29.98L11.3511 30.98L11.1816 31.1435L11.012 31.307L10.496 31.3334C10.2121 31.3478 9.73958 31.3597 9.44588 31.3598C8.50198 31.3601 8.50718 31.3524 8.47988 32.804C8.45818 33.9565 8.46378 33.9293 8.22078 34.0794C8.10048 34.1538 8.01268 34.1606 7.05528 34.1699C5.53688 34.1847 5.62448 34.0974 5.60828 35.6128L5.59668 36.7L5.71618 36.8881C5.79268 37.0085 5.89768 37.108 6.00778 37.1644L6.17988 37.2525L9.89988 37.2277C11.9459 37.2141 16.9049 37.1925 20.9199 37.1798C25.75 37.1645 28.3485 37.142 28.5999 37.1133C28.8265 37.0875 29.9619 37.068 31.4126 37.065L33.8453 37.06L34.0226 36.8723L34.1999 36.6847V35.7378C34.1999 34.3192 34.2411 34.36 32.8098 34.36C31.7369 34.36 31.7298 34.3583 31.4755 34.04L31.3636 33.9L31.3505 32.8963C31.3318 31.4647 31.3866 31.5204 29.9959 31.5201L29.0519 31.52L28.89 31.4027C28.801 31.3382 28.6779 31.2196 28.6165 31.139L28.5048 30.9926L28.4971 30.0205C28.4859 28.6052 28.5477 28.6661 27.1028 28.6463L26.1057 28.6327L25.866 28.3863L25.6263 28.14L25.6231 24.2873L25.6199 20.4347L25.4322 20.2573L25.2446 20.08L24.2722 20.0797C23.7374 20.0795 23.1379 20.0606 22.9399 20.0376C22.7419 20.0146 21.6709 19.9897 20.5599 19.9822C19.4489 19.9747 17.6849 19.9557 16.6399 19.9401L14.7399 19.9116L14.5753 20.0212ZM17.2599 20.3202C17.4579 20.3423 18.6639 20.3694 19.9399 20.3803C22.2488 20.4 22.695 20.4151 22.7949 20.4769C22.8346 20.5015 22.848 20.673 22.85 21.1847C22.859 23.4932 22.8587 24.0048 22.8479 24.58C22.8413 24.932 22.8561 25.4366 22.8807 25.7014C22.9184 26.1053 22.9155 26.2404 22.8629 26.5414C22.7198 27.3595 22.8418 28.1177 23.1665 28.4272L23.2999 28.5543L24.2428 28.5672L25.1857 28.58L25.3853 28.7849C25.495 28.8976 25.6242 29.0023 25.6723 29.0176C25.7732 29.0496 25.7785 29.1861 25.7227 30.32L25.6921 30.94L25.7953 31.0956C25.8521 31.1812 25.9645 31.2949 26.0452 31.3482L26.1918 31.4453L26.8743 31.4026C28.0144 31.3314 28.1005 31.3367 28.1606 31.4816C28.215 31.6131 28.501 31.88 28.5874 31.88C28.643 31.88 28.6289 32.2434 28.5578 32.64C28.5351 32.7668 28.5491 32.9561 28.6049 33.28C28.6917 33.7831 28.6836 33.978 28.5555 34.4672C28.4813 34.7504 28.4807 34.7949 28.5392 35.6822C28.5726 36.1888 28.5999 36.6182 28.5999 36.6364C28.5999 36.7277 28.063 36.7686 27.0199 36.7568C26.4259 36.7501 25.694 36.7492 25.3936 36.7547C25.0931 36.7602 24.6971 36.7528 24.5136 36.7381C24.33 36.7235 23.7537 36.7321 23.2328 36.7573C22.6288 36.7865 20.4479 36.8031 17.2128 36.803C14.1021 36.8029 11.9101 36.819 11.5459 36.8445C11.2191 36.8674 10.4181 36.8915 9.76588 36.898C9.11358 36.9046 8.26488 36.9237 7.87988 36.9406C6.76388 36.9895 6.17228 36.9417 6.03168 36.7913L5.91988 36.6715V35.7036V34.7357L6.05778 34.602L6.19568 34.4683L6.62778 34.4931C8.41768 34.5958 8.87618 34.3612 8.82568 33.3684C8.81298 33.12 8.81398 32.6798 8.82788 32.39C8.86358 31.6435 8.77708 31.6964 10.0024 31.6716C11.0922 31.6494 11.2853 31.6077 11.5048 31.3469C11.6778 31.1412 11.6879 31.0668 11.6818 30.0394L11.6759 29.0588L11.788 28.9514L11.9001 28.844L12.9 28.832C14.0299 28.8184 14.185 28.783 14.3608 28.4986C14.5324 28.2209 14.5315 28.2429 14.5358 24.2932L14.5399 20.4864L14.6348 20.3854C14.6871 20.3298 14.7861 20.2759 14.8548 20.2655C15.0567 20.2351 16.8674 20.2763 17.2599 20.3202Z" fill="#848484"/>
<path fillRule="evenodd" clipRule="evenodd" d="M32.7014 2.20414C32.5265 2.35774 32.5259 2.39134 32.6957 2.55594C32.8478 2.70335 32.9221 2.69174 33.0755 2.49674C33.2535 2.27044 32.9216 2.01084 32.7014 2.20414ZM19.4053 2.30484L19.3127 2.36964L19.4315 2.47824L19.5503 2.58675L19.5555 5.35435L19.5606 8.12205L18.1503 8.10574C17.3746 8.09675 16.713 8.08944 16.68 8.08944C16.647 8.08954 15.5542 8.09685 14.2516 8.10574L11.8832 8.12195L11.8716 5.45094C11.8588 2.51194 11.867 2.60424 11.6103 2.48834C11.4096 2.39774 8.67936 2.38484 8.42926 2.47334C8.11906 2.58314 8.13996 2.24605 8.13996 7.14005C8.13996 11.9306 8.12656 11.6716 8.38036 11.7996C8.51326 11.8667 25.6908 11.9058 29.58 11.8479C31.715 11.8161 31.681 11.8214 31.7963 11.498C31.8629 11.3109 31.8963 3.20404 31.8317 2.87484C31.7402 2.40774 32.1371 2.43594 25.4469 2.42094L19.7138 2.40814L19.6243 2.32404C19.517 2.22324 19.5212 2.22364 19.4053 2.30484ZM11.1825 2.72544C11.3704 2.81374 11.5234 2.97854 11.5969 3.17184C11.6249 3.24564 11.6398 4.09795 11.6409 5.69515L11.6426 8.10695L11.7713 8.22844L11.9 8.35005L15.7362 8.37404L19.5725 8.39805L19.7095 8.25275L19.8465 8.10744L19.8344 5.70374C19.821 3.03794 19.8111 3.14905 20.0867 2.89195C20.315 2.67895 20.1488 2.68604 24.38 2.70764C31.4658 2.74374 31.0643 2.72204 31.3757 3.08584L31.52 3.25444L31.5193 7.09725L31.5187 10.94L31.4285 11.1C31.3789 11.188 31.2533 11.3171 31.1494 11.3868L30.9606 11.5136L28.6103 11.5162C27.3176 11.5176 26.035 11.5373 25.76 11.56C25.485 11.5826 24.387 11.6004 23.32 11.5996C22.253 11.5988 18.59 11.6103 15.18 11.6253L8.97996 11.6526L8.81996 11.5702C8.32946 11.3176 8.35996 11.6123 8.35996 7.11974C8.35996 2.63065 8.32786 2.92595 8.84026 2.70375C9.08776 2.59645 10.9446 2.61354 11.1825 2.72544ZM16.7759 3.60004C16.7759 3.91904 16.7821 4.04955 16.7897 3.89005C16.7973 3.73055 16.7973 3.46954 16.7897 3.31004C16.7821 3.15054 16.7759 3.28104 16.7759 3.60004ZM13.6832 6.05665C13.4886 6.26375 13.7294 6.52915 13.9299 6.32855L14.0567 6.20185L13.9409 6.08094C13.8013 5.93524 13.7976 5.93495 13.6832 6.05665ZM18.5388 6.16205C18.5007 6.22355 18.5528 6.26325 18.6042 6.21184C18.6329 6.18315 18.6336 6.16075 18.6062 6.14395C18.5839 6.13004 18.5535 6.13825 18.5388 6.16205ZM34.6537 7.14005C34.6539 7.31605 34.6609 7.38305 34.6693 7.28895C34.6778 7.19494 34.6777 7.05095 34.6691 6.96895C34.6605 6.88705 34.6536 6.96405 34.6537 7.14005ZM34.3606 7.15004C34.3611 7.23014 34.3709 7.24475 34.3969 7.20365C34.4165 7.17265 34.4233 7.12314 34.412 7.09364C34.3796 7.00904 34.3599 7.03064 34.3606 7.15004ZM34.651 9.06004C34.6509 9.56074 34.6523 9.56995 34.6905 9.30665C34.7167 9.12615 34.7168 8.94924 34.6907 8.78664C34.654 8.55784 34.6511 8.57755 34.651 9.06004ZM34.362 8.76005C34.3576 8.85674 34.3555 8.85744 34.2987 8.78244C34.243 8.70875 34.24 8.70855 34.24 8.77865C34.24 8.84875 34.2362 8.84895 34.1636 8.78335C34.0908 8.71744 34.086 8.71825 34.06 8.80005C34.034 8.88184 34.0292 8.88265 33.9564 8.81675C33.9078 8.77275 33.88 8.76535 33.88 8.79625C33.88 8.82295 33.8643 8.83505 33.845 8.82315C33.7992 8.79485 33.6 8.98025 33.6 9.05115C33.6 9.12895 33.7854 9.29374 33.837 9.26184C33.8607 9.24724 33.88 9.25714 33.88 9.28384C33.88 9.31445 33.909 9.30614 33.9581 9.26174C34.0336 9.19344 34.0371 9.19475 34.0638 9.30105L34.0914 9.41095L34.1648 9.31555C34.2334 9.22635 34.2384 9.22535 34.2404 9.30005C34.2425 9.37895 34.2433 9.37905 34.3013 9.30245C34.3581 9.22725 34.3601 9.22785 34.3632 9.32244C34.366 9.40604 34.3773 9.39714 34.4422 9.26005L34.5179 9.10005L34.5229 9.26005C34.53 9.48504 34.5916 9.29235 34.5932 9.04005C34.5947 8.81285 34.5277 8.62525 34.5218 8.84005L34.5179 8.98005L34.4422 8.82004C34.3754 8.67884 34.3659 8.67184 34.362 8.76005ZM5.31196 11.71C5.30206 11.8145 5.30636 11.99 5.32156 12.1C5.34466 12.2665 5.35016 12.2347 5.35466 11.91C5.36036 11.4912 5.34136 11.4022 5.31196 11.71ZM5.57556 11.7891C5.54196 11.8797 5.54356 11.9364 5.58236 12.0242L5.63346 12.14L5.63816 12.02L5.64276 11.9L5.69996 12L5.75716 12.1L5.75946 12L5.76176 11.9L5.83516 11.9955L5.90856 12.0909L5.93276 11.9943C5.94616 11.9411 5.94606 11.8553 5.93256 11.8037L5.90796 11.7098L5.83486 11.8049C5.76646 11.8939 5.76156 11.8948 5.75956 11.82C5.75746 11.7431 5.75526 11.7428 5.70166 11.8135C5.64936 11.8826 5.64516 11.8804 5.63296 11.7784L5.61996 11.6696L5.57556 11.7891ZM5.43246 11.81C5.42316 11.8595 5.42826 11.945 5.44376 12C5.46546 12.0767 5.47296 12.0558 5.47596 11.91C5.48026 11.7077 5.46016 11.6617 5.43246 11.81ZM34.652 11.92C34.652 12.041 34.6595 12.0905 34.6687 12.03C34.6778 11.9695 34.6778 11.8705 34.6687 11.81C34.6595 11.7495 34.652 11.799 34.652 11.92ZM6.04596 11.8528C6.00936 11.8968 6.01236 11.9205 6.05946 11.9596C6.10106 11.9941 6.11996 11.9958 6.11996 11.9649C6.11996 11.9402 6.13616 11.9245 6.15596 11.93C6.17576 11.9355 6.19376 11.9265 6.19596 11.91C6.19816 11.8935 6.18846 11.8815 6.17446 11.8834C6.16036 11.8853 6.13626 11.8664 6.12086 11.8415C6.10096 11.8092 6.07946 11.8124 6.04596 11.8528ZM10.6931 12.6207C10.4774 12.8458 10.4779 12.88 10.6989 13.1011C10.916 13.3181 10.9787 13.3224 11.1733 13.1333C11.3986 12.9145 11.4108 12.8744 11.301 12.7129C11.0866 12.3973 10.93 12.3736 10.6931 12.6207ZM18.22 13.8395C11.1196 13.8608 11.2624 13.857 11.1145 14.0254C11.0032 14.152 10.9927 14.3144 10.9893 15.9723L10.986 17.58L18.923 17.5776C23.2883 17.5763 27.346 17.5695 27.94 17.5625L29.02 17.5497L29.0109 16.8449C28.9674 13.4931 29.1789 13.8628 27.3 13.8539C26.596 13.8506 25.804 13.8414 25.54 13.8334C25.276 13.8254 21.982 13.8282 18.22 13.8395ZM25.739 14.1632C25.9144 14.1834 26.5264 14.2001 27.099 14.2001C28.2773 14.2003 28.2851 14.2021 28.5188 14.5247L28.64 14.692L28.6399 15.736C28.6398 17.2951 28.7824 17.1786 26.8 17.2392C23.4868 17.3406 11.6347 17.3732 11.4629 17.2814C11.235 17.1597 11.2242 17.0917 11.2322 15.829C11.241 14.4309 11.2572 14.3756 11.7207 14.1617L11.9 14.0789L18.66 14.1027C22.378 14.1157 25.5635 14.1429 25.739 14.1632ZM5.44006 14.172C5.43966 14.2602 5.57476 14.4456 5.67866 14.4993C5.84786 14.5868 5.88296 14.5737 5.72956 14.4802C5.65786 14.4365 5.56346 14.3421 5.51976 14.2704C5.47606 14.1987 5.44016 14.1544 5.44006 14.172ZM31.9505 14.6683C32.0002 14.6779 32.0722 14.6775 32.1105 14.6675C32.1487 14.6575 32.108 14.6496 32.02 14.6501C31.932 14.6505 31.9007 14.6587 31.9505 14.6683ZM8.18706 15.25C8.17406 15.5195 8.17836 15.821 8.19666 15.92C8.22086 16.0507 8.23136 15.9165 8.23496 15.43C8.24086 14.6403 8.22036 14.5631 8.18706 15.25ZM14.34 19.5799C14.318 19.5873 14.2325 19.6047 14.1501 19.6185C13.8417 19.6701 13.8614 19.3824 13.8487 24.01L13.8375 28.12L12.4587 28.125C11.7004 28.1278 11.0613 28.1322 11.0385 28.135C11.0109 28.1383 10.9942 28.6153 10.9885 29.56L10.98 30.98L9.55996 30.9885C8.61526 30.9942 8.13826 31.0109 8.13496 31.0385C8.13226 31.0613 8.12776 31.7031 8.12496 32.4647L8.11996 33.8495L6.74006 33.8347L5.36016 33.82L5.35356 33.02C5.34876 32.4353 5.33976 32.3007 5.31996 32.52C5.30506 32.685 5.30166 33.0309 5.31246 33.2886C5.32536 33.5985 5.31716 33.7752 5.28796 33.8103C5.24236 33.8653 5.25326 37.333 5.29956 37.4787C5.31766 37.5357 5.38466 37.5537 5.65096 37.5728C6.53766 37.6365 34.2205 37.5672 34.3863 37.5008C34.6927 37.3782 34.7285 37.1328 34.7123 35.2634L34.7 33.837L33.2889 33.8285L31.8779 33.82L31.8588 32.52C31.8484 31.805 31.8348 31.193 31.8288 31.16C31.801 31.0087 31.7842 31.0066 30.5497 31.0019C29.8843 30.9994 29.2745 30.9869 29.1945 30.9743L29.049 30.9512L29.0219 29.7256C28.9921 28.3706 28.9861 28.2528 28.9456 28.2123C28.8997 28.1663 28.8329 28.1628 27.4732 28.1345L26.1663 28.1072L26.1502 24.1236C26.131 19.4011 26.1678 19.7059 25.6045 19.6004C25.4082 19.5636 14.4468 19.5436 14.34 19.5799ZM22.8823 19.882C23.1805 19.9029 23.8393 19.92 24.3463 19.92C25.3926 19.92 25.4002 19.922 25.6683 20.2736L25.8 20.4462V24.29V28.1337L25.9807 28.3069L26.1614 28.48L27.1307 28.4818C28.6803 28.4846 28.63 28.4346 28.6681 30.0113L28.692 31.0026L28.8454 31.156C29.0401 31.3507 29.0924 31.3588 30.16 31.3604C31.5264 31.3625 31.4876 31.3198 31.5111 32.8481L31.5269 33.8762L31.7026 34.0381L31.8782 34.2H32.8341C34.4003 34.2 34.3679 34.1674 34.3688 35.7426C34.3694 36.7777 34.365 36.7977 34.0836 37.052C33.8643 37.2501 33.8322 37.2547 32.8239 37.2305C32.3378 37.2188 31.094 37.2256 30.06 37.2454C29.026 37.2653 25.741 37.2892 22.76 37.2985C19.779 37.3078 14.82 37.3268 11.74 37.3408L6.13996 37.3662L5.92176 37.2519C5.52776 37.0457 5.50156 36.9509 5.49196 35.7011C5.47866 33.9535 5.39966 34.0334 7.10236 34.0702L8.06476 34.0909L8.20906 33.9642L8.35336 33.8375L8.36856 32.7287C8.39016 31.1452 8.26936 31.2693 9.82226 31.2356C10.9194 31.2118 10.9513 31.2088 11.074 31.1181C11.1433 31.0669 11.2036 31.0238 11.2079 31.0225C11.2122 31.0211 11.2257 30.507 11.2379 29.88C11.2692 28.265 11.1506 28.3854 12.728 28.3672L13.836 28.3544L13.958 28.2296L14.08 28.1048V24.2911C14.08 20.1189 14.0687 20.3245 14.3121 20.065C14.5748 19.7848 14.3124 19.7998 18.54 19.8231C20.63 19.8347 22.584 19.8612 22.8823 19.882ZM28.9293 25.24C28.9293 25.317 28.9375 25.3485 28.9476 25.31C28.9576 25.2715 28.9576 25.2085 28.9476 25.17C28.9375 25.1315 28.9293 25.163 28.9293 25.24ZM32.6912 31.0695C32.7964 31.0777 32.9584 31.0776 33.0512 31.0692C33.144 31.0608 33.058 31.0541 32.86 31.0542C32.662 31.0543 32.586 31.0612 32.6912 31.0695ZM32.7964 31.3231C32.7553 31.3491 32.7699 31.3589 32.85 31.3594C32.9694 31.3601 32.991 31.3404 32.9064 31.308C32.8769 31.2967 32.8274 31.3035 32.7964 31.3231ZM5.58586 32.62C5.54596 32.7604 5.55106 33.1593 5.59706 33.5C5.62776 33.7276 5.63006 33.7173 5.64026 33.3L5.65106 32.86L5.69536 33.2L5.73966 33.54L5.75986 33.22L5.77996 32.9L5.83956 33.26L5.89926 33.62L5.92926 33.3C5.94576 33.124 5.94796 32.881 5.93406 32.76L5.90896 32.54L5.83556 32.7L5.76206 32.86L5.75796 32.72L5.75386 32.58L5.70146 32.72L5.64896 32.86L5.63446 32.68C5.62046 32.5062 5.61876 32.5041 5.58586 32.62ZM5.43416 32.71C5.42636 32.7925 5.43026 33.031 5.44296 33.24L5.46596 33.62L5.47296 33.09C5.47976 32.5736 5.46286 32.4073 5.43416 32.71ZM6.05666 32.7613C6.02506 32.8334 6.02646 32.9139 6.06196 33.06L6.11046 33.26L6.11916 33.06C6.12586 32.9064 6.13436 32.8832 6.15576 32.96C6.18026 33.0479 6.18706 33.0511 6.21176 32.9867C6.25816 32.8662 6.24516 32.7895 6.18246 32.8135C6.14506 32.8279 6.12056 32.8053 6.11246 32.7491C6.10036 32.6652 6.09866 32.6656 6.05666 32.7613ZM37.4914 37.62C37.4917 37.73 37.4995 37.7703 37.5087 37.7095C37.5179 37.6486 37.5177 37.5586 37.5082 37.5095C37.4987 37.4603 37.4911 37.51 37.4914 37.62Z" fill="#0D0221"/>
<path fillRule="evenodd" clipRule="evenodd" d="M5.2399 7.332C5.2399 12.9813 5.2509 14.675 5.2879 14.712C5.3234 14.7475 5.6931 14.76 6.7033 14.76H8.0708L8.0862 16.13C8.0947 16.8835 8.1159 17.5225 8.1332 17.55C8.1574 17.5884 8.4876 17.6 9.5623 17.6H10.9599V22.8355V28.071L9.5628 28.0859C8.7944 28.0942 8.1511 28.1155 8.1332 28.1333C8.1154 28.1512 8.0941 28.7945 8.0858 29.5629L8.0709 30.96H6.7034C5.6931 30.96 5.3234 30.9725 5.2879 31.008C5.2524 31.0435 5.2399 31.4142 5.2399 32.428V33.8L3.9099 33.8005C3.1784 33.8008 2.5394 33.8119 2.4899 33.8252L2.3999 33.8493V36.9247V40H19.9999H37.5999V36.9247V33.8493L37.5099 33.8252C37.4604 33.8119 36.8214 33.8008 36.0899 33.8005L34.7599 33.8V32.428C34.7599 31.4142 34.7474 31.0435 34.7119 31.008C34.6764 30.9725 34.3067 30.96 33.2964 30.96H31.9289L31.914 29.5629C31.9057 28.7945 31.8844 28.1512 31.8666 28.1333C31.8487 28.1155 31.2054 28.0942 30.437 28.0859L29.0399 28.071V22.8355V17.6H30.4375C31.5119 17.6 31.8426 17.5884 31.8671 17.55C31.8847 17.5225 31.9057 16.8835 31.9138 16.13L31.9284 14.76H33.2962C34.3066 14.76 34.6764 14.7475 34.7119 14.712C34.7489 14.675 34.7599 12.9813 34.7599 7.332V0H25.7199H16.6799V2.62V5.24H15.7199H14.7599V2.62V0H9.9999H5.2399V7.332ZM33.0957 2.2992C33.164 2.4034 33.0853 2.5515 32.9125 2.644C32.8271 2.6896 32.5599 2.4868 32.5599 2.3763C32.5599 2.1201 32.9423 2.0651 33.0957 2.2992ZM19.6242 2.324L19.7137 2.4081L25.4468 2.4209C32.137 2.4359 31.7401 2.4077 31.8316 2.8748C31.8962 3.204 31.8628 11.3109 31.7962 11.498C31.6809 11.8214 31.7149 11.8161 29.5799 11.8479C25.6907 11.9058 8.5132 11.8667 8.3803 11.7996C8.1265 11.6716 8.1399 11.9306 8.1399 7.14C8.1399 2.246 8.119 2.5831 8.4292 2.4733C8.6793 2.3848 11.4095 2.3977 11.6102 2.4883C11.8669 2.6042 11.8587 2.5119 11.8715 5.4509L11.8831 8.1219L14.2515 8.1057C15.5541 8.0968 16.6469 8.0895 16.6799 8.0894C16.7129 8.0894 17.3745 8.0967 18.1502 8.1057L19.5605 8.122L19.5554 5.3543L19.5502 2.5867L19.4314 2.4782L19.3126 2.3696L19.4052 2.3048C19.5211 2.2236 19.5169 2.2232 19.6242 2.324ZM16.7896 3.89C16.782 4.0495 16.7758 3.919 16.7758 3.6C16.7758 3.281 16.782 3.1505 16.7896 3.31C16.7972 3.4695 16.7972 3.7305 16.7896 3.89ZM13.9408 6.0809L14.0566 6.2018L13.9298 6.3285C13.7293 6.5291 13.4885 6.2637 13.6831 6.0566C13.7975 5.9349 13.8012 5.9352 13.9408 6.0809ZM18.6041 6.2118C18.5527 6.2632 18.5006 6.2235 18.5387 6.162C18.5534 6.1382 18.5838 6.13 18.6061 6.1439C18.6335 6.1607 18.6328 6.1831 18.6041 6.2118ZM34.6692 7.2889C34.6608 7.383 34.6538 7.316 34.6536 7.14C34.6535 6.964 34.6604 6.887 34.669 6.9689C34.6776 7.0509 34.6777 7.1949 34.6692 7.2889ZM34.4119 7.0936C34.4232 7.1231 34.4164 7.1726 34.3968 7.2036C34.3708 7.2447 34.361 7.2301 34.3605 7.15C34.3598 7.0306 34.3795 7.009 34.4119 7.0936ZM34.6904 9.3066C34.6522 9.5699 34.6508 9.5607 34.6509 9.06C34.651 8.5775 34.6539 8.5578 34.6906 8.7866C34.7167 8.9492 34.7166 9.1261 34.6904 9.3066ZM34.5217 8.84C34.5276 8.6252 34.5946 8.8128 34.5931 9.04C34.5915 9.2923 34.5299 9.485 34.5228 9.26L34.5178 9.1L34.4421 9.26C34.3772 9.3971 34.3659 9.406 34.3631 9.3224C34.36 9.2278 34.358 9.2272 34.3012 9.3024C34.2432 9.379 34.2424 9.3789 34.2403 9.3C34.2383 9.2253 34.2333 9.2263 34.1647 9.3155L34.0913 9.4109L34.0637 9.301C34.037 9.1947 34.0335 9.1934 33.958 9.2617C33.9089 9.3061 33.8799 9.3144 33.8799 9.2838C33.8799 9.2571 33.8606 9.2472 33.8369 9.2618C33.7853 9.2937 33.5999 9.1289 33.5999 9.0511C33.5999 8.9802 33.7991 8.7948 33.8449 8.8231C33.8642 8.835 33.8799 8.8229 33.8799 8.7962C33.8799 8.7653 33.9077 8.7727 33.9563 8.8167C34.0291 8.8826 34.0339 8.8818 34.0599 8.8C34.0859 8.7182 34.0907 8.7174 34.1635 8.7833C34.2361 8.8489 34.2399 8.8487 34.2399 8.7786C34.2399 8.7085 34.2429 8.7087 34.2986 8.7824C34.3554 8.8574 34.3575 8.8567 34.3619 8.76C34.3658 8.6718 34.3753 8.6788 34.4421 8.82L34.5178 8.98L34.5217 8.84ZM5.3546 11.91C5.3501 12.2347 5.3446 12.2665 5.3215 12.1C5.2956 11.9134 5.3116 11.52 5.345 11.52C5.3532 11.52 5.3575 11.6955 5.3546 11.91ZM5.7016 11.8135C5.7552 11.7428 5.7574 11.7431 5.7595 11.82C5.7615 11.8948 5.7664 11.8939 5.8348 11.8049L5.9079 11.7098L5.9325 11.8037C5.946 11.8553 5.9461 11.9411 5.9327 11.9943L5.9085 12.0909L5.8351 11.9955L5.7617 11.9L5.7594 12L5.7571 12.1L5.6999 12L5.6427 11.9L5.6381 12.02L5.6334 12.14L5.5823 12.0242C5.5435 11.9364 5.5419 11.8797 5.5755 11.7891L5.6199 11.6696L5.6329 11.7784C5.6451 11.8804 5.6493 11.8826 5.7016 11.8135ZM5.4759 11.91C5.4729 12.0558 5.4654 12.0767 5.4437 12C5.4172 11.9058 5.431 11.72 5.4646 11.72C5.473 11.72 5.4781 11.8055 5.4759 11.91ZM34.6686 12.03C34.6594 12.0905 34.6519 12.041 34.6519 11.92C34.6519 11.799 34.6594 11.7495 34.6686 11.81C34.6777 11.8705 34.6777 11.9695 34.6686 12.03ZM6.1744 11.8834C6.1884 11.8815 6.1981 11.8935 6.1959 11.91C6.1937 11.9265 6.1757 11.9355 6.1559 11.93C6.1361 11.9245 6.1199 11.9402 6.1199 11.9649C6.1199 11.9958 6.101 11.9941 6.0594 11.9596C6.0123 11.9205 6.0093 11.8968 6.0459 11.8528C6.0794 11.8124 6.1009 11.8092 6.1208 11.8415C6.1362 11.8664 6.1603 11.8853 6.1744 11.8834ZM11.1043 12.5066C11.4108 12.7074 11.4302 12.8837 11.1732 13.1333C10.9786 13.3224 10.9159 13.3181 10.6988 13.1011C10.4778 12.88 10.4773 12.8458 10.693 12.6207C10.8814 12.4241 10.9496 12.4052 11.1043 12.5066ZM27.2999 13.8539C29.1788 13.8628 28.9673 13.4931 29.0108 16.8449L29.0199 17.5497L27.9399 17.5625C27.3459 17.5695 23.2882 17.5763 18.9229 17.5776L10.9859 17.58L10.9892 15.9723C10.9932 14.0567 10.9964 14.0342 11.2799 13.9054C11.3763 13.8617 24.3116 13.7963 25.5399 13.8334C25.8039 13.8414 26.5959 13.8506 27.2999 13.8539ZM5.7295 14.4802C5.8829 14.5737 5.8478 14.5868 5.6786 14.4993C5.6141 14.466 5.5339 14.3858 5.5006 14.3213C5.4131 14.1521 5.4262 14.117 5.5197 14.2704C5.5634 14.3421 5.6578 14.4365 5.7295 14.4802ZM32.1104 14.6675C32.0721 14.6775 32.0001 14.6779 31.9504 14.6683C31.9006 14.6587 31.9319 14.6505 32.0199 14.6501C32.1079 14.6496 32.1486 14.6575 32.1104 14.6675ZM8.2349 15.43C8.2313 15.9165 8.2208 16.0507 8.1966 15.92C8.1663 15.7562 8.191 14.76 8.2253 14.76C8.2333 14.76 8.2376 15.0615 8.2349 15.43ZM25.6044 19.6004C26.1677 19.7059 26.1309 19.4011 26.1501 24.1236L26.1662 28.1072L27.4731 28.1345C28.8328 28.1628 28.8996 28.1663 28.9455 28.2123C28.986 28.2528 28.992 28.3706 29.0218 29.7256L29.0489 30.9512L29.1944 30.9743C29.2744 30.9869 29.8842 30.9994 30.5496 31.0019C31.7841 31.0066 31.8009 31.0087 31.8287 31.16C31.8347 31.193 31.8483 31.805 31.8587 32.52L31.8778 33.82L33.2888 33.8285L34.6999 33.837L34.7122 35.2634C34.7284 37.1328 34.6926 37.3782 34.3862 37.5008C34.2204 37.5672 6.5376 37.6365 5.6509 37.5728C5.3846 37.5537 5.3176 37.5357 5.2995 37.4787C5.2532 37.333 5.2423 33.8653 5.2879 33.8103C5.3171 33.7752 5.3253 33.5985 5.3124 33.2886C5.3016 33.0309 5.305 32.685 5.3199 32.52C5.3397 32.3007 5.3487 32.4353 5.3535 33.02L5.3601 33.82L6.74 33.8347L8.1199 33.8495L8.1249 32.4647C8.1277 31.7031 8.1322 31.0613 8.1349 31.0385C8.1382 31.0109 8.6152 30.9942 9.5599 30.9885L10.9799 30.98L10.9884 29.56C10.9941 28.6153 11.0108 28.1383 11.0384 28.135C11.0612 28.1322 11.7003 28.1278 12.4586 28.125L13.8374 28.12L13.8486 24.01C13.8613 19.3824 13.8416 19.6701 14.15 19.6185C14.2324 19.6047 14.3179 19.5873 14.3399 19.5799C14.4467 19.5436 25.4081 19.5636 25.6044 19.6004ZM28.9475 25.31C28.9374 25.3485 28.9292 25.317 28.9292 25.24C28.9292 25.163 28.9374 25.1315 28.9475 25.17C28.9575 25.2085 28.9575 25.2715 28.9475 25.31ZM33.0511 31.0692C32.9583 31.0776 32.7963 31.0777 32.6911 31.0695C32.5859 31.0612 32.6619 31.0543 32.8599 31.0542C33.0579 31.0541 33.1439 31.0608 33.0511 31.0692ZM32.9599 31.3443C32.9599 31.3529 32.9104 31.3597 32.8499 31.3594C32.7698 31.3589 32.7552 31.3491 32.7963 31.3231C32.8472 31.2908 32.9599 31.3054 32.9599 31.3443ZM5.7014 32.72L5.7538 32.58L5.7579 32.72L5.762 32.86L5.8355 32.7L5.9089 32.54L5.934 32.76C5.9479 32.881 5.9457 33.124 5.9292 33.3L5.8992 33.62L5.8395 33.26L5.7799 32.9L5.7598 33.22L5.7396 33.54L5.6953 33.2L5.651 32.86L5.6402 33.3C5.6283 33.7855 5.5726 33.5819 5.5582 33C5.5498 32.6623 5.612 32.4014 5.6344 32.68L5.6489 32.86L5.7014 32.72ZM5.4729 33.09L5.4659 33.62L5.4429 33.24C5.4209 32.8758 5.4307 32.56 5.4641 32.56C5.4728 32.56 5.4767 32.7985 5.4729 33.09ZM6.1824 32.8135C6.2451 32.7895 6.2581 32.8662 6.2117 32.9867C6.187 33.0511 6.1802 33.0479 6.1557 32.96C6.1343 32.8832 6.1258 32.9064 6.1191 33.06L6.1104 33.26L6.0619 33.06C6.0264 32.9139 6.025 32.8334 6.0566 32.7613C6.0986 32.6656 6.1003 32.6652 6.1124 32.7491C6.1205 32.8053 6.145 32.8279 6.1824 32.8135ZM37.5086 37.7095C37.4994 37.7703 37.4916 37.73 37.4913 37.62C37.491 37.51 37.4986 37.4603 37.5081 37.5095C37.5176 37.5586 37.5178 37.6486 37.5086 37.7095Z" fill="#0D0221"/>
<path fillRule="evenodd" clipRule="evenodd" d="M8.84031 2.70366C8.32791 2.92586 8.36001 2.63056 8.36001 7.11966C8.36001 11.6123 8.32951 11.3176 8.82001 11.5702L8.98001 11.6526L15.18 11.6253C18.59 11.6103 22.253 11.5988 23.32 11.5996C24.387 11.6004 25.485 11.5826 25.76 11.56C26.035 11.5373 27.3176 11.5176 28.6103 11.5162L30.9606 11.5136L31.1494 11.3868C31.2533 11.3171 31.3789 11.188 31.4285 11.1L31.5187 10.94L31.5193 7.09716L31.52 3.25436L31.3757 3.08576C31.0643 2.72196 31.4658 2.74366 24.38 2.70756C20.1488 2.68596 20.315 2.67886 20.0867 2.89186C19.8111 3.14896 19.821 3.03786 19.8344 5.70366L19.8465 8.10736L19.7095 8.25266L19.5725 8.39796L15.7362 8.37396L11.9 8.34996L11.7713 8.22836L11.6426 8.10686L11.6409 5.69506C11.6392 3.17846 11.6387 3.17066 11.4593 2.93556C11.2543 2.66666 11.1198 2.63976 9.99041 2.64156C9.17871 2.64276 8.95251 2.65496 8.84031 2.70366ZM11.1721 2.86616C11.2558 2.91996 11.3772 3.04736 11.4419 3.14936L11.5595 3.33486L11.5537 5.72276L11.5479 8.11056L11.6362 8.23456C11.821 8.49416 11.6693 8.47966 14.2389 8.48256C15.5265 8.48406 17.246 8.49966 18.06 8.51726L19.54 8.54936L19.6734 8.45006C19.9775 8.22356 19.9609 8.38376 19.9576 5.70596L19.9546 3.31206L20.0564 3.15816C20.1124 3.07356 20.2351 2.96016 20.3291 2.90606L20.5 2.80776L24.58 2.84146C26.9772 2.86126 28.8827 2.89406 29.2 2.92086C29.499 2.94616 30.0133 2.95636 30.3523 2.94386L30.9647 2.92116L31.1575 3.10156L31.3504 3.28196L31.3553 7.10706L31.3602 10.9321L31.2575 11.0669C31.0373 11.3556 31.2041 11.3381 28.6027 11.3455C26.7511 11.3508 26.151 11.3654 25.74 11.4152C25.3082 11.4675 24.7009 11.478 22.16 11.4773C20.477 11.4769 16.8419 11.4938 14.082 11.515C8.49211 11.5579 8.93651 11.5761 8.67461 11.2937C8.42711 11.0269 8.44131 11.2977 8.45481 7.08706C8.46851 2.83946 8.44711 3.17996 8.71551 2.92766C8.92951 2.72656 8.98421 2.71896 10.04 2.74466C10.9911 2.76776 11.0245 2.77136 11.1721 2.86616ZM11.7207 14.1617C11.2572 14.3756 11.241 14.4309 11.2322 15.829C11.2242 17.0917 11.235 17.1597 11.4629 17.2814C11.6347 17.3732 23.4868 17.3406 26.8 17.2392C28.7824 17.1786 28.6398 17.2951 28.6399 15.736L28.64 14.692L28.5188 14.5247C28.2851 14.2021 28.2773 14.2003 27.099 14.2001C26.5264 14.2001 25.9144 14.1834 25.739 14.1632C25.5635 14.1429 22.378 14.1157 18.66 14.1027L11.9 14.0789L11.7207 14.1617ZM23.4 14.2609C24.7428 14.2694 25.601 14.2908 25.78 14.3205C25.9489 14.3485 26.4701 14.3648 27.0934 14.3616L28.1267 14.3562L28.3034 14.5328L28.48 14.7095V15.7194V16.7294L28.33 16.879L28.18 17.0285L27.16 17.056C26.599 17.0711 25.951 17.1015 25.72 17.1234C25.489 17.1454 23.896 17.1702 22.18 17.1787C20.464 17.1871 17.4373 17.2064 15.454 17.2214C11.4976 17.2515 11.6396 17.259 11.4496 17.0099L11.34 16.8662L11.338 15.8056L11.3361 14.745L11.458 14.5634C11.5251 14.4635 11.652 14.3396 11.74 14.2881L11.9 14.1944L16.6 14.2211C19.185 14.2357 22.245 14.2536 23.4 14.2609ZM14.58 19.8761C14.492 19.9167 14.3715 20.0017 14.3121 20.065C14.0687 20.3245 14.08 20.1189 14.08 24.2911V28.1048L13.958 28.2296L13.836 28.3544L12.728 28.3672C11.1506 28.3854 11.2692 28.265 11.2379 29.88C11.2257 30.507 11.2122 31.0211 11.2079 31.0225C11.2036 31.0238 11.1433 31.0669 11.074 31.1181C10.9513 31.2088 10.9194 31.2118 9.82231 31.2356C8.26941 31.2693 8.39021 31.1452 8.36861 32.7287L8.35341 33.8375L8.20911 33.9642L8.06481 34.0909L7.10241 34.0702C5.39971 34.0334 5.47871 33.9535 5.49201 35.7011C5.50161 36.9509 5.52781 37.0457 5.92181 37.2519L6.14001 37.3662L11.74 37.3408C14.82 37.3268 19.779 37.3078 22.76 37.2985C25.741 37.2892 29.026 37.2653 30.06 37.2454C31.094 37.2256 32.3378 37.2188 32.8239 37.2305C33.8322 37.2547 33.8643 37.2501 34.0836 37.052C34.365 36.7977 34.3694 36.7777 34.3688 35.7426C34.3679 34.1674 34.4003 34.2 32.8341 34.2H31.8782L31.7026 34.0381L31.5269 33.8762L31.5111 32.8481C31.4876 31.3198 31.5264 31.3625 30.16 31.3604C29.0924 31.3588 29.0401 31.3507 28.8454 31.156L28.692 31.0026L28.6681 30.0113C28.63 28.4346 28.6803 28.4846 27.1307 28.4818L26.1614 28.48L25.9807 28.3069L25.8 28.1337V24.29V20.4462L25.6683 20.2736C25.4002 19.922 25.3926 19.92 24.3463 19.92C23.8393 19.92 23.1805 19.9029 22.8823 19.882C21.6934 19.7988 14.7581 19.7938 14.58 19.8761ZM20.56 19.9822C21.671 19.9897 22.742 20.0146 22.94 20.0376C23.138 20.0606 23.7375 20.0795 24.2723 20.0797L25.2447 20.08L25.4323 20.2573L25.62 20.4347L25.6232 24.2873L25.6264 28.14L25.8661 28.3863L26.1058 28.6327L27.1029 28.6463C28.5478 28.6661 28.486 28.6052 28.4972 30.0205L28.5049 30.9926L28.6166 31.139C28.678 31.2196 28.8011 31.3382 28.8901 31.4027L29.052 31.52L29.996 31.5201C31.3867 31.5204 31.3319 31.4647 31.3506 32.8963L31.3637 33.9L31.4756 34.04C31.7299 34.3583 31.737 34.36 32.8099 34.36C34.2412 34.36 34.2 34.3192 34.2 35.7378V36.6847L34.0227 36.8723L33.8454 37.06L31.4127 37.065C29.962 37.068 28.8266 37.0875 28.6 37.1133C28.3486 37.142 25.7501 37.1645 20.92 37.1798C16.905 37.1925 11.946 37.2141 9.90001 37.2277L6.18001 37.2525L6.00791 37.1644C5.89781 37.108 5.79281 37.0085 5.71631 36.8881L5.59681 36.7L5.60841 35.6128C5.62461 34.0974 5.53701 34.1847 7.05541 34.1699C8.01281 34.1606 8.10061 34.1538 8.22091 34.0794C8.46391 33.9293 8.45831 33.9565 8.48001 32.804C8.50731 31.3524 8.50211 31.3601 9.44601 31.3598C9.73971 31.3597 10.2122 31.3478 10.4961 31.3334L11.0121 31.307L11.1817 31.1435L11.3512 30.98L11.3513 29.98C11.3513 28.4309 11.2755 28.5086 12.8147 28.48L13.8893 28.46L14.0447 28.2849L14.2 28.1097V24.2829V20.456L14.3054 20.2934C14.3634 20.204 14.4849 20.0815 14.5754 20.0212L14.74 19.9116L16.64 19.9401C17.685 19.9557 19.449 19.9747 20.56 19.9822Z" fill="#F6019D"/>
</svg>