<svg xmlns="http://www.w3.org/2000/svg" width="40" height="40" viewBox="0 0 40 40" fill="none">
<path fillRule="evenodd" clipRule="evenodd" d="M11.71 2.82916C11.1101 3.17936 11.1068 4.51086 11.7043 5.09116C11.8989 5.28026 11.8985 5.28256 11.7516 4.83816C11.6416 4.50536 11.6244 4.39236 11.6089 3.89606L11.5912 3.33216L11.7416 3.18606L11.8921 3.03996L12.3359 3.03786C15.0568 3.02536 16.8715 3.04896 17.19 3.10126C17.4252 3.13976 17.8616 3.15876 18.5222 3.15926C19.8137 3.16016 19.7246 3.06396 19.7136 4.44526L19.7067 5.31066L19.8142 5.49396C19.9327 5.69626 20.1056 5.84466 20.3338 5.94006C20.4643 5.99456 20.7968 6.00216 22.9316 5.99936C25.371 5.99606 25.381 5.99646 25.6998 6.08806L26.0198 6.17996L26.1025 6.43996C26.1479 6.58296 26.2064 6.69816 26.2325 6.69596C26.2585 6.69376 26.3256 6.68926 26.3816 6.68596C26.514 6.67816 26.6798 6.51066 26.6798 6.38466C26.6798 6.17966 26.7484 6.15996 27.4627 6.15996H28.1198L28.1193 6.96996C28.1186 7.96066 28.1155 7.97626 27.9268 7.94556C27.7011 7.90896 27.6616 7.84046 27.6457 7.45816L27.6316 7.11916L27.471 6.98166C27.0922 6.65746 26.7261 6.82506 26.8385 7.27116C26.9355 7.65656 27.1223 7.99996 27.2352 8.00036C27.2927 8.00066 27.4282 8.02766 27.5362 8.06036C27.6442 8.09316 27.816 8.11996 27.9181 8.11996C28.0963 8.11996 28.1059 8.12596 28.1578 8.26996C28.2727 8.58876 28.5251 8.87296 28.8077 9.00176C28.884 9.03646 28.9249 9.10166 28.9663 9.25426L29.0222 9.45996L29.2736 9.45286C29.569 9.44446 29.7019 9.37256 29.7837 9.17686L29.8409 9.03996H30.3947H30.9485L30.9763 9.51496C30.9915 9.77626 30.9916 10.1269 30.9765 10.2941C30.9469 10.6208 30.9558 10.6101 30.671 10.6581C30.5066 10.6858 30.2798 10.8534 30.2798 10.9472C30.2798 10.9802 30.4328 11.1585 30.6198 11.3434L30.9598 11.6796L30.9579 17.2498L30.9561 22.82L30.7879 22.9024C30.6747 22.9579 30.589 23.0403 30.5255 23.1548C30.4164 23.3514 30.421 23.3586 30.7698 23.5416L30.9598 23.6413V24.113V24.5846L30.7766 24.7137C30.6513 24.802 30.566 24.9042 30.5066 25.037C30.3599 25.3653 29.68 25.3861 29.5981 25.0649C29.5046 24.6983 29.3699 24.4886 29.1569 24.3785C29.0241 24.3098 29.0001 24.3639 28.9145 24.9226L28.868 25.2264L28.6761 25.3343C28.4575 25.4572 28.2217 25.7136 28.1532 25.9033C28.1111 26.0195 28.079 26.0393 27.8232 26.1067C27.4172 26.2135 27.4624 26.5738 27.9001 26.72L28.0998 26.7868L28.1118 27.2634C28.1291 27.9541 28.1165 27.9996 27.908 28.0018C27.8155 28.0028 27.6889 28.0254 27.6267 28.052L27.5135 28.1003L27.6303 28.1866C27.6945 28.2341 27.8197 28.2947 27.9084 28.3213C28.1117 28.3822 28.119 28.4286 28.1195 29.6676C28.1198 30.6674 28.1273 30.6459 27.8274 30.5086C27.4296 30.3265 27.2034 30.0627 27.1958 29.772C27.1865 29.4157 27.1423 29.4009 27.0409 29.7201C26.9885 29.885 26.9193 30.0612 26.8871 30.1115C26.8142 30.2256 26.7213 30.6121 26.7204 30.8048L26.7198 30.9497L26.3976 30.9778C26.2204 30.9932 25.7411 30.9929 25.3325 30.9771L24.5896 30.9482L24.6174 30.4614L24.6451 29.9746L24.4836 29.8626C24.181 29.653 23.9473 29.8152 23.9088 30.2617C23.8955 30.4148 23.8641 30.6345 23.8389 30.75L23.7932 30.96L23.5665 30.9601C23.4418 30.9602 23.1598 30.9942 22.9398 31.0357C22.5745 31.1046 22.2347 31.1134 19.0198 31.1371C17.0838 31.1513 14.8451 31.1889 14.0448 31.2207C12.2245 31.2929 11.9102 31.2775 11.7298 31.1071L11.5998 30.9843V30.4346C11.5998 29.6768 11.7389 29.0654 11.9332 28.9686C12.1709 28.8503 12.7375 28.7617 13.2625 28.7609C14.4497 28.7589 14.5518 28.6348 14.5518 27.194C14.5518 25.8932 14.4486 25.9936 15.7959 25.9825C17.3645 25.9695 17.3998 25.9325 17.3998 24.3008V23.3317L17.4979 23.2258L17.596 23.12H18.613C20.3646 23.12 20.2505 23.3323 20.2662 20.0436C20.2779 17.5957 20.2783 17.5868 20.3636 17.4959C20.4481 17.4061 20.4651 17.4045 21.5146 17.3924C23.1426 17.3735 23.133 17.3829 23.1523 15.7878C23.1732 14.058 23.1464 14.0298 21.4878 14.038C19.8845 14.0459 19.8466 14.0844 19.8208 15.7325L19.805 16.7398L19.6818 16.8499L19.5585 16.96L15.8092 16.961C11.8715 16.962 11.8059 16.9648 11.5702 17.1446C11.3368 17.3226 11.2848 17.484 11.2775 18.0531C11.2693 18.6903 11.1425 19.4125 11.0121 19.565C10.9722 19.6116 10.8525 19.6378 10.5882 19.6578C10.3856 19.6731 10.1658 19.6929 10.0998 19.7019C9.17439 19.8271 9.00819 19.8369 8.01979 19.824C6.92139 19.8097 6.32629 19.7307 6.15589 19.5765C5.90419 19.3487 5.82229 18.0097 5.90649 15.4967L5.93309 14.7005L6.04339 14.5903L6.15359 14.48H7.11179C8.29599 14.48 8.43919 14.4354 8.66109 13.9974C8.75749 13.8072 8.75979 13.7814 8.75979 12.8832C8.75979 11.56 8.67389 11.6472 10.0102 11.6125C11.0372 11.5858 11.1266 11.5701 11.3564 11.3767C11.6116 11.162 11.6194 11.1223 11.6196 10.04C11.6199 8.67286 11.5306 8.75996 12.9308 8.75996H13.9059L14.0028 8.86306C14.0993 8.96566 14.0999 8.97146 14.1198 10.0363L14.1398 11.1065L14.253 11.2548C14.3153 11.3364 14.4382 11.4507 14.526 11.5089L14.6857 11.6146L15.6728 11.6216C17.2796 11.6329 17.3462 11.5674 17.308 10.0141C17.2691 8.43186 17.2394 8.40226 15.6904 8.40086L14.7211 8.39996L14.5904 8.28316L14.4598 8.16636V7.15316C14.4598 5.65806 14.3923 5.56906 13.2198 5.51806C12.675 5.49436 12.5354 5.47446 12.2813 5.38456C11.9072 5.25216 11.8676 5.26516 12.0596 5.45716C12.3427 5.74016 12.5755 5.81396 13.2398 5.83116L13.8198 5.84626L13.9874 6.00906L14.155 6.17186L14.1543 7.13386C14.1534 8.48536 14.1908 8.43936 13.0918 8.44106C11.2691 8.44386 11.3127 8.40676 11.3119 9.95166L11.3114 10.9684L11.1556 11.1242L10.9998 11.28L10.4098 11.2826C8.41479 11.2912 8.44159 11.2651 8.44019 13.2053L8.43979 13.8306L8.27509 13.9953L8.11039 14.16H7.17569C5.48239 14.16 5.59649 13.9735 5.58679 16.7555C5.57699 19.5299 5.67219 19.7821 6.83979 20.0751C7.14889 20.1527 9.00959 20.1718 9.41979 20.1016C9.50779 20.0866 9.71479 20.0501 9.87979 20.0205C10.0448 19.9909 10.3478 19.9444 10.5532 19.9171C11.291 19.819 11.5598 19.3352 11.5598 18.1054V17.6L11.7204 17.4394L11.881 17.2788L15.7795 17.2894L19.678 17.3L19.7889 17.411L19.8998 17.522V19.971V22.42L19.7528 22.58L19.6057 22.74L18.5328 22.76C16.9913 22.7887 17.0659 22.7139 17.0474 24.2477L17.0349 25.2754L16.8774 25.4377L16.7199 25.6L16.3098 25.6005C14.1847 25.603 14.1998 25.5913 14.1998 27.2421V28.1132L14.0142 28.2766L13.8285 28.44L13.3242 28.4406C11.8696 28.4423 11.2798 29.0255 11.2798 30.4621C11.2798 31.0511 11.3461 31.2196 11.6621 31.4344L11.8598 31.5687L14.3798 31.5404C15.7658 31.5249 18.2138 31.5067 19.8198 31.5C21.6697 31.4924 22.8571 31.4717 23.0598 31.4436C23.2719 31.4142 24.1794 31.4026 25.7502 31.4093L28.1206 31.4194L28.2633 31.3055C28.5819 31.0513 28.5626 31.2342 28.5549 28.54L28.5482 26.14L28.7649 25.9149L28.9817 25.6899L29.9807 25.6949C31.1151 25.7007 31.1898 25.6835 31.3319 25.3843C31.4005 25.2397 31.404 24.8504 31.4057 17.1263C31.4076 8.62926 31.4136 8.89936 31.2209 8.71996L31.1135 8.61996L30.0705 8.60806C28.9006 8.59466 28.959 8.60886 28.6898 8.27156L28.5598 8.10866V7.13306C28.5598 5.65276 28.607 5.69886 27.1208 5.72936C26.3999 5.74416 26.0497 5.73496 25.7998 5.69486C25.5388 5.65296 24.8779 5.64026 22.9554 5.64016L20.4509 5.63996L20.2704 5.46996L20.0899 5.29996L20.07 4.31736C20.0387 2.77136 20.1165 2.84346 18.4198 2.78956C17.7818 2.76936 16.0538 2.74506 14.5798 2.73556L11.8998 2.71826L11.71 2.82916ZM16.8551 8.88006L16.9998 9.04016V10.0153V10.9904L16.8444 11.1505L16.6889 11.3107L15.7144 11.2911L14.7398 11.2715L14.5937 11.1258L14.4477 10.98L14.4357 10.38C14.4109 9.13866 14.4242 8.96946 14.5567 8.83686L14.6736 8.71996H15.6921H16.7105L16.8551 8.88006ZM29.0274 11.47C28.9068 11.6806 28.9068 12.3107 29.0272 13.0919L29.0506 13.2438L29.1491 13.1519C29.4563 12.8652 29.6562 11.9854 29.4792 11.699C29.3759 11.5318 29.0783 11.381 29.0274 11.47ZM22.6267 14.5807L22.7998 14.7614V15.3746C22.7998 16.5231 22.7742 16.7032 22.5854 16.8846L22.4237 17.04H21.4206C20.0423 17.04 20.1198 17.1193 20.1198 15.7091C20.1198 14.7851 20.1208 14.7742 20.2163 14.6447C20.3989 14.3972 20.3711 14.4027 21.4567 14.4013L22.4535 14.4L22.6267 14.5807ZM26.9598 27.0793C26.9048 27.0973 26.7968 27.1153 26.7198 27.1193C26.5814 27.1264 26.5809 27.127 26.6798 27.1732C26.8842 27.2688 26.9963 27.3699 27.0755 27.5299C27.176 27.7331 27.2176 27.6665 27.2189 27.3C27.2199 27.0383 27.1824 27.0064 26.9598 27.0793ZM23.2879 29.0079C23.2298 29.066 23.3203 29.3973 23.3872 29.3716C23.4601 29.3437 23.5711 29.127 23.546 29.0617C23.5215 28.9979 23.3364 28.9594 23.2879 29.0079ZM9.73429 34.1976C8.76079 34.4584 8.45949 34.9126 8.43239 36.16L8.41979 36.74L8.53669 36.9123C8.60089 37.0071 8.73339 37.1315 8.83109 37.1887L9.00859 37.2928L11.0142 37.2617C13.6423 37.2209 25.2439 37.1366 30.1922 37.1223L31.0045 37.12L31.2122 36.91L31.4198 36.7L31.4059 35.6806C31.3907 34.5584 31.3782 34.4945 31.1491 34.3724C31.0297 34.3087 30.7271 34.3028 27.1798 34.2943C25.0363 34.2892 23.0305 34.2663 22.6398 34.2424C22.2287 34.2173 19.5374 34.1914 16.1198 34.1798C12.9188 34.1689 10.2368 34.1512 10.1598 34.1406C10.0828 34.1299 9.89129 34.1556 9.73429 34.1976ZM10.8598 34.4867C11.7317 34.5414 12.1197 34.5465 17.8998 34.5777C21.6122 34.5978 22.5326 34.6133 22.8514 34.6612C23.1381 34.7042 23.6148 34.7201 24.6314 34.7202C26.4032 34.7205 26.6571 34.7383 26.7151 34.8657C26.8682 35.2016 27.4082 35.1601 27.5256 34.8033C27.5441 34.7472 28.5209 34.7078 28.5741 34.761C28.5857 34.7726 28.6136 34.8965 28.6361 35.0364C28.7378 35.6679 29.2724 35.6011 29.4441 34.9353L29.4866 34.7707L29.7291 34.7453C29.8624 34.7314 30.1939 34.72 30.4657 34.72H30.9598V35.4392V36.1584L30.8098 36.235C30.7273 36.2771 30.5513 36.3915 30.4187 36.4892L30.1775 36.6668L29.5987 36.693C29.2803 36.7074 28.8713 36.7077 28.6898 36.6937L28.3598 36.6681V36.1752V35.6823L28.2298 35.6465C28.0385 35.5939 27.9056 35.8553 27.7781 36.535L27.7509 36.68H27.1018H26.4528L26.3231 36.2839C26.1604 35.7874 26.0741 35.7027 25.5314 35.5069L25.2441 35.4033L25.1457 35.5203C25.0325 35.6549 24.9041 36.0209 24.835 36.4066L24.7872 36.6732L24.3689 36.7017C24.1388 36.7174 23.8221 36.7194 23.6651 36.7062C23.469 36.6897 23.2923 36.7022 23.0998 36.7462C22.8368 36.8064 14.8891 36.9075 12.5104 36.881C12.1642 36.8771 11.7232 36.8926 11.5304 36.9154C11.3376 36.9381 10.6938 36.9608 10.0998 36.9658L9.01979 36.9748L8.86499 36.8226L8.71019 36.6704L8.73049 36.0852C8.77079 34.924 8.87679 34.7153 9.50899 34.5539C10.0121 34.4254 9.93959 34.429 10.8598 34.4867ZM23.2842 35.4741C23.2384 35.7066 23.2841 36.12 23.3556 36.12C23.3911 36.12 23.5636 35.9359 23.6516 35.804C23.7262 35.6923 23.6749 35.55 23.4877 35.35C23.3474 35.2 23.3368 35.2065 23.2842 35.4741Z" fill="#848484"/>
<path fillRule="evenodd" clipRule="evenodd" d="M12.3347 3.03134L11.8896 3.04254L11.7404 3.18744L11.5913 3.33224L11.6095 3.89614C11.6248 4.37334 11.6438 4.50614 11.7332 4.76004C11.8391 5.06124 11.8395 5.04034 11.7369 4.56004C11.628 4.05094 11.6594 3.35464 11.7972 3.22264L11.9145 3.11024L14.3803 3.11664C16.4095 3.12184 16.9076 3.13394 17.193 3.18494C17.4512 3.23094 17.7914 3.24544 18.5233 3.24144C19.7524 3.23464 19.6193 3.09724 19.6222 4.37624C19.6263 6.14304 19.5077 6.07984 22.8199 6.07894C24.1179 6.07864 25.2159 6.07834 25.2599 6.07834C25.5462 6.07834 25.6988 6.17634 25.7324 6.38154C25.7502 6.49074 25.7901 6.71974 25.8209 6.89044C25.8518 7.06124 25.8702 7.22324 25.8618 7.25044C25.8535 7.27774 25.836 7.48444 25.8231 7.70974L25.7995 8.11944L25.9402 8.27504C26.1933 8.55524 26.929 8.71404 27.428 8.59614C28.0057 8.45964 28.1011 8.45844 28.1557 8.58714C28.2141 8.72484 28.3531 8.88754 28.4878 8.97584C28.5829 9.03814 28.5896 9.06674 28.614 9.52084C28.6965 11.0488 28.6989 10.9024 28.582 11.42C28.4632 11.9456 28.463 11.7807 28.5845 13.62C28.6245 14.2251 28.6021 23.676 28.56 23.96C28.5388 24.103 28.5211 24.4474 28.5207 24.7253L28.5199 25.2305L28.3818 25.3358C28.3059 25.3937 28.2123 25.4943 28.174 25.5593C28.0974 25.6888 28.126 25.682 27.3399 25.7592C26.5981 25.8321 26.2223 25.8875 26.1668 25.9322C25.9556 26.1021 25.7198 26.8835 25.6764 27.5572C25.6299 28.2781 25.4855 28.4279 24.5999 28.6744L24.2999 28.7579L23.8599 28.6192C23.253 28.4278 23.1104 28.4572 22.8995 28.817C22.7771 29.0259 22.777 29.0483 22.8955 29.5727C22.9855 29.9709 22.9703 30.8429 22.8717 30.9416C22.7998 31.0135 21.9812 31.0363 18.6999 31.058C16.6539 31.0715 14.7279 31.0992 14.4199 31.1196C14.1119 31.14 13.4279 31.169 12.8999 31.1842L11.9399 31.2118L11.8154 31.107C11.644 30.9626 11.6014 30.2569 11.726 29.6253C11.7946 29.2779 11.8062 29.0633 11.7454 29.267C11.6406 29.6184 11.5999 29.9446 11.5999 30.4346V30.9843L11.7299 31.1071C11.9103 31.2775 12.2246 31.2929 14.0449 31.2207C14.8452 31.1889 17.0839 31.1513 19.0199 31.1371C22.2348 31.1134 22.5746 31.1046 22.9399 31.0357C23.1599 30.9942 23.4419 30.9602 23.5666 30.9601L23.7933 30.96L23.839 30.75C23.8642 30.6345 23.8956 30.4148 23.9089 30.2617C23.9474 29.8152 24.1811 29.653 24.4837 29.8626L24.6452 29.9746L24.6175 30.4614L24.5897 30.9482L25.3326 30.9771C25.7412 30.9929 26.2205 30.9932 26.3977 30.9778L26.7199 30.9497L26.7205 30.8048C26.7214 30.6121 26.8143 30.2256 26.8872 30.1115C26.9194 30.0612 26.9886 29.885 27.041 29.7201C27.1424 29.4009 27.1866 29.4157 27.1959 29.772C27.2035 30.0627 27.4297 30.3265 27.8275 30.5086C28.1274 30.6459 28.1199 30.6674 28.1196 29.6676C28.1191 28.4286 28.1118 28.3822 27.9085 28.3213C27.8198 28.2947 27.6946 28.2341 27.6304 28.1866L27.5136 28.1003L27.6268 28.052C27.689 28.0254 27.8156 28.0028 27.9081 28.0018C28.1166 27.9996 28.1292 27.9541 28.1119 27.2634L28.0999 26.7868L27.9002 26.72C27.4625 26.5738 27.4173 26.2135 27.8233 26.1067C28.0791 26.0393 28.1112 26.0195 28.1533 25.9033C28.2218 25.7136 28.4576 25.4572 28.6762 25.3343L28.8681 25.2264L28.9146 24.9226C29.0002 24.3639 29.0242 24.3098 29.157 24.3785C29.37 24.4886 29.5047 24.6983 29.5982 25.0649C29.6801 25.3861 30.36 25.3653 30.5067 25.037C30.5661 24.9042 30.6514 24.802 30.7767 24.7137L30.9599 24.5846V24.113V23.6413L30.7699 23.5416C30.4211 23.3586 30.4165 23.3514 30.5256 23.1548C30.5891 23.0403 30.6748 22.9579 30.788 22.9024L30.9562 22.82L30.958 17.2498L30.9599 11.6796L30.6199 11.3434C30.4329 11.1585 30.2799 10.9802 30.2799 10.9472C30.2799 10.8534 30.5067 10.6858 30.6711 10.6581C30.9559 10.6101 30.947 10.6208 30.9766 10.2941C30.9917 10.1269 30.9916 9.77634 30.9764 9.51504L30.9486 9.04004H30.3948H29.841L29.7838 9.17694C29.702 9.37264 29.5691 9.44454 29.2737 9.45294L29.0223 9.46004L28.9664 9.25434C28.925 9.10174 28.8841 9.03654 28.8078 9.00184C28.5252 8.87304 28.2728 8.58884 28.1579 8.27004C28.106 8.12604 28.0964 8.12004 27.9182 8.12004C27.8161 8.12004 27.6443 8.09324 27.5363 8.06044C27.4283 8.02774 27.2928 8.00074 27.2353 8.00044C27.1224 8.00004 26.9356 7.65664 26.8386 7.27124C26.7262 6.82514 27.0923 6.65754 27.4711 6.98174L27.6317 7.11924L27.6458 7.45824C27.6617 7.84054 27.7012 7.90904 27.9269 7.94564C28.1156 7.97634 28.1187 7.96074 28.1194 6.97004L28.1199 6.16004H27.4628C26.7485 6.16004 26.6799 6.17974 26.6799 6.38474C26.6799 6.51074 26.5141 6.67824 26.3817 6.68604C26.3257 6.68934 26.2586 6.69384 26.2326 6.69604C26.2065 6.69824 26.148 6.58304 26.1026 6.44004L26.0199 6.18004L25.6999 6.08814C25.3811 5.99654 25.3711 5.99614 22.9317 5.99944C20.7969 6.00224 20.4644 5.99464 20.3339 5.94014C20.1057 5.84474 19.9328 5.69634 19.8143 5.49404L19.7068 5.31074L19.7137 4.44534C19.7247 3.06504 19.8119 3.16004 18.5339 3.16004C17.8723 3.16004 17.4384 3.14094 17.1715 3.10014C16.7966 3.04274 13.6514 2.99794 12.3347 3.03134ZM12.3599 5.40464C12.5358 5.47314 12.7081 5.49584 13.2199 5.51814C14.3924 5.56924 14.4599 5.65824 14.4599 7.15324V8.16644L14.5905 8.28324L14.7212 8.40004L15.6905 8.40094C17.2395 8.40234 17.2692 8.43194 17.3081 10.0141C17.3463 11.5674 17.2797 11.6329 15.6729 11.6216L14.6858 11.6146L14.5261 11.5089C14.4383 11.4507 14.3154 11.3364 14.2531 11.2548L14.1399 11.1065L14.1199 10.0363C14.1 8.97154 14.0994 8.96574 14.0029 8.86314L13.906 8.76004H12.9309C11.5307 8.76004 11.62 8.67294 11.6197 10.04C11.6195 11.1223 11.6117 11.162 11.3565 11.3767C11.1267 11.5701 11.0373 11.5858 10.0103 11.6125C8.67403 11.6472 8.75993 11.56 8.75993 12.8832C8.75993 13.7814 8.75763 13.8072 8.66123 13.9974C8.43933 14.4354 8.29613 14.48 7.11193 14.48H6.15373L6.04353 14.5903L5.93323 14.7005L5.90663 15.4967C5.84333 17.3855 5.86973 18.6119 5.98403 19.0898C6.04133 19.3292 6.09503 19.5183 6.10343 19.5099C6.11183 19.5015 6.08743 19.3608 6.04933 19.1973C5.98793 18.9344 5.98033 18.6603 5.98303 16.8279L5.98603 14.7557L6.08533 14.6565L6.18453 14.5572L7.12223 14.5545C8.73863 14.5499 8.77833 14.5114 8.82323 12.9083C8.86053 11.5737 8.73233 11.7054 10.0126 11.6873C11.066 11.6725 11.25 11.6358 11.477 11.3951C11.6922 11.167 11.6977 11.1336 11.6988 10.0511L11.6999 9.04224L11.7999 8.94404C11.8998 8.84604 11.9013 8.84594 12.8679 8.83414L13.8359 8.82234L13.9379 8.91814L14.0399 9.01394V10.0274C14.0399 11.2829 14.0958 11.4499 14.5801 11.642C14.7377 11.7046 16.691 11.7042 16.8557 11.6416C17.2807 11.48 17.3997 11.2207 17.3976 10.46C17.3921 8.37474 17.3738 8.35134 15.7275 8.32004L14.6752 8.30004L14.6021 8.20304C14.5358 8.11504 14.5291 8.01304 14.5298 7.10304C14.5309 5.61234 14.4576 5.51004 13.352 5.45994C12.8335 5.43644 12.6155 5.41304 12.2589 5.34254C12.1935 5.32964 12.2389 5.35754 12.3599 5.40464ZM29.2632 11.5043C29.6774 11.7008 29.6065 12.7252 29.1492 13.1519L29.0507 13.2438L29.0273 13.0919C28.9392 12.5201 28.9085 11.9053 28.9582 11.7073C29.0358 11.3983 29.0375 11.3972 29.2632 11.5043ZM21.0199 13.9551C19.8412 13.9983 19.7621 14.1055 19.7608 15.6642L19.7599 16.6683L19.6618 16.7742C19.5676 16.8758 19.5467 16.8801 19.1318 16.8813C18.8943 16.882 17.1609 16.8865 15.2799 16.8913C12.43 16.8985 11.8366 16.9095 11.7199 16.9569C11.3094 17.1237 11.1999 17.3491 11.1999 18.0274C11.1999 18.5387 11.0706 19.4673 10.9884 19.5469C10.9605 19.5738 10.6853 19.6122 10.3399 19.6372C10.0099 19.6611 9.59973 19.6978 9.42833 19.7186C8.84903 19.789 7.19533 19.7642 6.69993 19.6777C6.22623 19.5949 6.17563 19.5891 6.20703 19.6204C6.38563 19.799 8.56093 19.9024 9.51993 19.7778C9.77293 19.745 10.0339 19.7108 10.0999 19.7019C10.1659 19.6929 10.3857 19.6731 10.5883 19.6578C10.8526 19.6378 10.9723 19.6116 11.0122 19.565C11.1426 19.4125 11.2694 18.6903 11.2776 18.0531C11.2849 17.484 11.3369 17.3226 11.5703 17.1446C11.806 16.9648 11.8716 16.962 15.8093 16.961L19.5586 16.96L19.6819 16.8499L19.8051 16.7398L19.8209 15.7325C19.8467 14.0844 19.8846 14.0459 21.4879 14.038C23.1465 14.0298 23.1733 14.058 23.1524 15.7878C23.1331 17.3829 23.1427 17.3735 21.5147 17.3924C20.4652 17.4045 20.4482 17.4061 20.3637 17.4959C20.2784 17.5868 20.278 17.5957 20.2663 20.0436C20.2506 23.3323 20.3647 23.12 18.6131 23.12H17.5961L17.498 23.2258L17.3999 23.3317V24.3008C17.3999 25.9325 17.3646 25.9695 15.796 25.9825C14.4485 25.9936 14.5517 25.893 14.5526 27.1948C14.5536 28.6484 14.4998 28.7135 13.2599 28.7611C12.8363 28.7774 12.4695 28.8137 12.2871 28.8574C11.8976 28.9509 11.9463 28.9808 12.36 28.9024C12.554 28.8656 12.906 28.84 13.2189 28.84C14.5629 28.84 14.6157 28.7816 14.6299 27.2811C14.6427 25.9329 14.4902 26.0829 15.8609 26.0701C17.4968 26.0548 17.4533 26.0987 17.4728 24.44C17.4892 23.041 17.3445 23.1947 18.6378 23.2026C20.4662 23.2137 20.326 23.4699 20.3449 20.0826C20.3543 18.3921 20.3725 17.5714 20.4012 17.5426C20.4284 17.5154 20.8657 17.4928 21.6118 17.48C23.3186 17.4508 23.2199 17.5588 23.2199 15.72C23.2199 13.831 23.2717 13.8725 21.0199 13.9551ZM27.219 27.3C27.2177 27.6665 27.1761 27.7331 27.0756 27.5299C26.9964 27.3699 26.8843 27.2688 26.6799 27.1732C26.581 27.127 26.5815 27.1264 26.7199 27.1193C26.7969 27.1153 26.9049 27.0973 26.9599 27.0793C27.1825 27.0064 27.22 27.0383 27.219 27.3ZM11.841 29.0187C11.8142 29.0509 11.8016 29.1004 11.813 29.1287C11.8262 29.1617 11.8347 29.1558 11.8367 29.112C11.8385 29.0746 11.8714 29.0256 11.9099 29.0032C11.9484 28.9808 11.9596 28.9619 11.9348 28.9612C11.91 28.9605 11.8678 28.9864 11.841 29.0187ZM23.5461 29.0617C23.5712 29.127 23.4602 29.3437 23.3873 29.3716C23.3204 29.3973 23.2299 29.066 23.288 29.0079C23.3365 28.9594 23.5216 28.9979 23.5461 29.0617ZM9.52733 34.5468C9.30033 34.6025 9.12153 34.655 9.13003 34.6634C9.13843 34.6718 9.27913 34.648 9.44263 34.6105C9.78843 34.5311 10.5412 34.528 11.4999 34.6021C11.8801 34.6315 14.0415 34.6594 17.3999 34.6783C20.3149 34.6947 22.7423 34.7224 22.7941 34.7398C22.8847 34.7703 22.8872 34.782 22.8616 35.056C22.8204 35.4951 22.8317 35.9875 22.8911 36.3465L22.9451 36.6731L22.8225 36.7017C22.7096 36.728 13.9229 36.8105 12.4599 36.7989C12.1079 36.7961 11.6669 36.8121 11.4799 36.8344C11.2929 36.8567 10.6675 36.8806 10.0901 36.8875L9.04033 36.9L8.92013 36.7866L8.79993 36.6732L8.80123 36.1666C8.80223 35.7978 8.82773 35.5371 8.89523 35.208C9.00193 34.6878 8.97003 34.6602 8.83963 35.16C8.77573 35.405 8.74523 35.6635 8.73063 36.0852L8.71033 36.6704L8.86513 36.8226L9.01993 36.9748L10.0999 36.9658C10.6939 36.9608 11.3377 36.9381 11.5305 36.9154C11.7233 36.8926 12.1643 36.8771 12.5105 36.881C14.8892 36.9075 22.8369 36.8064 23.0999 36.7462C23.2924 36.7022 23.4691 36.6897 23.6652 36.7062C23.8222 36.7194 24.1389 36.7174 24.369 36.7017L24.7873 36.6732L24.8351 36.4066C24.9042 36.0209 25.0326 35.6549 25.1458 35.5203L25.2442 35.4033L25.5315 35.5069C26.0742 35.7027 26.1605 35.7874 26.3232 36.2839L26.4529 36.68H27.1019H27.751L27.7782 36.535C27.9057 35.8553 28.0386 35.5939 28.2299 35.6465L28.3599 35.6823V36.1752V36.6681L28.6899 36.6937C28.8714 36.7077 29.2804 36.7074 29.5988 36.693L30.1776 36.6668L30.4188 36.4892C30.5514 36.3915 30.7274 36.2771 30.8099 36.235L30.9599 36.1584V35.4392V34.72H30.4658C30.194 34.72 29.8625 34.7314 29.7292 34.7453L29.4867 34.7707L29.4442 34.9353C29.2725 35.6011 28.7379 35.6679 28.6362 35.0364C28.6137 34.8965 28.5858 34.7726 28.5742 34.761C28.521 34.7078 27.5442 34.7472 27.5257 34.8033C27.4083 35.1601 26.8683 35.2016 26.7152 34.8657C26.6572 34.7383 26.4033 34.7205 24.6315 34.7202C23.6149 34.7201 23.1382 34.7042 22.8515 34.6612C22.5327 34.6133 21.6123 34.5978 17.8999 34.5777C12.1198 34.5465 11.7318 34.5414 10.8599 34.4867C9.95233 34.4298 10.0156 34.4269 9.52733 34.5468ZM23.4878 35.35C23.675 35.55 23.7263 35.6923 23.6517 35.804C23.5637 35.9359 23.3912 36.12 23.3557 36.12C23.2842 36.12 23.2385 35.7066 23.2843 35.4741C23.3369 35.2065 23.3475 35.2 23.4878 35.35Z" fill="#848484"/>
<path fillRule="evenodd" clipRule="evenodd" d="M11.8617 3.27796C11.7841 3.36376 11.7757 4.21456 11.8464 4.82606L11.8934 5.23226L12.1967 5.27966C12.3634 5.30576 12.8509 5.34026 13.2799 5.35646C14.6205 5.40686 14.6135 5.39826 14.6327 7.02746C14.6437 7.95236 14.6549 8.12256 14.7079 8.16656C14.7545 8.20526 15.0085 8.21976 15.715 8.22416C17.4485 8.23486 17.4052 8.19496 17.4795 9.85036C17.5658 11.7736 17.56 11.78 15.7389 11.78H14.5379L14.3405 11.6784C13.9678 11.4867 13.9407 11.3814 13.9358 10.1082C13.9324 9.22456 13.9214 9.02426 13.8733 8.97626C13.8236 8.92656 13.6675 8.92246 12.8174 8.94896L11.8199 8.97996L11.7999 10.08C11.7694 11.7586 11.7801 11.7484 10.0199 11.7879C9.45446 11.8006 8.99816 11.8276 8.96986 11.8501C8.93236 11.8799 8.91976 12.1352 8.91936 12.8749C8.91856 14.624 8.90246 14.64 7.14276 14.64C6.36976 14.64 6.16036 14.6512 6.12436 14.6945C6.09266 14.7327 6.07386 15.3059 6.06166 16.6045C6.04606 18.262 6.06276 18.8274 6.14386 19.387L6.16806 19.5539L6.47396 19.5819C6.64216 19.5973 6.81496 19.6163 6.85786 19.6242C6.99016 19.6485 9.44896 19.643 9.63986 19.618C9.73886 19.6051 10.0809 19.5822 10.3999 19.5672L10.9799 19.54L11.0084 19.36C11.0241 19.261 11.0541 18.784 11.0751 18.3C11.1211 17.2382 11.1627 17.0626 11.397 16.9415C11.662 16.8045 11.8665 16.7976 15.6925 16.7977C19.1504 16.7978 19.5025 16.7919 19.5679 16.7327C19.6333 16.6736 19.6399 16.5823 19.6399 15.7411C19.6399 13.8769 19.639 13.8779 21.434 13.8339C22.0798 13.8181 22.6136 13.7994 22.6202 13.7925C22.6268 13.7856 22.6483 13.5273 22.668 13.2185C22.7035 12.6606 22.705 12.6544 22.8925 12.269C23.1329 11.7747 23.0642 11.633 22.5284 11.5181C21.7538 11.352 21.6663 10.7393 22.3799 10.4779C23.084 10.2199 23.0445 9.88836 22.2404 9.30656C22.1346 9.22996 22.0112 9.08756 21.9395 8.95936C21.7294 8.58316 21.6391 8.54656 20.996 8.57706L20.4521 8.60286L20.3423 8.35806C20.2184 8.08196 20.218 8.10986 20.3636 6.88726C20.4481 6.17756 20.4463 6.16016 20.2875 6.15956C20.0037 6.15856 19.6337 5.88486 19.5789 5.63556C19.5339 5.43076 18.8723 5.30276 18.0799 5.34546C17.6617 5.36796 17.6139 5.36346 17.5543 5.29516C17.4398 5.16396 17.3477 4.45236 17.3679 3.85536L17.3859 3.32686L17.0229 3.26536C16.4508 3.16846 11.9509 3.17946 11.8617 3.27796ZM19.4349 4.09996C19.4321 4.11096 19.4274 4.13346 19.4243 4.14996C19.4212 4.16646 19.4055 4.20056 19.3895 4.22576C19.3735 4.25096 19.3956 4.31396 19.4388 4.36576L19.5172 4.45996L19.5186 4.26996C19.5196 4.12076 19.46 3.99956 19.4349 4.09996ZM25.0499 6.18746C24.9355 6.21046 24.9361 6.21416 25.0969 6.49456C25.2284 6.72386 25.232 6.72666 25.2542 6.61456C25.3355 6.20356 25.3035 6.13676 25.0499 6.18746ZM27.9699 9.00116C27.8562 9.04686 27.8567 9.08426 27.9725 9.19296C28.1032 9.31576 28.2066 9.20806 28.1356 9.02316C28.1083 8.95196 28.0963 8.95046 27.9699 9.00116ZM20.6359 9.94996L20.7208 10.02L20.6057 10.1926C20.4751 10.3883 20.4399 10.3594 20.4399 10.0567C20.4399 9.86026 20.4924 9.83166 20.6359 9.94996ZM20.5616 11.988C20.646 12.3946 20.7271 12.4855 21.0513 12.5366C21.133 12.5495 21.2633 12.5699 21.3408 12.582C21.4902 12.6053 21.7599 12.8115 21.7599 12.9025C21.7599 12.9323 21.6895 13.0306 21.6035 13.121L21.4472 13.2853L21.2935 13.2076C21.209 13.1649 21.0049 13.088 20.8399 13.0369C20.419 12.9064 20.4398 12.9393 20.4404 12.4051C20.4412 11.7492 20.4825 11.6071 20.5616 11.988ZM25.1719 11.8356C25.1222 11.9153 25.1793 12.2 25.245 12.2C25.3121 12.2 25.375 11.8864 25.321 11.8213C25.2548 11.7415 25.2291 11.744 25.1719 11.8356ZM25.2277 14.7456C25.1805 14.7928 25.2391 14.8327 25.3233 14.8107C25.3867 14.7941 25.3939 14.7808 25.3533 14.7551C25.2886 14.7141 25.2612 14.712 25.2277 14.7456ZM20.4802 18.47L20.4804 19.34L20.6027 19.4096C20.7378 19.4865 20.7271 19.56 20.581 19.56C20.4489 19.56 20.421 19.9106 20.458 21.1055C20.5132 22.8909 20.4586 23.32 20.1763 23.32C20.0735 23.32 19.98 23.3658 19.8092 23.5C19.5262 23.7221 19.5134 23.7221 19.3955 23.5L19.3 23.32H18.4494H17.5988L17.6094 24.6872L17.6199 26.0545L17.8699 26.11C18.1528 26.1728 18.176 26.2066 17.9899 26.2851C17.7959 26.367 16.6357 26.341 16.4644 26.2509C16.2453 26.1358 15.0375 26.1509 14.9102 26.2704C14.8573 26.3201 14.8018 26.3486 14.7869 26.3337C14.7721 26.3188 14.7581 26.3952 14.7559 26.5033C14.7538 26.6115 14.7452 26.754 14.737 26.82C14.7288 26.886 14.7329 27.156 14.746 27.42L14.7699 27.9L14.9349 27.98C15.1361 28.0776 15.1347 28.1125 14.9251 28.2179C14.8008 28.2805 14.7618 28.3237 14.7608 28.4C14.7545 28.8701 14.7038 28.8912 13.4999 28.9251C12.3985 28.956 11.9294 28.9923 11.8942 29.0492C11.7629 29.2617 11.7118 30.9041 11.833 31.0138C11.9197 31.0922 12.8267 31.1037 13.8799 31.0397C14.2209 31.019 15.0184 30.9896 15.6521 30.9745L16.8043 30.947L16.8798 30.8511C17.1312 30.5314 17.0896 29.8327 16.813 29.7305C16.7508 29.7075 16.6146 29.6583 16.5103 29.6212C16.1925 29.5081 16.0155 29.1774 16.1176 28.8874C16.3402 28.2548 17.2019 28.296 17.3659 28.9471C17.3908 29.0462 17.4551 29.1795 17.5088 29.2433L17.6063 29.3592L17.747 29.2518C17.8266 29.1912 17.927 29.0566 17.9781 28.9423C18.1532 28.5498 18.3368 28.4705 19.0352 28.485L19.5399 28.4955L19.6199 28.3378C19.6875 28.2044 19.7 28.0995 19.7009 27.66L19.7018 27.14L19.9099 26.86C20.0244 26.706 20.186 26.445 20.269 26.28C20.352 26.115 20.4779 25.9028 20.5488 25.8084C20.6197 25.714 20.697 25.561 20.7207 25.4684C20.9227 24.6769 21.5133 24.5011 21.8408 25.135C22.109 25.6543 22.4847 25.7206 22.9567 25.3319L23.0536 25.2522L22.7867 24.7875C22.64 24.5319 22.5199 24.2803 22.5199 24.2284C22.5199 24.1188 22.6789 23.6354 22.7779 23.4439C23.0034 23.0077 22.7777 21.8673 22.4035 21.5532L22.2519 21.426L22.3652 21.243C22.6209 20.8301 22.6805 20.5518 22.6274 20.0192C22.5805 19.549 22.5814 19.5366 22.6965 19.0813L22.8131 18.62L22.7308 18.22C22.6855 18 22.6289 17.7705 22.6051 17.71L22.5619 17.6H21.5209H20.4799L20.4802 18.47ZM21.4792 22.3186C21.5097 22.3756 21.5068 22.4326 21.4689 22.5256L21.4165 22.6539L21.3294 22.5169L21.2422 22.38L21.331 22.3109C21.4408 22.2255 21.429 22.2249 21.4792 22.3186ZM19.666 24.89C19.9487 25.1917 19.965 25.2537 19.7899 25.3604C19.6364 25.4541 19.447 25.4621 19.2686 25.3827C18.9996 25.2629 18.9996 25.2633 19.2586 25.0014C19.5387 24.7182 19.5119 24.7255 19.666 24.89ZM22.9643 27.1377C22.9946 27.168 23.3569 27.1764 23.3858 27.1474C23.4009 27.1323 23.3082 27.12 23.1799 27.12C23.0516 27.12 22.9545 27.128 22.9643 27.1377ZM21.3024 27.9321C21.1923 28.1199 21.1948 28.1568 21.333 28.3924L21.4106 28.5247L21.5223 28.4177C21.7654 28.1848 21.7554 27.9863 21.4918 27.8113C21.4115 27.758 21.4002 27.7652 21.3024 27.9321ZM9.31986 34.6947L9.01986 34.74L8.99016 34.92C8.92876 35.2928 8.90506 36.674 8.95896 36.739C9.02106 36.8137 10.7684 36.8266 11.1999 36.7556C11.3429 36.732 11.9485 36.7088 12.5458 36.7041L13.6316 36.6955L13.8458 36.464C14.2785 35.9961 14.3163 35.8373 14.1725 35.09L14.109 34.76L13.0844 34.7597C12.5209 34.7596 11.7359 34.7328 11.3399 34.7003C10.5084 34.6319 9.74916 34.6298 9.31986 34.6947ZM12.953 35.7723C12.863 35.8465 12.6716 35.8397 12.4454 35.7543L12.3509 35.7186L12.4454 35.6449C12.4974 35.6043 12.6119 35.5342 12.6999 35.489L12.8599 35.4068L12.9503 35.5534L13.0407 35.7L12.953 35.7723Z" fill="#F6019D"/>
<path fillRule="evenodd" clipRule="evenodd" d="M8.0874 3.0567C8.0943 4.7379 8.1149 6.1284 8.1332 6.1467C8.1515 6.165 8.795 6.1852 9.5632 6.1915L10.9599 6.203V7.1367V8.0704L9.5619 8.0865C8.7931 8.0953 8.1501 8.1164 8.1332 8.1333C8.1163 8.1502 8.0953 8.7921 8.0864 9.5596L8.0703 10.9552L6.7365 10.9676C5.5196 10.9789 5.3964 10.9863 5.3313 11.0514C5.2662 11.1165 5.2588 11.2402 5.247 12.4614L5.2342 13.8H3.942C3.2314 13.8 2.5936 13.8113 2.5249 13.825L2.3999 13.85V17.1403V20.4307L2.4899 20.4548C2.5394 20.4681 3.1784 20.4792 3.9099 20.4795L5.2399 20.48V21.8367C5.2399 22.5829 5.2508 23.2219 5.2642 23.2567C5.2968 23.3418 11.8132 23.3549 11.8666 23.27C11.8839 23.2425 11.9051 22.6035 11.9136 21.85L11.929 20.48H14.3045H16.6799V21.44V22.4H15.2649H13.8499L13.8249 22.525C13.8112 22.5938 13.7999 23.2328 13.7999 23.945V25.24H12.4279C11.4141 25.24 11.0434 25.2525 11.0079 25.288C10.9724 25.3235 10.9599 25.6932 10.9599 26.7035V28.071L9.5628 28.0859C8.7944 28.0942 8.1509 28.1157 8.1328 28.1338C8.1147 28.1518 8.0942 29.4341 8.0872 30.9833L8.0746 33.8H6.7599C6.0024 33.8 5.4016 33.8165 5.3425 33.839L5.2399 33.878V36.939V40H19.9999H34.7599V36.939V33.878L34.6573 33.839C34.5982 33.8165 33.9965 33.8 33.2373 33.8H31.9199V30V26.2H33.2373C33.9965 26.2 34.5982 26.1835 34.6573 26.161L34.7599 26.122V17.1434C34.7599 10.0039 34.7497 8.1583 34.7099 8.1333C34.6824 8.116 34.0454 8.0949 33.2944 8.0864L31.9289 8.071L31.9135 6.7055C31.905 5.9545 31.8839 5.3175 31.8666 5.29C31.8424 5.2516 31.5122 5.24 30.4375 5.24H29.0399V4.3224C29.0399 3.6322 29.0275 3.3967 28.9899 3.3724C28.9624 3.3546 28.5304 3.334 28.0299 3.3267L27.1199 3.3135V2.9196C27.1199 2.3374 27.5274 2.4 23.737 2.4H20.4799V1.2V0H14.2774H8.0749L8.0874 3.0567ZM18.4199 2.7896C20.1166 2.8435 20.0388 2.7714 20.0701 4.3174L20.09 5.3L20.2705 5.47L20.451 5.64L22.9555 5.6402C24.878 5.6403 25.5389 5.653 25.7999 5.6949C26.0498 5.735 26.4 5.7442 27.1209 5.7294C28.6071 5.6989 28.5599 5.6528 28.5599 7.1331V8.1087L28.6899 8.2716C28.9591 8.6089 28.9007 8.5947 30.0706 8.6081L31.1136 8.62L31.221 8.72C31.4137 8.8994 31.4077 8.6293 31.4058 17.1263C31.4041 24.8504 31.4006 25.2397 31.332 25.3843C31.1899 25.6835 31.1152 25.7007 29.9808 25.6949L28.9818 25.6899L28.765 25.9149L28.5483 26.14L28.555 28.54C28.5627 31.2342 28.582 31.0513 28.2634 31.3055L28.1207 31.4194L25.7503 31.4093C24.1795 31.4026 23.272 31.4142 23.0599 31.4436C22.8572 31.4717 21.6698 31.4924 19.8199 31.5C18.2139 31.5067 15.7659 31.5249 14.3799 31.5404L11.8599 31.5687L11.6622 31.4344C11.3462 31.2196 11.2799 31.0511 11.2799 30.4621C11.2799 29.0255 11.8697 28.4423 13.3243 28.4406L13.8286 28.44L14.0143 28.2766L14.1999 28.1132V27.2421C14.1999 25.5913 14.1848 25.603 16.3099 25.6005L16.72 25.6L16.8775 25.4377L17.035 25.2754L17.0475 24.2477C17.066 22.7139 16.9914 22.7887 18.5329 22.76L19.6058 22.74L19.7529 22.58L19.8999 22.42V19.971V17.522L19.789 17.411L19.6781 17.3L15.7796 17.2894L11.8811 17.2788L11.7205 17.4394L11.5599 17.6V18.1054C11.5599 19.3352 11.2911 19.819 10.5533 19.9171C10.3479 19.9444 10.0449 19.9909 9.8799 20.0205C9.7149 20.0501 9.5079 20.0866 9.4199 20.1016C9.0097 20.1718 7.149 20.1527 6.8399 20.0751C6.1443 19.9005 5.87 19.6534 5.6688 19.02C5.5656 18.6949 5.5409 14.9676 5.6396 14.6011C5.7438 14.214 5.9318 14.16 7.1758 14.16H8.1105L8.2752 13.9953L8.4399 13.8306L8.4403 13.2053C8.4417 11.2651 8.4149 11.2912 10.4099 11.2826L10.9999 11.28L11.1557 11.1242L11.3115 10.9684L11.312 9.9517C11.3128 8.4068 11.2692 8.4439 13.0919 8.4411C14.1909 8.4394 14.1535 8.4854 14.1544 7.1339L14.1551 6.1719L13.9875 6.0091L13.8199 5.8463L13.2399 5.8312C12.4975 5.812 12.2621 5.7172 11.9154 5.298C11.8799 5.2551 11.7846 5.1592 11.7035 5.085C11.1081 4.5395 11.112 3.1783 11.7101 2.8292L11.8999 2.7183L14.5799 2.7356C16.0539 2.7451 17.7819 2.7694 18.4199 2.7896ZM14.5568 8.8369C14.4243 8.9695 14.411 9.1387 14.4358 10.38L14.4478 10.98L14.5938 11.1258L14.7399 11.2715L15.7145 11.2911L16.689 11.3107L16.8445 11.1505L16.9999 10.9904V10.0153V9.0402L16.8552 8.8801L16.7106 8.72H15.6922H14.6737L14.5568 8.8369ZM20.3864 14.4582C20.1288 14.6534 20.1199 14.6953 20.1199 15.7091C20.1199 17.1193 20.0424 17.04 21.4207 17.04H22.4238L22.5855 16.8846C22.7743 16.7032 22.7999 16.5231 22.7999 15.3746V14.7614L22.6268 14.5807L22.4536 14.4L21.4568 14.4013C20.6683 14.4023 20.4445 14.4142 20.3864 14.4582ZM16.1199 34.1798C19.5375 34.1914 22.2288 34.2173 22.6399 34.2424C23.0306 34.2663 25.0364 34.2892 27.1799 34.2943C30.7272 34.3028 31.0298 34.3087 31.1492 34.3724C31.3783 34.4945 31.3908 34.5584 31.406 35.6806L31.4199 36.7L31.2123 36.91L31.0046 37.12L30.1923 37.1223C25.244 37.1366 13.6424 37.2209 11.0143 37.2617L9.0087 37.2928L8.8312 37.1887C8.7335 37.1315 8.601 37.0071 8.5368 36.9123L8.4199 36.74L8.4325 36.16C8.4552 35.1125 8.6539 34.6769 9.2459 34.377C9.5203 34.2379 9.9885 34.1168 10.1599 34.1406C10.2369 34.1512 12.9189 34.1689 16.1199 34.1798Z" fill="#0C0C0C"/>
<path fillRule="evenodd" clipRule="evenodd" d="M12.2804 3.11162C11.9305 3.12232 11.8919 3.13172 11.7864 3.23162L11.672 3.34002L11.6933 3.94002C11.7085 4.36872 11.7382 4.62572 11.7973 4.84002C11.8428 5.00502 11.8706 5.07702 11.859 5.00002C11.7922 4.55602 11.7904 3.35682 11.8564 3.28392C11.9505 3.17992 16.424 3.16392 17.0229 3.26542L17.3859 3.32692L17.3679 3.85542C17.3477 4.45242 17.4398 5.16402 17.5543 5.29522C17.6139 5.36352 17.6617 5.36802 18.0799 5.34552C18.8723 5.30282 19.5339 5.43082 19.5789 5.63562C19.6337 5.88492 20.0037 6.15862 20.2875 6.15962C20.4463 6.16022 20.4481 6.17762 20.3636 6.88732C20.218 8.10992 20.2184 8.08202 20.3423 8.35812L20.4521 8.60292L20.996 8.57712C21.6391 8.54662 21.7294 8.58322 21.9395 8.95942C22.0112 9.08762 22.1346 9.23002 22.2404 9.30662C23.0445 9.88842 23.084 10.2199 22.3799 10.4779C21.6663 10.7393 21.7538 11.352 22.5284 11.5181C23.0642 11.633 23.1329 11.7747 22.8925 12.269C22.705 12.6544 22.7035 12.6606 22.668 13.2185C22.6483 13.5273 22.6268 13.7856 22.6202 13.7925C22.6136 13.7994 22.0798 13.8181 21.434 13.8339C19.639 13.8779 19.6399 13.8769 19.6399 15.7411C19.6399 16.5823 19.6333 16.6736 19.5679 16.7327C19.5025 16.7919 19.1504 16.7978 15.6925 16.7977C11.8665 16.7976 11.662 16.8045 11.397 16.9415C11.1627 17.0626 11.1211 17.2382 11.0751 18.3C11.0541 18.784 11.0241 19.261 11.0084 19.36L10.9799 19.54L10.3999 19.5672C10.0809 19.5822 9.7389 19.6051 9.6399 19.618C9.449 19.643 6.9902 19.6485 6.8579 19.6242C6.815 19.6163 6.6422 19.5973 6.474 19.5819L6.1681 19.5539L6.1439 19.387C6.0628 18.8274 6.0461 18.262 6.0617 16.6045C6.0739 15.3059 6.0927 14.7327 6.1244 14.6945C6.1604 14.6512 6.3698 14.64 7.1428 14.64C8.9025 14.64 8.9186 14.624 8.9194 12.8749C8.9198 12.1352 8.9324 11.8799 8.9699 11.8501C8.9982 11.8276 9.4545 11.8006 10.0199 11.7879C11.7801 11.7484 11.7694 11.7586 11.7999 10.08L11.8199 8.98002L12.8174 8.94902C13.6675 8.92252 13.8236 8.92662 13.8733 8.97632C13.9214 9.02432 13.9324 9.22462 13.9358 10.1082C13.9407 11.3814 13.9678 11.4867 14.3405 11.6784L14.5379 11.78H15.7389C17.56 11.78 17.5658 11.7736 17.4795 9.85042C17.4052 8.19502 17.4485 8.23492 15.715 8.22422C15.0085 8.21982 14.7545 8.20532 14.7079 8.16662C14.6549 8.12262 14.6437 7.95242 14.6327 7.02752C14.6135 5.39842 14.6206 5.40712 13.2799 5.35622C12.8509 5.33982 12.4099 5.31612 12.2999 5.30342L12.0999 5.28032L12.2999 5.34122C12.411 5.37502 12.8022 5.41962 13.1799 5.44132C14.4826 5.51642 14.5309 5.57592 14.5298 7.10302C14.5291 8.01302 14.5358 8.11502 14.6021 8.20302L14.6752 8.30002L15.7275 8.32002C17.3738 8.35132 17.3921 8.37472 17.3976 10.46C17.3997 11.2207 17.2807 11.48 16.8557 11.6416C16.691 11.7042 14.7377 11.7046 14.5801 11.642C14.0958 11.4499 14.0399 11.2829 14.0399 10.0274V9.01392L13.9379 8.91812L13.8359 8.82232L12.8679 8.83412C11.9013 8.84592 11.8998 8.84602 11.7999 8.94402L11.6999 9.04222L11.6988 10.0511C11.6977 11.1336 11.6922 11.167 11.477 11.3951C11.25 11.6358 11.066 11.6725 10.0126 11.6873C8.7323 11.7054 8.8605 11.5737 8.8232 12.9083C8.7783 14.5114 8.7386 14.5499 7.1222 14.5545C6.186 14.5572 6.1844 14.5573 6.088 14.6537L5.9915 14.7502L5.9699 16.6651C5.948 18.6102 5.9637 18.9167 6.1126 19.4597C6.1766 19.6927 8.2636 19.8588 9.4019 19.7215C9.5878 19.6991 10.0099 19.6612 10.3399 19.6372C10.6853 19.6122 10.9605 19.5738 10.9884 19.5469C11.0706 19.4673 11.1999 18.5387 11.1999 18.0274C11.1999 17.3491 11.3094 17.1237 11.7199 16.9569C11.8366 16.9095 12.43 16.8985 15.2799 16.8913C17.1609 16.8865 18.8943 16.882 19.1318 16.8813C19.5467 16.8801 19.5676 16.8758 19.6618 16.7742L19.7599 16.6683L19.7603 15.6642C19.7609 13.9981 19.7894 13.9707 21.544 13.9519L22.6599 13.94L22.8599 14.04C23.2142 14.2171 23.2199 14.2439 23.2199 15.72C23.2199 17.5588 23.3186 17.4508 21.6118 17.48C20.8657 17.4928 20.4284 17.5154 20.4012 17.5426C20.3725 17.5714 20.3543 18.3921 20.3449 20.0826C20.326 23.4699 20.4662 23.2137 18.6378 23.2026C17.3445 23.1947 17.4892 23.041 17.4728 24.44C17.4533 26.0987 17.4968 26.0548 15.8609 26.0701C14.4902 26.0829 14.6427 25.9329 14.6299 27.2811C14.6157 28.7842 14.5668 28.8377 13.2044 28.8415C12.8225 28.8426 12.5524 28.8661 12.2999 28.9202L11.9399 28.9974L12.2199 28.9748C12.3739 28.9624 12.9499 28.9398 13.4999 28.9246C14.7038 28.8913 14.7545 28.8702 14.7608 28.4C14.7618 28.3241 14.8005 28.2807 14.9212 28.22C15.1304 28.1148 15.1326 28.0759 14.9349 27.98L14.7699 27.9L14.746 27.42C14.7329 27.156 14.7288 26.886 14.737 26.82C14.7452 26.754 14.7538 26.6115 14.7559 26.5033C14.7581 26.3952 14.7721 26.3188 14.7869 26.3337C14.8018 26.3486 14.8573 26.3201 14.9102 26.2704C15.0375 26.1509 16.2453 26.1358 16.4644 26.2509C16.6357 26.341 17.7959 26.367 17.9899 26.2851C18.176 26.2066 18.1528 26.1728 17.8699 26.11L17.6199 26.0545L17.6094 24.6872L17.5988 23.32H18.4494H19.3L19.3955 23.5C19.5134 23.7221 19.5262 23.7221 19.8092 23.5C19.98 23.3658 20.0735 23.32 20.1763 23.32C20.4586 23.32 20.5132 22.8909 20.458 21.1055C20.421 19.9106 20.4489 19.56 20.581 19.56C20.7271 19.56 20.7378 19.4865 20.6027 19.4096L20.4804 19.34L20.4802 18.47L20.4799 17.6H21.5209H22.5619L22.6051 17.71C22.6289 17.7705 22.6855 18 22.7308 18.22L22.8131 18.62L22.6965 19.0813C22.5814 19.5366 22.5805 19.549 22.6274 20.0192C22.6805 20.5518 22.6209 20.8301 22.3652 21.243L22.2519 21.426L22.4035 21.5532C22.7777 21.8673 23.0034 23.0077 22.7779 23.4439C22.6789 23.6354 22.5199 24.1188 22.5199 24.2284C22.5199 24.2803 22.64 24.5319 22.7867 24.7875L23.0536 25.2522L22.9567 25.3319C22.4847 25.7206 22.109 25.6543 21.8408 25.135C21.604 24.6766 21.3801 24.6239 21.0112 24.9396C20.8472 25.08 20.796 25.1731 20.7207 25.4684C20.697 25.561 20.6197 25.714 20.5488 25.8084C20.4779 25.9028 20.352 26.115 20.269 26.28C20.186 26.445 20.0244 26.706 19.9099 26.86L19.7018 27.14L19.7009 27.66C19.7 28.0995 19.6875 28.2044 19.6199 28.3378L19.5399 28.4955L19.0352 28.485C18.3368 28.4705 18.1532 28.5498 17.9781 28.9423C17.927 29.0566 17.8266 29.1912 17.747 29.2518L17.6063 29.3592L17.5088 29.2433C17.4551 29.1795 17.3908 29.0462 17.3659 28.9471C17.2019 28.296 16.3402 28.2548 16.1176 28.8874C16.0155 29.1774 16.1925 29.5081 16.5103 29.6212C16.6146 29.6583 16.7508 29.7075 16.813 29.7305C17.0896 29.8327 17.1312 30.5314 16.8798 30.8511L16.8043 30.947L15.6521 30.9745C15.0184 30.9896 14.2209 31.019 13.8799 31.0397C12.7752 31.1068 11.904 31.0929 11.8261 31.0069C11.7077 30.876 11.7691 29.2662 11.9013 29.0333C11.9234 28.9945 11.919 28.9916 11.8853 29.0225C11.6448 29.2429 11.5887 30.9161 11.8154 31.107L11.9399 31.2118L12.8999 31.1842C13.4279 31.169 14.1119 31.14 14.4199 31.1196C14.7279 31.0992 16.6539 31.0715 18.6999 31.058C21.9812 31.0363 22.7998 31.0135 22.8717 30.9416C22.9703 30.8429 22.9855 29.9709 22.8955 29.5727C22.777 29.0483 22.7771 29.0259 22.8995 28.817C23.1104 28.4572 23.253 28.4278 23.8599 28.6192L24.2999 28.7579L24.5999 28.6744C25.4855 28.4279 25.6299 28.2781 25.6764 27.5572C25.7198 26.8835 25.9556 26.1021 26.1668 25.9322C26.2223 25.8875 26.5981 25.8321 27.3399 25.7592C28.126 25.682 28.0974 25.6888 28.174 25.5593C28.2123 25.4943 28.3059 25.3937 28.3818 25.3358L28.5199 25.2305L28.5207 24.7253C28.5211 24.4474 28.5388 24.103 28.56 23.96C28.6021 23.676 28.6245 14.2251 28.5845 13.62C28.463 11.7807 28.4632 11.9456 28.582 11.42C28.6989 10.9024 28.6965 11.0488 28.614 9.52082C28.5896 9.06672 28.5829 9.03812 28.4878 8.97582C28.3531 8.88752 28.2141 8.72482 28.1557 8.58712C28.1011 8.45842 28.0057 8.45962 27.428 8.59612C26.929 8.71402 26.1933 8.55522 25.9402 8.27502L25.7995 8.11942L25.8231 7.70972C25.836 7.48442 25.8535 7.27772 25.8618 7.25042C25.8702 7.22322 25.8518 7.06122 25.8209 6.89042C25.7901 6.71972 25.7502 6.49072 25.7324 6.38152C25.6988 6.17632 25.5462 6.07832 25.2599 6.07832C25.2159 6.07832 24.1179 6.07862 22.8199 6.07892C19.5077 6.07982 19.6263 6.14302 19.6222 4.37622C19.6193 3.09722 19.7523 3.23462 18.5233 3.24132C17.7984 3.24522 17.4453 3.23032 17.1799 3.18482C16.8364 3.12592 13.4601 3.07552 12.2804 3.11162ZM19.5186 4.27002L19.5172 4.46002L19.4388 4.36582C19.3956 4.31402 19.3735 4.25102 19.3895 4.22582C19.4055 4.20062 19.4212 4.16652 19.4243 4.15002C19.4362 4.08622 19.4411 4.08002 19.4799 4.08002C19.5019 4.08002 19.5193 4.16552 19.5186 4.27002ZM25.2884 6.34002C25.2594 6.74332 25.2458 6.75422 25.0969 6.49462C24.9361 6.21422 24.9355 6.21052 25.0499 6.18752C25.2626 6.14492 25.3006 6.16922 25.2884 6.34002ZM28.1356 9.02322C28.2066 9.20812 28.1032 9.31582 27.9725 9.19302C27.8567 9.08432 27.8562 9.04692 27.9699 9.00122C28.0963 8.95052 28.1083 8.95202 28.1356 9.02322ZM20.4399 10.0567C20.4399 10.3594 20.4751 10.3883 20.6057 10.1926L20.7208 10.02L20.6359 9.95002C20.4924 9.83172 20.4399 9.86032 20.4399 10.0567ZM20.4651 11.85C20.4175 12.0278 20.4372 12.8682 20.4899 12.907C20.5174 12.9273 20.6749 12.9857 20.8399 13.0369C21.0049 13.088 21.209 13.1649 21.2935 13.2076L21.4472 13.2853L21.6035 13.121C21.6895 13.0306 21.7599 12.9323 21.7599 12.9025C21.7599 12.8115 21.4902 12.6053 21.3408 12.582C21.2633 12.5699 21.133 12.5495 21.0513 12.5366C20.7271 12.4855 20.646 12.3946 20.5616 11.988C20.5088 11.7338 20.4997 11.7208 20.4651 11.85ZM25.321 11.8213C25.375 11.8864 25.3121 12.2 25.245 12.2C25.1793 12.2 25.1222 11.9153 25.1719 11.8356C25.2291 11.744 25.2548 11.7415 25.321 11.8213ZM25.3533 14.7551C25.3939 14.7808 25.3867 14.7941 25.3233 14.8107C25.2391 14.8327 25.1805 14.7928 25.2277 14.7456C25.2612 14.712 25.2886 14.7141 25.3533 14.7551ZM21.331 22.3109L21.2422 22.38L21.3294 22.5169L21.4165 22.6539L21.4689 22.5256C21.5068 22.4326 21.5097 22.3756 21.4792 22.3186C21.429 22.2249 21.4408 22.2255 21.331 22.3109ZM19.2586 25.0014C18.9996 25.2633 18.9996 25.2629 19.2686 25.3827C19.6104 25.5349 20.0111 25.3543 19.8539 25.1189C19.5868 24.7191 19.5459 24.711 19.2586 25.0014ZM23.3858 27.1474C23.3569 27.1764 22.9946 27.168 22.9643 27.1377C22.9545 27.128 23.0516 27.12 23.1799 27.12C23.3082 27.12 23.4009 27.1323 23.3858 27.1474ZM21.6545 27.9714C21.7475 28.0961 21.7037 28.2439 21.5223 28.4177L21.4106 28.5247L21.333 28.3924C21.1948 28.1568 21.1923 28.1199 21.3024 27.9321C21.418 27.7349 21.4833 27.7422 21.6545 27.9714ZM9.6199 34.5783C9.4659 34.6078 9.2769 34.6515 9.1999 34.6754L9.0599 34.7188L9.1999 34.6997C9.6508 34.6378 10.5602 34.6361 11.2888 34.6956C11.7399 34.7324 12.5127 34.76 13.0934 34.76H14.109L14.1725 35.09C14.3163 35.8373 14.2785 35.9961 13.8458 36.464L13.6316 36.6955L12.5458 36.7041C11.9485 36.7088 11.3429 36.732 11.1999 36.7556C10.8272 36.817 9.03 36.8141 8.9679 36.752C8.9065 36.6906 8.9032 35.7468 8.9625 35.2144C8.986 35.0041 8.9981 34.8249 8.9894 34.8162C8.9366 34.7634 8.7999 35.7524 8.7999 36.1872V36.6732L8.9201 36.7866L9.0403 36.9L10.0901 36.8875C10.6675 36.8806 11.2929 36.8567 11.4799 36.8344C11.6669 36.8121 12.1079 36.7961 12.4599 36.7989C13.9229 36.8105 22.7096 36.728 22.8225 36.7017L22.9451 36.6731L22.8911 36.3465C22.8317 35.9875 22.8204 35.4951 22.8616 35.056C22.8872 34.782 22.8847 34.7703 22.7941 34.7398C22.7423 34.7224 20.3059 34.6945 17.3799 34.6778C14.3923 34.6607 11.8144 34.629 11.4999 34.6055C10.4806 34.5294 9.9182 34.5212 9.6199 34.5783ZM12.6999 35.489C12.6119 35.5342 12.4974 35.6043 12.4454 35.6449L12.3509 35.7186L12.4454 35.7543C12.6716 35.8397 12.863 35.8465 12.953 35.7723L13.0407 35.7L12.9503 35.5534L12.8599 35.4068L12.6999 35.489Z" fill="#F6019D"/>
</svg>