<svg xmlns="http://www.w3.org/2000/svg" width="40" height="40" viewBox="0 0 40 40" fill="none">
<path fillRule="evenodd" clipRule="evenodd" d="M18.5299 3.30927L17.5999 3.32147V4.26007C17.5999 5.16237 17.5958 5.21237 17.4933 5.54937C17.2976 6.19337 17.3269 7.15057 17.5675 7.96707C17.6137 8.12407 17.7396 8.17557 18.4392 8.32407C18.7758 8.39547 19.5085 8.34107 19.8865 8.21667L20.1931 8.11567L20.222 7.76857C20.2792 7.08197 20.1704 6.15007 19.9596 5.51997C19.8122 5.07957 19.7478 4.55437 19.7571 3.86997C19.7641 3.36327 19.759 3.31997 19.6923 3.31947C19.6525 3.31917 19.5839 3.31397 19.5399 3.30797C19.4959 3.30197 19.0414 3.30257 18.5299 3.30927ZM17.9204 11.6669C17.4067 11.696 17.4129 11.6806 17.3667 13.04C17.3167 14.5095 17.3375 14.4905 15.7436 14.5138C14.3974 14.5334 14.5393 14.3923 14.5096 15.7419C14.4757 17.2852 14.4215 17.3577 13.2999 17.3589C12.4787 17.3598 11.9044 17.4282 11.804 17.5372C11.6686 17.6842 11.6386 18.8441 11.6448 23.6939L11.6504 28.1278L11.7416 28.2339L11.8328 28.34L12.9063 28.36C14.5764 28.3911 14.5642 28.3794 14.5827 29.9688C14.5934 30.8939 14.6003 30.9782 14.6706 31.0485C14.7768 31.1547 19.2875 31.1659 20.0194 31.0618C20.3783 31.0108 20.9016 30.9991 22.8725 30.9984L25.286 30.9975L25.275 29.8687C25.2632 28.658 25.291 28.4293 25.4792 28.19C25.5735 28.0701 25.5798 27.8874 25.5053 27.4331C25.4747 27.2463 25.4664 27.0349 25.4841 26.8931C25.5341 26.4918 25.5185 25.9943 25.4436 25.608C25.3741 25.2494 25.3741 25.222 25.4439 24.848C25.5383 24.3422 25.5371 24.1967 25.4342 23.7293C25.3372 23.2882 25.3715 22.2951 25.5023 21.76C25.574 21.4666 25.584 20.5281 25.5162 20.4603C25.4908 20.4349 25.0738 20.4221 24.3879 20.4258L23.2999 20.4315V21.6458C23.2999 23.4111 23.4311 23.2848 21.5935 23.2883C19.7247 23.2919 19.7429 23.3097 19.7026 21.4362C19.6734 20.0811 19.7713 19.7797 20.307 19.5751L20.4879 19.5061L20.4664 18.383C20.4546 17.7654 20.435 17.116 20.4229 16.94C20.3863 16.4105 20.4663 16.2543 20.6278 16.54C20.7114 16.6878 20.7132 16.7038 20.6514 16.75C20.6141 16.7779 20.6056 16.8 20.6323 16.8C20.6585 16.8 20.6799 16.836 20.6799 16.88C20.6799 16.924 20.6574 16.9603 20.6299 16.9606C20.5965 16.961 20.5998 16.9743 20.6399 17.0006C20.6932 17.0356 20.6932 17.0444 20.6399 17.0794C20.5889 17.1129 20.5908 17.1189 20.6523 17.1194C20.6921 17.1197 20.7135 17.138 20.6999 17.16C20.6863 17.182 20.7167 17.2021 20.7675 17.2046C20.8353 17.208 20.8413 17.2142 20.7899 17.2276C20.6915 17.2533 20.7029 17.3451 20.8202 17.4717C20.9201 17.5796 20.9228 17.58 21.5662 17.5928C22.4214 17.6098 22.3999 17.6168 22.3999 17.3242C22.3999 16.8046 22.5228 16.68 23.0353 16.68H23.3199V15.7247V14.7695L22.9831 14.7414C22.7842 14.7248 22.5912 14.6838 22.5117 14.6412C22.3054 14.5306 21.5037 14.498 20.9217 14.5764C20.399 14.6469 20.4422 14.668 20.3128 14.28C20.2375 14.0542 20.2243 13.912 20.2128 13.2C20.2055 12.749 20.1861 12.2725 20.1697 12.1411L20.1399 11.9021L19.8703 11.7901C19.5871 11.6724 18.7536 11.6198 17.9204 11.6669ZM24.3522 27.163C24.3444 27.1867 24.3208 27.206 24.2999 27.206C24.279 27.206 24.2554 27.1867 24.2476 27.163C24.2397 27.1394 24.2632 27.12 24.2999 27.12C24.3366 27.12 24.3601 27.1394 24.3522 27.163ZM9.56632 34.5178C8.81192 34.547 8.82262 34.5367 8.78822 35.2647C8.74542 36.1699 8.79102 36.6772 8.92712 36.8134L9.04112 36.9274L10.1905 36.9023C10.8227 36.8885 13.2749 36.8619 15.6399 36.8432C18.3051 36.8221 20.0235 36.7934 20.1599 36.7675C20.2809 36.7446 20.8209 36.7243 21.3599 36.7225C21.8989 36.7206 22.4098 36.7076 22.4952 36.6935L22.6505 36.6678L22.625 36.2239C22.5612 35.1148 22.5141 34.7679 22.4239 34.7436C22.3777 34.7312 21.9153 34.7208 21.3964 34.7205C20.7514 34.7202 20.3275 34.7006 20.0564 34.6588C19.7267 34.6079 18.9895 34.5947 15.679 34.5803C13.3349 34.5701 11.5505 34.546 11.339 34.5218C10.9716 34.4797 10.5764 34.4788 9.56632 34.5178Z" fill="#F6019D"/>
<path fillRule="evenodd" clipRule="evenodd" d="M16.7745 0.380057C16.7746 0.600057 16.7813 0.684957 16.7894 0.568757C16.7975 0.452457 16.7975 0.272457 16.7892 0.168758C16.781 0.0649575 16.7744 0.160057 16.7745 0.380057ZM18.2781 2.41366C18.2661 2.42656 17.9296 2.43916 17.5303 2.44186C17.0297 2.44516 16.7927 2.46116 16.7671 2.49336C16.6849 2.59686 16.6733 7.46456 16.7546 7.75016C16.8123 7.95266 16.9317 8.04216 17.1818 8.07036C17.4451 8.10006 17.6399 8.30126 17.6399 8.54346C17.6399 8.85506 17.774 8.95366 18.2599 8.99936C18.7357 9.04416 21.5211 9.01436 22.1199 8.95806C22.3509 8.93636 22.6647 8.91196 22.8171 8.90386C23.1591 8.88566 23.1798 8.86096 23.195 8.45376C23.2014 8.28126 23.214 8.08606 23.2229 8.02006C23.2536 7.79286 23.3228 5.94546 23.3026 5.89266C23.2915 5.86366 23.2806 5.09786 23.2786 4.19096C23.2761 3.12716 23.2602 2.52446 23.2337 2.49256C23.2021 2.45456 22.7549 2.44276 21.3062 2.44166C20.2688 2.44086 19.1679 2.42896 18.8599 2.41526C18.5519 2.40156 18.2901 2.40086 18.2781 2.41366ZM24.0199 2.48006C23.9083 2.50006 23.9868 2.50886 24.2799 2.50936C24.6119 2.50986 24.6622 2.50336 24.5199 2.47806C24.3105 2.44076 24.2377 2.44106 24.0199 2.48006ZM20.5903 2.75976C21.2006 2.78156 21.8732 2.80566 22.085 2.81316C22.9087 2.84256 22.8953 2.80546 22.9138 5.12006C22.9404 8.45126 22.8831 8.55786 21.0199 8.64126C20.6239 8.65896 20.1199 8.70326 19.8999 8.73966C18.7525 8.92956 17.9322 8.74266 17.6687 8.23136C17.6379 8.17146 17.5247 8.06346 17.4172 7.99136C17.0282 7.73016 16.8992 7.28936 16.934 6.34006C16.9461 6.01006 16.9736 5.25406 16.9951 4.66006C17.0588 2.90446 17.0979 2.82016 17.8695 2.77206C18.0622 2.76006 18.2274 2.74346 18.2366 2.73516C18.2675 2.70716 19.4732 2.71976 20.5903 2.75976ZM24.1999 2.76006C24.1559 2.78846 24.1825 2.79826 24.2999 2.79666C24.4256 2.79486 24.4428 2.78706 24.3799 2.76006C24.2747 2.71486 24.2699 2.71486 24.1999 2.76006ZM26.0496 6.28006C26.0498 6.71446 26.0595 6.84616 26.0819 6.72006C26.1219 6.49566 26.1207 5.94026 26.0799 5.78006C26.062 5.70986 26.0495 5.91726 26.0496 6.28006ZM25.7613 6.01766C25.76 6.12976 25.7571 6.13166 25.7012 6.05766C25.6447 5.98306 25.6424 5.98296 25.6412 6.05496C25.6402 6.11396 25.6282 6.12016 25.5848 6.08416C25.5134 6.02486 25.4744 6.15346 25.5162 6.31006C25.544 6.41376 25.5475 6.41516 25.5914 6.33946C25.6338 6.26636 25.6378 6.26966 25.6419 6.38006L25.6464 6.50006L25.7013 6.38006L25.7563 6.26006L25.7613 6.40006L25.7664 6.54006L25.8213 6.42006C25.8921 6.26556 25.8916 6.12546 25.8199 6.00006L25.7627 5.90006L25.7613 6.01766ZM25.9713 6.22006C25.9716 6.33006 25.9794 6.37036 25.9886 6.30956C25.9978 6.24866 25.9976 6.15866 25.9881 6.10956C25.9786 6.06036 25.971 6.11006 25.9713 6.22006ZM25.2444 6.14736C25.2099 6.18526 25.2039 6.21826 25.2284 6.23426C25.2501 6.24846 25.2766 6.28706 25.2872 6.31996C25.3018 6.36546 25.3187 6.35706 25.3571 6.28526C25.425 6.15836 25.3347 6.04776 25.2444 6.14736ZM16.7476 10.6001C16.7161 10.8171 16.6931 11.7397 16.6844 13.1344L16.6799 13.8486L16.1099 13.8365C15.7964 13.8298 15.1583 13.8292 14.6918 13.8351L13.8438 13.8459L13.8409 15.2506C13.8393 16.0232 13.8339 16.6595 13.8288 16.6645C13.8 16.6933 11.132 16.7372 11.0935 16.7096C11.0679 16.6912 11.0391 16.6906 11.0293 16.7082C10.9762 16.8041 10.9668 28.9999 11.0199 29.0008C11.0419 29.0013 11.6809 29.0058 12.4399 29.0108L13.8199 29.0201L13.8421 30.3201C13.8657 31.6957 13.8714 31.7395 14.0354 31.8132C14.1715 31.8743 24.8995 31.9031 25.4948 31.844C26.1413 31.7798 26.1238 31.8232 26.1563 30.2001L26.1799 29.0201L27.5891 29.0211C28.9403 29.0221 29.1674 29.0035 29.0082 28.9052C28.9546 28.8721 29.0146 21.5388 29.0689 21.4733C29.1077 21.4266 29.1077 21.4039 29.0689 21.3651C28.996 21.2922 28.9987 18.7179 29.0718 18.6298C29.1016 18.594 29.1079 18.5574 29.0867 18.5443C29.0452 18.5187 29.0043 17.9483 28.9915 17.2181C28.9835 16.764 28.9783 16.7359 28.9015 16.7319C28.8012 16.7267 25.5391 16.7279 25.3999 16.7332C25.321 16.7362 25.2995 16.7584 25.298 16.8385C25.2969 16.8944 25.2924 17.53 25.288 18.2511L25.2799 19.562L23.8752 19.5591C23.1026 19.5575 22.4613 19.5653 22.4501 19.5766C22.4389 19.5878 22.4275 20.2322 22.4248 21.0085L22.4199 22.4201H21.4399H20.4599L20.4631 20.9801L20.4664 19.5401L20.344 19.9001L20.2215 20.2601L20.2083 21.3313L20.1951 22.4025L20.3209 22.5613L20.4466 22.7201H21.4238H22.4011L22.5505 22.5833L22.6999 22.4464L22.7199 21.3133C22.7474 19.7545 22.6344 19.8684 24.1662 19.8552C25.7127 19.8418 25.6247 19.9199 25.6484 18.5401C25.6743 17.0327 25.6385 17.0638 27.3199 17.0867C28.7058 17.1056 28.6156 17.0071 28.6314 18.5201C28.6445 19.7792 28.6433 24.4404 28.6294 26.7201C28.6166 28.7931 28.7461 28.6148 27.2403 28.6326C26.0808 28.6463 26.1348 28.6351 25.9456 28.9001C25.8636 29.0149 25.8599 29.0624 25.8599 30.0001C25.8599 31.1208 25.837 31.215 25.5121 31.4301L25.3458 31.5401L22.7829 31.5686C21.3732 31.5842 19.0021 31.6079 17.5137 31.6213L14.8075 31.6456L14.6028 31.5575C14.1338 31.3558 14.0799 31.1929 14.0799 29.9788V29.0072L13.9568 28.9037L13.8338 28.8001L12.8268 28.7968C11.5176 28.7925 11.4146 28.7756 11.288 28.5445C11.1868 28.3596 11.1622 18.9322 11.2607 18.0601C11.3757 17.0419 11.4613 16.9891 13.0877 16.9338L13.8355 16.9084L13.9555 16.7843L14.0755 16.6601L14.0877 15.5182C14.1043 13.9619 13.9835 14.0757 15.6328 14.0617L16.6857 14.0527L16.7983 13.9364L16.9109 13.8201L16.9329 12.8601C16.965 11.4628 17.0133 11.3147 17.4599 11.2432C17.8472 11.1811 19.7214 11.2141 20.0999 11.2896C20.3178 11.3331 20.7336 11.3595 21.4032 11.3725C22.9256 11.4021 22.911 11.3845 22.9177 13.1851C22.9199 13.7789 22.9224 13.7962 23.0563 14.1251C23.3451 14.8345 23.326 14.8692 23.3014 13.6801C23.2894 13.0971 23.2775 12.2601 23.2749 11.8201C23.2701 10.9917 23.2641 10.9347 23.1863 10.9882C23.1608 11.0057 21.9588 11.0111 20.5153 11.0001L17.8906 10.9801L17.7591 10.8515C17.6868 10.7808 17.6124 10.7324 17.5938 10.7439C17.5751 10.7554 17.5599 10.743 17.5599 10.7163C17.5599 10.6861 17.5295 10.6952 17.4799 10.7401C17.4026 10.8101 17.3999 10.81 17.3993 10.7363C17.3988 10.6725 17.3924 10.6698 17.3599 10.7201C17.3273 10.7706 17.321 10.7682 17.3205 10.7052C17.32 10.6432 17.3096 10.6389 17.2599 10.6801C17.2103 10.7212 17.1999 10.7173 17.1999 10.6574C17.1999 10.5896 17.196 10.5899 17.1412 10.6625C17.0844 10.7375 17.0823 10.7368 17.0779 10.6401C17.074 10.5519 17.0645 10.5589 16.9977 10.7001L16.922 10.8601L16.9168 10.7201L16.9115 10.5801L16.8599 10.7401L16.8083 10.9001L16.7939 10.6401L16.7795 10.3801L16.7476 10.6001ZM14.8399 11.0395C14.0458 11.0861 13.7935 11.3759 13.9165 12.1001L13.9505 12.3001L13.9554 12.0401C13.9705 11.2418 14.2168 11.084 15.4625 11.0748C15.9665 11.071 16.1204 11.0601 15.9799 11.0383C15.7468 11.002 15.4762 11.0023 14.8399 11.0395ZM15.2399 11.1601C14.9195 11.1838 14.9298 11.1854 15.4199 11.1887C15.7318 11.1907 15.8999 11.1793 15.8399 11.1601C15.729 11.1246 15.7211 11.1246 15.2399 11.1601ZM15.1999 11.3001L14.8199 11.3489L15.2199 11.3599L15.6199 11.3708L15.3199 11.4153L15.0199 11.4598L15.3399 11.4826C15.5159 11.4952 15.6059 11.5095 15.5399 11.5145C15.4739 11.5195 15.3119 11.5465 15.1799 11.5745L14.9399 11.6254L15.3501 11.6546C15.8082 11.6872 15.9503 11.6539 15.8006 11.5491L15.7116 11.4868L15.8057 11.4704L15.8999 11.454L15.7999 11.4096L15.6999 11.3652L15.8199 11.3612L15.9399 11.3573L15.8399 11.3001C15.7251 11.2345 15.7107 11.2345 15.1999 11.3001ZM15.4799 11.7801L15.2999 11.8322L15.4799 11.8402C15.6251 11.8465 15.6405 11.8535 15.5599 11.8763L15.4599 11.9046L15.5599 11.9318C15.718 11.9748 15.7707 11.9658 15.7454 11.9001C15.7328 11.8671 15.742 11.8401 15.7661 11.8401C15.7948 11.8401 15.7927 11.8197 15.7599 11.7801C15.7029 11.7115 15.7169 11.7115 15.4799 11.7801ZM27.0499 13.9477C27.0884 13.9577 27.1514 13.9577 27.1899 13.9477C27.2284 13.9376 27.1969 13.9294 27.1199 13.9294C27.0429 13.9294 27.0114 13.9376 27.0499 13.9477ZM11.0519 15.6401C11.0519 15.7611 11.0594 15.8106 11.0686 15.7501C11.0777 15.6896 11.0777 15.5906 11.0686 15.5301C11.0594 15.4696 11.0519 15.5191 11.0519 15.6401ZM23.2221 16.8461C23.1047 17.0464 22.8436 17.3152 22.6204 17.4656L22.421 17.6001L22.5804 17.5991C23.1296 17.5958 23.3646 17.3514 23.3125 16.8379L23.2999 16.7135L23.2221 16.8461ZM29.9128 28.0101C29.8854 28.0596 29.8667 28.1136 29.8714 28.1301C29.8761 28.1466 29.8591 28.1601 29.8337 28.1601C29.8071 28.1601 29.8175 28.1933 29.8582 28.2382C29.9265 28.3137 29.9252 28.3173 29.8175 28.3443L29.7061 28.3722L29.7975 28.4462C29.8793 28.5124 29.881 28.5202 29.8143 28.5214C29.7423 28.5226 29.7423 28.5244 29.8132 28.5782C29.8827 28.6309 29.8817 28.6345 29.7932 28.6498C29.7038 28.6651 29.7049 28.6679 29.8199 28.7162C29.9473 28.7697 30.1853 28.7507 30.2544 28.6816C30.2831 28.6529 30.2663 28.6401 30.2003 28.6401C30.1076 28.6401 30.107 28.6383 30.1823 28.5814C30.2565 28.5252 30.2566 28.5226 30.1855 28.5214C30.1188 28.5202 30.1205 28.5124 30.2023 28.4462L30.2937 28.3722L30.1823 28.3443C30.0746 28.3173 30.0733 28.3137 30.1416 28.2382C30.186 28.1891 30.1943 28.1601 30.1637 28.1601C30.137 28.1601 30.1245 28.145 30.1359 28.1266C30.1607 28.0864 30.0505 27.9201 29.999 27.9201C29.9791 27.9201 29.9403 27.9606 29.9128 28.0101ZM29.8499 28.8482C29.9495 28.8747 30.0503 28.8747 30.1499 28.8482C30.2864 28.812 30.2728 28.8084 29.9999 28.8084C29.727 28.8084 29.7134 28.812 29.8499 28.8482ZM29.7499 28.9687C29.9096 28.9932 30.0902 28.9932 30.2499 28.9687C30.4831 28.9329 30.4663 28.9303 29.9999 28.9303C29.5335 28.9303 29.5167 28.9329 29.7499 28.9687ZM28.9773 31.0358C28.9947 31.0641 29.1728 31.0801 29.4689 31.0801C29.7243 31.0801 29.9257 31.0732 29.9166 31.0648C29.8707 31.0228 28.9517 30.9944 28.9773 31.0358ZM29.0254 31.1801C29.0404 31.2192 29.0243 31.2401 28.9793 31.2401C28.9245 31.2401 28.9198 31.2517 28.9567 31.2962C28.9924 31.3393 28.9912 31.3579 28.9516 31.3762C28.9095 31.3957 28.9096 31.4046 28.952 31.4241C28.9921 31.4426 28.9885 31.4596 28.9366 31.4975C28.8759 31.542 28.8753 31.5525 28.931 31.6035C28.9865 31.6543 28.9843 31.6693 28.9094 31.7501C28.8603 31.803 28.8463 31.8401 28.8753 31.8401C28.9024 31.8401 28.915 31.8557 28.9032 31.8748C28.8914 31.8938 28.9178 31.942 28.9617 31.9817C29.0494 32.0611 29.3548 31.969 29.2997 31.8797C29.2862 31.8579 29.3077 31.84 29.3475 31.8398C29.4032 31.8396 29.3942 31.8226 29.3081 31.7659L29.1964 31.6922L29.3681 31.6533L29.5399 31.6144L29.3999 31.5505L29.2599 31.4866L29.3999 31.4803L29.5399 31.474L29.3999 31.4201L29.2599 31.3662L29.4399 31.3585L29.6199 31.3509L29.3399 31.2788L29.0599 31.2066L29.3199 31.1984L29.5799 31.1901L29.3999 31.1581C29.1037 31.1054 28.9991 31.1115 29.0254 31.1801ZM31.7652 33.6209L31.7599 33.8216L30.5699 33.8336C29.9154 33.8402 29.3079 33.8294 29.2199 33.8097C29.1319 33.7899 28.9182 33.7874 28.745 33.8042C28.3096 33.8462 24.5621 33.8588 15.7399 33.848C11.6039 33.843 8.19749 33.8391 8.17019 33.8395C8.08959 33.8405 8.11829 37.1773 8.20029 37.3397C8.33169 37.6003 7.35079 37.5809 19.9605 37.5722C32.6386 37.5634 31.696 37.585 31.7954 37.3C31.8596 37.1161 31.868 33.9809 31.8053 33.6201L31.7706 33.4201L31.7652 33.6209ZM33.1199 33.9201C32.7603 33.9435 32.7732 33.9453 33.3599 33.9542C34.3272 33.9689 34.4906 34.0675 34.6195 34.7146C34.668 34.9582 34.6727 34.9662 34.6761 34.8121C34.6882 34.273 34.5037 34.0003 34.0764 33.9259C33.8052 33.8787 33.7615 33.8784 33.1199 33.9201ZM17.7199 34.0985C19.0509 34.1086 20.8239 34.1369 21.6599 34.1614C23.0026 34.2007 27.3599 34.2259 28.8399 34.2029C29.948 34.1856 31.0951 34.2223 31.2093 34.2785C31.5589 34.4507 31.664 36.4725 31.3451 36.8906C31.0831 37.2342 31.4421 37.206 27.1901 37.2165C25.1165 37.2216 22.5199 37.2457 21.4199 37.2701C20.3199 37.2945 17.05 37.3202 14.1534 37.3273L8.88689 37.3401L8.71649 37.2201C8.36489 36.9726 8.27659 36.439 8.35559 35.0401C8.39319 34.3742 8.42969 34.2388 8.59429 34.1554C8.78549 34.0584 10.8095 34.0458 17.7199 34.0985Z" fill="#0C0C0C"/>
<path fillRule="evenodd" clipRule="evenodd" d="M18.3556 2.85776C18.3459 2.86746 18.1854 2.87866 17.999 2.88256C17.2271 2.89886 17.1214 3.12026 17.1203 4.72306C17.1202 5.02176 17.0915 5.46276 17.0567 5.70306C16.9364 6.53436 17.0232 7.36866 17.2699 7.75136C17.4262 7.99366 17.648 8.18046 17.5827 8.01476C17.3439 7.40866 17.2996 6.18616 17.4933 5.54946C17.5959 5.21236 17.6 5.16276 17.6 4.26146V3.32406L18.57 3.31206C19.1035 3.30546 19.5905 3.30676 19.6523 3.31496L19.7646 3.32986L19.7572 3.87496C19.7479 4.55476 19.8126 5.08056 19.9597 5.52006C20.1705 6.15016 20.2793 7.08205 20.2221 7.76865L20.1932 8.11575L19.8866 8.21725C19.3707 8.38805 18.7071 8.39976 18.12 8.24836C17.5903 8.11176 17.6037 8.11086 17.7426 8.27586C18.1113 8.71406 19.2135 8.84085 20.24 8.56315C20.4658 8.50205 20.6651 8.48165 21.0457 8.48095C22.7487 8.47785 22.7726 8.43335 22.7736 5.25596C22.7744 2.77766 22.8825 2.97066 21.475 2.93726C20.9827 2.92556 20.3699 2.89896 20.1131 2.87806C19.6408 2.83966 18.3882 2.82516 18.3556 2.85776ZM17.94 11.3208C17.0854 11.3622 17.0005 11.5461 17.0001 13.3548L17 13.8495L16.8447 14.0048L16.6894 14.1601L15.6547 14.161C14.0914 14.1623 14.16 14.0933 14.16 15.6656V16.6895L14.0047 16.8448L13.8494 17.0001H13.3482C12.758 17.0001 11.969 17.098 11.7328 17.2005C11.3077 17.3851 11.3085 17.3727 11.3088 23.3201C11.309 28.8521 11.2903 28.4976 11.5886 28.6304C11.7148 28.6865 11.9134 28.7002 12.78 28.7122C14.2709 28.733 14.2 28.6676 14.2 30.0203C14.2 31.1578 14.2286 31.2529 14.6316 31.4571C14.7734 31.529 14.4268 31.5289 22.725 31.4583L25.31 31.4363L25.4761 31.2942C25.7718 31.041 25.7757 31.0222 25.7457 29.9891C25.7158 28.9608 25.7166 28.9571 26.0127 28.6501L26.1767 28.4801H27.1697C28.2656 28.4801 28.2976 28.4736 28.4299 28.2242C28.5317 28.0322 28.5276 17.6187 28.4256 17.4631C28.2697 17.2251 28.2354 17.2188 27.1617 17.2335C25.7436 17.2528 25.7938 17.2024 25.7931 18.6087C25.7925 19.9706 25.7996 19.9643 24.258 19.9639C22.7778 19.9636 22.84 19.8998 22.84 21.4187V22.4453L22.6373 22.6427L22.4347 22.8401H21.4452H20.4557L20.3339 22.7101C20.0722 22.4308 20.08 22.47 20.08 21.432C20.08 20.4003 20.1218 20.1588 20.3818 19.6879L20.4768 19.5157L20.3884 19.543C19.7843 19.7292 19.6726 20.0377 19.7027 21.4363C19.743 23.3098 19.7248 23.292 21.5936 23.2884C23.4312 23.2849 23.3 23.4112 23.3 21.6459V20.4316L24.388 20.4259C25.0739 20.4222 25.4909 20.435 25.5163 20.4604C25.5841 20.5282 25.5741 21.4667 25.5024 21.7601C25.3716 22.2952 25.3373 23.2883 25.4343 23.7294C25.5372 24.1968 25.5384 24.3423 25.444 24.8481C25.3742 25.2221 25.3742 25.2495 25.4437 25.6081C25.5186 25.9944 25.5342 26.4919 25.4842 26.8932C25.4665 27.035 25.4748 27.2464 25.5054 27.4332C25.5799 27.8875 25.5736 28.0702 25.4793 28.1901C25.2911 28.4294 25.2633 28.6581 25.2751 29.8688L25.2861 30.9976L22.8726 30.9985C20.9017 30.9992 20.3784 31.0109 20.0195 31.0619C19.2876 31.166 14.7769 31.1548 14.6707 31.0486C14.6004 30.9783 14.5935 30.894 14.5828 29.9689C14.5643 28.3795 14.5765 28.3912 12.9064 28.3601L11.8329 28.3401L11.7417 28.234L11.6505 28.1279L11.6449 23.694C11.6387 18.8442 11.6687 17.6843 11.8041 17.5373C11.9045 17.4283 12.4788 17.3599 13.3 17.359C14.4216 17.3578 14.4758 17.2853 14.5097 15.742C14.5394 14.3924 14.3975 14.5335 15.7437 14.5139C17.3376 14.4906 17.3168 14.5096 17.3668 13.0401C17.4178 11.539 17.3045 11.6644 18.6111 11.6636L19.58 11.6631L19.86 11.7827L20.14 11.9022L20.1698 12.1412C20.1862 12.2726 20.2056 12.7491 20.2129 13.2001C20.2244 13.9121 20.2376 14.0543 20.3129 14.2801C20.4423 14.6681 20.3991 14.647 20.9218 14.5765C21.5044 14.498 22.2996 14.5306 22.5173 14.642C22.6001 14.6844 22.8017 14.7269 22.9977 14.7434L23.3354 14.7718L23.1926 14.5759C22.8381 14.0899 22.8143 13.9995 22.7832 13.0201C22.7336 11.4601 22.7889 11.5106 21.12 11.5013C20.516 11.4979 20.3138 11.4815 20.02 11.4122C19.6179 11.3175 18.7737 11.2803 17.94 11.3208ZM20.4497 16.4276C20.4208 16.4982 20.4187 17.0988 20.4463 17.4201L20.46 17.5801L20.74 17.5887C20.9267 17.5944 20.9933 17.5856 20.94 17.5624C20.8398 17.5189 20.72 17.3774 20.72 17.3026C20.72 17.2714 20.7515 17.2377 20.79 17.2277C20.8414 17.2143 20.8354 17.2081 20.7676 17.2047C20.7168 17.2022 20.6864 17.1821 20.7 17.1601C20.7136 17.1381 20.6922 17.1198 20.6524 17.1195C20.5909 17.119 20.589 17.113 20.64 17.0795C20.6933 17.0445 20.6933 17.0357 20.64 17.0007C20.5999 16.9744 20.5966 16.9611 20.63 16.9607C20.6575 16.9604 20.68 16.9241 20.68 16.8801C20.68 16.8361 20.6575 16.7996 20.63 16.7989C20.6022 16.7982 20.611 16.7796 20.6498 16.757C20.7158 16.7186 20.7153 16.7076 20.6404 16.5609C20.5433 16.3706 20.4887 16.3324 20.4497 16.4276ZM22.5939 16.7667C22.4306 16.8613 22.4 16.949 22.4 17.3218C22.4 17.4697 22.3819 17.5607 22.35 17.5736C22.316 17.5873 22.3192 17.5945 22.36 17.5961C22.393 17.5974 22.627 17.3919 22.88 17.1395L23.34 16.6806L23.04 16.6813C22.8079 16.6818 22.7069 16.7011 22.5939 16.7667ZM24.2477 27.1631C24.2555 27.1868 24.2791 27.2061 24.3 27.2061C24.3209 27.2061 24.3445 27.1868 24.3523 27.1631C24.3602 27.1395 24.3367 27.1201 24.3 27.1201C24.2633 27.1201 24.2398 27.1395 24.2477 27.1631ZM8.77266 34.2385C8.47056 34.3745 8.45996 34.4226 8.45996 35.6629V36.7458L8.56906 36.9107C8.62906 37.0014 8.75506 37.1202 8.84906 37.1744L9.01996 37.2734L14.66 37.2352C20.7451 37.1941 23.0673 37.1577 23.1568 37.1022C23.1885 37.0826 24.9253 37.0654 27.0768 37.0635L30.94 37.0601L31.0647 36.9711C31.3368 36.777 31.34 36.7624 31.34 35.7001C31.34 34.6359 31.3112 34.5079 31.0496 34.4074C30.9071 34.3526 28.9555 34.333 28.04 34.3771C27.5744 34.3995 27.1592 34.3956 26.8 34.3654C26.4083 34.3325 25.8755 34.3312 24.8597 34.3605C23.6762 34.3946 23.3945 34.3916 23.0397 34.3412C22.7604 34.3015 22.2896 34.2813 21.6322 34.2808C21.0889 34.2804 20.4229 34.263 20.1522 34.2421C19.0613 34.1579 8.95876 34.1547 8.77266 34.2385ZM11.3391 34.5219C11.5506 34.5461 13.335 34.5702 15.6791 34.5804C18.9896 34.5948 19.7268 34.608 20.0565 34.6589C20.3276 34.7007 20.7515 34.7203 21.3965 34.7206C21.9154 34.7209 22.3778 34.7313 22.424 34.7437C22.5142 34.768 22.5613 35.1149 22.6251 36.224L22.6506 36.6679L22.4953 36.6936C22.4099 36.7077 21.899 36.7207 21.36 36.7226C20.821 36.7244 20.281 36.7447 20.16 36.7676C20.0236 36.7935 18.3052 36.8222 15.64 36.8433C13.275 36.862 10.8228 36.8886 10.1906 36.9024L9.04116 36.9275L8.92716 36.8135C8.72636 36.6126 8.70666 34.8732 8.90266 34.645C9.02136 34.5069 10.5386 34.4302 11.3391 34.5219Z" fill="#848484"/>
<path fillRule="evenodd" clipRule="evenodd" d="M16.68 1.2V2.4H15.265H13.85L13.825 2.525C13.7827 2.7366 13.796 8.8242 13.839 8.9374L13.878 9.04H15.279H16.68V10V10.96H15.279H13.878L13.839 11.0626C13.8165 11.1217 13.8 11.7234 13.8 12.4826V13.8H12.4826C11.7234 13.8 11.1217 13.8165 11.0626 13.839L10.96 13.878V15.2785V16.679L9.54999 16.6895L8.13999 16.7L8.11469 16.96C8.08159 17.2995 8.08159 28.4205 8.11469 28.76L8.13999 29.02L9.54999 29.0305L10.96 29.041V30.0005V30.96H9.56239C8.48769 30.96 8.15749 30.9716 8.13329 31.01C8.11599 31.0375 8.09479 31.6765 8.08629 32.43L8.07089 33.8H6.75799C6.00179 33.8 5.40169 33.8165 5.34259 33.839L5.23999 33.878V36.939V40H20H34.76V36.939V33.878L34.6574 33.839C34.5983 33.8165 33.9982 33.8 33.242 33.8H31.9291L31.9137 32.43C31.9052 31.6765 31.884 31.0375 31.8667 31.01C31.8425 30.9716 31.5123 30.96 30.4376 30.96H29.04V30.0005V29.041L30.45 29.0305L31.86 29.02L31.8853 28.76C31.9184 28.4205 31.9184 17.2995 31.8853 16.96L31.86 16.7L30.45 16.6895L29.04 16.679V15.2785V13.878L28.9374 13.839C28.8783 13.8165 28.2766 13.8 27.5174 13.8H26.2V12.4826C26.2 11.7234 26.1835 11.1217 26.161 11.0626L26.122 10.96H24.721H23.32V10V9.04H24.721H26.122L26.161 8.9374C26.1851 8.8739 26.2 7.647 26.2 5.72C26.2 3.793 26.1851 2.5661 26.161 2.5026L26.122 2.4H24.721H23.32V1.2V0H20.0614H16.8029L16.7898 0.39L16.7767 0.78L16.7684 0.39C16.7635 0.1622 16.7434 0 16.72 0C16.6942 0 16.68 0.4267 16.68 1.2ZM21.3063 2.4416C22.755 2.4427 23.2022 2.4545 23.2338 2.4925C23.2603 2.5244 23.2762 3.1271 23.2787 4.1909C23.2807 5.0978 23.2916 5.8636 23.3027 5.8926C23.3229 5.9454 23.2537 7.7928 23.223 8.02C23.2141 8.086 23.2015 8.2812 23.1951 8.4537C23.1799 8.8609 23.1592 8.8856 22.8172 8.9038C22.6648 8.9119 22.351 8.9363 22.12 8.958C21.5212 9.0143 18.7358 9.0441 18.26 8.9993C17.7741 8.9536 17.64 8.855 17.64 8.5434C17.64 8.3012 17.4452 8.1 17.1819 8.0703C16.9318 8.0421 16.8124 7.9526 16.7547 7.7501C16.6734 7.4645 16.685 2.5968 16.7672 2.4933C16.7928 2.4611 17.0298 2.4451 17.5304 2.4418C17.9297 2.4391 18.2662 2.4265 18.2782 2.4136C18.2902 2.4008 18.552 2.4015 18.86 2.4152C19.168 2.4289 20.2689 2.4408 21.3063 2.4416ZM24.52 2.478C24.6623 2.5033 24.612 2.5098 24.28 2.5093C23.9869 2.5088 23.9084 2.5 24.02 2.48C24.2378 2.441 24.3106 2.4407 24.52 2.478ZM24.38 2.76C24.4429 2.787 24.4257 2.7948 24.3 2.7966C24.1826 2.7982 24.156 2.7884 24.2 2.76C24.27 2.7148 24.2748 2.7148 24.38 2.76ZM26.1123 6.22C26.1133 6.396 26.0997 6.621 26.082 6.72C26.0596 6.8461 26.0499 6.7144 26.0497 6.28C26.0496 5.9172 26.0621 5.7098 26.08 5.78C26.0968 5.846 26.1113 6.044 26.1123 6.22ZM25.8768 6.2C25.8766 6.255 25.8517 6.354 25.8214 6.42L25.7665 6.54L25.7614 6.4L25.7564 6.26L25.7014 6.38L25.6465 6.5L25.642 6.38C25.6379 6.2696 25.6339 6.2663 25.5915 6.3394C25.5476 6.4151 25.5441 6.4137 25.5163 6.31C25.4745 6.1534 25.5135 6.0248 25.5849 6.0841C25.6283 6.1201 25.6403 6.1139 25.6413 6.0549C25.6425 5.9829 25.6448 5.983 25.7013 6.0576C25.7572 6.1316 25.7601 6.1297 25.7614 6.0176L25.7628 5.9L25.82 6C25.8514 6.055 25.877 6.145 25.8768 6.2ZM25.9887 6.3095C25.9795 6.3703 25.9717 6.33 25.9714 6.22C25.9711 6.11 25.9787 6.0603 25.9882 6.1095C25.9977 6.1586 25.9979 6.2486 25.9887 6.3095ZM25.3572 6.2852C25.3188 6.357 25.3019 6.3654 25.2873 6.3199C25.2767 6.287 25.2502 6.2484 25.2285 6.2342C25.204 6.2182 25.21 6.1852 25.2445 6.1473C25.3348 6.0477 25.4251 6.1583 25.3572 6.2852ZM16.86 10.74L16.9116 10.58L16.9169 10.72L16.9221 10.86L16.9978 10.7C17.0646 10.5588 17.0741 10.5518 17.078 10.64C17.0824 10.7367 17.0845 10.7374 17.1413 10.6624C17.1961 10.5898 17.2 10.5895 17.2 10.6573C17.2 10.7172 17.2104 10.7211 17.26 10.68C17.3097 10.6388 17.3201 10.6431 17.3206 10.7051C17.3211 10.7681 17.3274 10.7705 17.36 10.72C17.3925 10.6697 17.3989 10.6724 17.3994 10.7362C17.4 10.8099 17.4027 10.81 17.48 10.74C17.5296 10.6951 17.56 10.686 17.56 10.7162C17.56 10.7429 17.5752 10.7553 17.5939 10.7438C17.6125 10.7323 17.6869 10.7807 17.7592 10.8514L17.8907 10.98L20.5154 11C21.9589 11.011 23.1609 11.0056 23.1864 10.9881C23.2639 10.9347 23.2701 10.9914 23.2749 11.8C23.2775 12.229 23.2913 13.0705 23.3056 13.67L23.3315 14.76H24.2858H25.24V15.72V16.68H24.2858H23.3316L23.3082 16.9596C23.2671 17.4499 23.1699 17.5471 22.6796 17.5882L22.4 17.6116V18.5658V19.52H21.4443H20.4886L20.4616 20.21C20.4468 20.5895 20.4403 21.242 20.4473 21.66L20.46 22.42H21.44H22.42L22.4249 21.0084C22.4276 20.2321 22.439 19.5877 22.4502 19.5765C22.4614 19.5652 23.1027 19.5574 23.8753 19.559L25.28 19.5619L25.2881 18.251C25.2925 17.5299 25.297 16.8943 25.2981 16.8384C25.2996 16.7583 25.3211 16.7361 25.4 16.7331C25.5392 16.7278 28.8013 16.7266 28.9016 16.7318C28.9784 16.7358 28.9836 16.7639 28.9916 17.218C29.0044 17.9482 29.0453 18.5186 29.0868 18.5442C29.108 18.5573 29.1017 18.5939 29.0719 18.6297C28.9988 18.7178 28.9961 21.2921 29.069 21.365C29.1078 21.4038 29.1078 21.4265 29.069 21.4732C29.0147 21.5387 28.9547 28.872 29.0083 28.9051C29.1675 29.0034 28.9404 29.022 27.5892 29.021L26.18 29.02L26.1564 30.2C26.1239 31.8231 26.1414 31.7797 25.4949 31.8439C24.8996 31.903 14.1716 31.8742 14.0355 31.8131C13.8715 31.7394 13.8658 31.6956 13.8422 30.32L13.82 29.02L12.44 29.0107C11.681 29.0057 11.042 29.0012 11.02 29.0007C10.9669 28.9998 10.9763 16.804 11.0294 16.7081C11.0392 16.6905 11.068 16.6911 11.0936 16.7095C11.1321 16.7371 13.8001 16.6932 13.8289 16.6644C13.834 16.6594 13.8394 16.0231 13.841 15.2505L13.8439 13.8458L14.6919 13.835C15.1584 13.8291 15.7965 13.8297 16.11 13.8364L16.68 13.8485L16.6845 13.1343C16.6932 11.7396 16.7162 10.817 16.7477 10.6L16.7796 10.38L16.794 10.64L16.8084 10.9L16.86 10.74ZM15.98 11.0382C16.1205 11.06 15.9666 11.0709 15.4626 11.0747C14.2169 11.0839 13.9706 11.2417 13.9555 12.04L13.9506 12.3L13.9166 12.1C13.8445 11.6756 13.9803 11.2565 14.2282 11.1386C14.4441 11.0359 15.5562 10.9721 15.98 11.0382ZM15.84 11.16C15.9 11.1792 15.7319 11.1906 15.42 11.1886C14.9299 11.1853 14.9196 11.1837 15.24 11.16C15.7212 11.1245 15.7291 11.1245 15.84 11.16ZM15.84 11.3L15.94 11.3572L15.82 11.3611L15.7 11.3651L15.8 11.4095L15.9 11.4539L15.8058 11.4703L15.7117 11.4867L15.8007 11.549C15.9504 11.6538 15.8083 11.6871 15.3502 11.6545L14.94 11.6253L15.18 11.5744C15.312 11.5464 15.474 11.5194 15.54 11.5144C15.606 11.5094 15.516 11.4951 15.34 11.4825L15.02 11.4597L15.32 11.4152L15.62 11.3707L15.22 11.3598L14.82 11.3488L15.2 11.3C15.7108 11.2344 15.7252 11.2344 15.84 11.3ZM15.76 11.78C15.7928 11.8196 15.7949 11.84 15.7662 11.84C15.7421 11.84 15.7329 11.867 15.7455 11.9C15.7708 11.9657 15.7181 11.9747 15.56 11.9317L15.46 11.9045L15.56 11.8762C15.6406 11.8534 15.6252 11.8464 15.48 11.8401L15.3 11.8321L15.48 11.78C15.717 11.7114 15.703 11.7114 15.76 11.78ZM27.19 13.9476C27.1515 13.9576 27.0885 13.9576 27.05 13.9476C27.0115 13.9375 27.043 13.9293 27.12 13.9293C27.197 13.9293 27.2285 13.9375 27.19 13.9476ZM11.0687 15.75C11.0595 15.8105 11.052 15.761 11.052 15.64C11.052 15.519 11.0595 15.4695 11.0687 15.53C11.0778 15.5905 11.0778 15.6895 11.0687 15.75ZM30.0961 28.0065C30.1294 28.0541 30.1474 28.1081 30.136 28.1265C30.1246 28.1449 30.1371 28.16 30.1638 28.16C30.1944 28.16 30.1861 28.189 30.1417 28.2381C30.0734 28.3136 30.0747 28.3172 30.1824 28.3442L30.2938 28.3721L30.2024 28.4461C30.1206 28.5123 30.1189 28.5201 30.1856 28.5213C30.2567 28.5225 30.2566 28.5251 30.1824 28.5813C30.1071 28.6382 30.1077 28.64 30.2004 28.64C30.2664 28.64 30.2832 28.6528 30.2545 28.6815C30.1854 28.7506 29.9474 28.7696 29.82 28.7161C29.705 28.6678 29.7039 28.665 29.7933 28.6497C29.8818 28.6344 29.8828 28.6308 29.8133 28.5781C29.7424 28.5243 29.7424 28.5225 29.8144 28.5213C29.8811 28.5201 29.8794 28.5123 29.7976 28.4461L29.7062 28.3721L29.8176 28.3442C29.9253 28.3172 29.9266 28.3136 29.8583 28.2381C29.8176 28.1932 29.8072 28.16 29.8338 28.16C29.8592 28.16 29.8762 28.1465 29.8715 28.13C29.8304 27.985 30.0113 27.8856 30.0961 28.0065ZM30.15 28.8481C30.0504 28.8746 29.9496 28.8746 29.85 28.8481C29.7135 28.8119 29.7271 28.8083 30 28.8083C30.2729 28.8083 30.2865 28.8119 30.15 28.8481ZM30.25 28.9686C30.0903 28.9931 29.9097 28.9931 29.75 28.9686C29.5168 28.9328 29.5336 28.9302 30 28.9302C30.4664 28.9302 30.4832 28.9328 30.25 28.9686ZM29.9167 31.0647C29.9258 31.0731 29.7244 31.08 29.469 31.08C29.1729 31.08 28.9948 31.064 28.9774 31.0357C28.9518 30.9943 29.8708 31.0227 29.9167 31.0647ZM29.4 31.158L29.58 31.19L29.32 31.1983L29.06 31.2065L29.34 31.2787L29.62 31.3508L29.44 31.3584L29.26 31.3661L29.4 31.42L29.54 31.4739L29.4 31.4802L29.26 31.4865L29.4 31.5504L29.54 31.6143L29.3682 31.6532L29.1965 31.6921L29.3082 31.7658C29.3943 31.8225 29.4033 31.8395 29.3476 31.8397C29.3078 31.8399 29.2863 31.8578 29.2998 31.8796C29.3549 31.9689 29.0495 32.061 28.9618 31.9816C28.9179 31.9419 28.8915 31.8937 28.9033 31.8747C28.9151 31.8556 28.9025 31.84 28.8754 31.84C28.8464 31.84 28.8604 31.8029 28.9095 31.75C28.9844 31.6692 28.9866 31.6542 28.9311 31.6034C28.8754 31.5524 28.876 31.5419 28.9367 31.4974C28.9886 31.4595 28.9922 31.4425 28.9521 31.424C28.9097 31.4045 28.9096 31.3956 28.9517 31.3761C28.9913 31.3578 28.9925 31.3392 28.9568 31.2961C28.9199 31.2516 28.9246 31.24 28.9794 31.24C29.0244 31.24 29.0405 31.2191 29.0255 31.18C28.9992 31.1114 29.1038 31.1053 29.4 31.158ZM31.8457 35.48C31.8521 37.3896 31.8476 37.4244 31.5805 37.5119C31.4512 37.5543 29.2599 37.5656 19.9606 37.5721C7.35089 37.5808 8.33179 37.6002 8.20039 37.3396C8.11839 37.1772 8.08969 33.8404 8.17029 33.8394C8.19759 33.839 11.604 33.8429 15.74 33.8479C24.5622 33.8587 28.3097 33.8461 28.7451 33.8041C28.9183 33.7873 29.132 33.7898 29.22 33.8096C29.308 33.8293 29.9155 33.8401 30.57 33.8335L31.76 33.8215L31.7653 33.6208L31.7707 33.42L31.8054 33.62C31.8246 33.73 31.8427 34.567 31.8457 35.48ZM34.0765 33.9258C34.5038 34.0002 34.6883 34.2729 34.6762 34.812C34.6728 34.9661 34.6681 34.9581 34.6196 34.7145C34.4907 34.0674 34.3273 33.9688 33.36 33.9541C32.7733 33.9452 32.7604 33.9434 33.12 33.92C33.7616 33.8783 33.8053 33.8786 34.0765 33.9258Z" fill="#040404"/>
<path fillRule="evenodd" clipRule="evenodd" d="M18.2367 2.73505C18.2275 2.74335 18.0623 2.75995 17.8696 2.77195C17.098 2.82005 17.0589 2.90435 16.9952 4.65995C16.9737 5.25395 16.9462 6.00995 16.9341 6.33995C16.9014 7.23075 17.027 7.70695 17.36 7.95545C17.4813 8.04595 17.4807 7.99615 17.3591 7.87995C17.057 7.59115 16.923 6.62655 17.0567 5.70295C17.0915 5.46265 17.1202 5.02165 17.1203 4.72295C17.1212 3.31335 17.2319 2.95965 17.6912 2.89875C18.0765 2.84765 19.4639 2.83255 20.0651 2.87305C20.4363 2.89795 21.1077 2.92795 21.5571 2.93965C22.8701 2.97385 22.7744 2.79165 22.7736 5.25585C22.7726 8.43325 22.7487 8.47775 21.0457 8.48085C20.6651 8.48155 20.4658 8.50195 20.24 8.56305C19.2157 8.84015 18.1113 8.71385 17.7442 8.27765C17.6869 8.20955 17.64 8.17065 17.64 8.19125C17.64 8.28565 17.9738 8.59635 18.1685 8.68315C18.4546 8.81075 19.3028 8.83835 19.9 8.73955C20.12 8.70315 20.624 8.65885 21.02 8.64115C22.8832 8.55775 22.9405 8.45115 22.9139 5.11995C22.8954 2.80535 22.9088 2.84245 22.0851 2.81305C21.8733 2.80555 21.2007 2.78145 20.5904 2.75965C19.4733 2.71965 18.2676 2.70705 18.2367 2.73505ZM17.44 11.2447C17.0165 11.3127 16.9648 11.4775 16.933 12.8599L16.911 13.8199L16.7984 13.9362L16.6858 14.0525L15.6329 14.0615C13.9836 14.0755 14.1044 13.9617 14.0878 15.518L14.0756 16.6599L13.9556 16.7841L13.8356 16.9082L13.0878 16.9336C11.4614 16.9889 11.3758 17.0417 11.2608 18.0599C11.1623 18.932 11.1869 28.3594 11.2881 28.5443C11.4147 28.7754 11.5177 28.7923 12.8269 28.7966L13.8339 28.7999L13.9569 28.9035L14.08 29.007V29.9786C14.08 31.1927 14.1339 31.3556 14.6029 31.5573L14.8076 31.6454L17.5138 31.6211C19.0022 31.6077 21.3733 31.584 22.783 31.5684L25.3459 31.5399L25.5122 31.4299C25.8371 31.2148 25.86 31.1206 25.86 29.9999C25.86 29.0622 25.8637 29.0147 25.9457 28.8999C26.1349 28.6349 26.0809 28.6461 27.2404 28.6324C28.7462 28.6146 28.6167 28.7929 28.6295 26.7199C28.6434 24.4402 28.6446 19.779 28.6315 18.5199C28.6157 17.0069 28.7059 17.1054 27.32 17.0865C26.2595 17.0721 25.9858 17.1028 25.8504 17.2516C25.6757 17.4435 25.6663 17.5036 25.6485 18.5399C25.6248 19.9197 25.7128 19.8416 24.1663 19.855C22.6345 19.8682 22.7475 19.7543 22.72 21.3131L22.7 22.4462L22.5506 22.5831L22.4012 22.7199H21.4239H20.4467L20.3234 22.5641L20.2 22.4084V21.4086C20.2 20.3612 20.2008 20.3546 20.4195 19.6599C20.4912 19.4322 20.2732 19.9055 20.1843 20.1707C20.0836 20.471 20.08 20.514 20.08 21.4318C20.08 22.4698 20.0722 22.4306 20.3339 22.7099L20.4557 22.8399H21.4452H22.4347L22.6373 22.6425L22.84 22.4451V21.4185C22.84 19.8996 22.7778 19.9634 24.258 19.9637C25.7996 19.9641 25.7925 19.9704 25.7931 18.6085C25.7938 17.2022 25.7436 17.2526 27.1617 17.2333C28.2354 17.2186 28.2697 17.2249 28.4256 17.4629C28.5276 17.6185 28.5317 28.032 28.4299 28.224C28.2976 28.4734 28.2656 28.4799 27.1697 28.4799H26.1767L26.0127 28.6499C25.7166 28.9569 25.7158 28.9606 25.7457 29.9889C25.7757 31.022 25.7718 31.0408 25.4761 31.294L25.31 31.4361L22.725 31.4581C14.4268 31.5287 14.7734 31.5288 14.6316 31.4569C14.2286 31.2527 14.2 31.1576 14.2 30.0201C14.2 28.6674 14.2709 28.7328 12.78 28.712C11.9134 28.7 11.7148 28.6863 11.5886 28.6302C11.2903 28.4974 11.309 28.8519 11.3088 23.3199C11.3085 17.3725 11.3077 17.3849 11.7328 17.2003C11.969 17.0978 12.758 16.9999 13.3482 16.9999H13.8494L14.0047 16.8446L14.16 16.6893L14.1609 15.6546C14.1622 14.0913 14.0932 14.1599 15.6655 14.1599H16.6894L16.8447 14.0046L17 13.8493L17.0001 13.3546C17.0003 12.1189 17.101 11.5344 17.335 11.4107C17.6086 11.266 19.4053 11.2669 20.02 11.4119C20.314 11.4813 20.5156 11.4977 21.12 11.5011C22.7889 11.5104 22.7336 11.4599 22.7832 13.0199L22.8112 13.8999L22.9424 14.1599C23.0145 14.3029 23.1224 14.4829 23.1821 14.5599C23.3039 14.7169 23.3063 14.726 23.0829 14.1865L22.92 13.7931L22.9178 13.1865C22.9111 11.3841 22.9259 11.4019 21.4033 11.3723C20.7337 11.3593 20.3179 11.3329 20.1 11.2894C19.733 11.2162 17.8177 11.184 17.44 11.2447ZM22.8562 17.1604C22.6341 17.3801 22.4603 17.5599 22.47 17.5599C22.5072 17.5599 22.7466 17.3812 22.8937 17.2436C23.0245 17.1213 23.3082 16.7589 23.2719 16.7604C23.2654 16.7607 23.0783 16.9407 22.8562 17.1604ZM9.61999 34.0808C8.35929 34.1094 8.41039 34.0706 8.35569 35.0399C8.27669 36.4388 8.36499 36.9724 8.71659 37.2199L8.88699 37.3399L14.1535 37.3271C17.0501 37.32 20.32 37.2943 21.42 37.2699C22.52 37.2455 25.1166 37.2214 27.1902 37.2163C31.4422 37.2058 31.0832 37.234 31.3452 36.8904C31.6641 36.4723 31.559 34.4505 31.2094 34.2783C31.0952 34.2221 29.9481 34.1854 28.84 34.2027C27.36 34.2257 23.0027 34.2005 21.66 34.1612C19.3982 34.095 11.3602 34.0413 9.61999 34.0808ZM20.1522 34.2419C20.4229 34.2628 21.0889 34.2802 21.6322 34.2806C22.2896 34.2811 22.7604 34.3013 23.0397 34.341C23.3945 34.3914 23.6762 34.3944 24.8597 34.3603C25.8755 34.331 26.4083 34.3323 26.8 34.3652C27.1592 34.3954 27.5744 34.3993 28.04 34.3769C28.9555 34.3328 30.9071 34.3524 31.0496 34.4072C31.3112 34.5077 31.34 34.6357 31.34 35.6999C31.34 36.7622 31.3368 36.7768 31.0647 36.9709L30.94 37.0599L27.0768 37.0633C24.9253 37.0652 23.1885 37.0824 23.1568 37.102C23.0673 37.1575 20.7451 37.1939 14.66 37.235L9.01999 37.2732L8.84909 37.1743C8.75509 37.12 8.62909 37.0012 8.56909 36.9105L8.45999 36.7456V35.6627C8.45999 34.4224 8.47059 34.3743 8.77269 34.2383C8.95879 34.1545 19.0613 34.1577 20.1522 34.2419Z" fill="#F6019D"/>
</svg>