<svg xmlns="http://www.w3.org/2000/svg" width="40" height="40" viewBox="0 0 40 40" fill="none">
<path fillRule="evenodd" clipRule="evenodd" d="M7.15337 1.16162L7.17172 2.32323H20H32.8283L32.8519 2.15488C32.865 2.06229 32.9104 1.96145 32.9529 1.93098C33.0103 1.88973 33.0086 1.8665 32.9461 1.84108C32.8862 1.81684 32.862 1.5995 32.862 1.08535C32.862 0.60118 32.8897 0.333839 32.9461 0.272896C33.0135 0.200337 33.0135 0.191752 32.9461 0.229799C32.8906 0.261112 32.862 0.229967 32.862 0.138721V0H19.9985H7.13485L7.15337 1.16162ZM4.72896 3.55219L4.74748 4.68014L5.85354 4.69865C7.17778 4.72088 7.06835 4.82054 7.0697 3.59141C7.07104 2.30185 7.19899 2.42424 5.84983 2.42424H4.71061L4.72896 3.55219ZM32.9702 2.53081C32.9476 2.58939 32.9293 3.05657 32.9293 3.56902C32.9293 4.83283 32.8025 4.7138 34.1487 4.7138H35.2862V3.56902V2.42424H34.1487C33.1734 2.42424 33.0052 2.43939 32.9702 2.53081ZM2.43956 5.87374L2.45791 7.03704L3.43434 7.0564C4.85707 7.08451 4.72054 7.21229 4.69865 5.87374L4.68014 4.74748L3.55067 4.72896L2.42104 4.71061L2.43956 5.87374ZM35.316 4.80067C35.2976 4.84849 35.2911 5.37121 35.3012 5.96229L35.3199 7.03704H36.431H37.5421L37.5604 5.87542L37.579 4.7138H36.4641C35.6158 4.7138 35.3414 4.73451 35.316 4.80067ZM0.925926 7.12306L0 7.14192V20.0035V32.8652L1.16162 32.8466L2.32323 32.8283V20.0012V7.17408L2.08754 7.13923C1.95791 7.12003 1.43519 7.1128 0.925926 7.12306ZM16.5392 7.24461C16.5167 7.3032 16.4983 9.40926 16.4983 11.9247V16.4983L11.9697 16.4992C9.47896 16.4997 7.3729 16.5184 7.28956 16.5407L7.13805 16.5813V20.0037V23.4261L7.42525 23.4692C7.58317 23.4929 7.74226 23.5062 7.77879 23.499C7.81532 23.4918 9.79209 23.4894 12.1717 23.4938L16.4983 23.5017V28.0753C16.4983 30.5907 16.5167 32.6968 16.5392 32.7554C16.5758 32.8507 16.9436 32.862 19.9997 32.862H23.4194L23.4609 32.6404C23.4838 32.5185 23.4998 30.4655 23.4966 28.0781C23.4933 25.6907 23.4931 23.6843 23.4961 23.6195C23.5013 23.5086 23.7665 23.5017 28.0753 23.5017C30.5907 23.5017 32.6968 23.4833 32.7554 23.4608C32.8507 23.4242 32.862 23.0566 32.862 20.0012V16.5825L32.6734 16.5448C32.5697 16.5241 30.4727 16.5042 28.0136 16.5007C25.5544 16.497 23.53 16.4818 23.5148 16.4667C23.4998 16.4515 23.4875 14.4601 23.4875 12.0411C23.4875 9.62222 23.4724 7.52946 23.4537 7.39057L23.4195 7.13805H19.9998C16.9436 7.13805 16.5758 7.14933 16.5392 7.24461ZM37.6742 7.22222C37.6566 7.26852 37.65 13.0488 37.6594 20.0673L37.6768 32.8283L38.8384 32.8466L40 32.8652V20.0015V7.13805H38.853C37.9975 7.13805 37.6981 7.15943 37.6742 7.22222ZM2.50842 32.9739C2.44579 32.9992 2.42424 33.299 2.42424 34.1487V35.2894L3.55219 35.271L4.68014 35.2525L4.69865 34.1465C4.7128 33.3067 4.69663 33.0273 4.63131 32.9859C4.53956 32.9276 2.6495 32.917 2.50842 32.9739ZM35.3167 33.0145C35.298 33.0631 35.2911 33.5867 35.3012 34.1778L35.3199 35.2525L36.4493 35.271L37.579 35.2894L37.5604 34.1263L37.5421 32.963L36.4463 32.9445C35.5897 32.93 35.3431 32.9453 35.3167 33.0145ZM4.76027 35.3295C4.73468 35.3551 4.7138 35.8717 4.7138 36.4774V37.579L5.87542 37.5604L7.03704 37.5421V36.431V35.3199L5.92189 35.3015C5.30859 35.2914 4.78586 35.304 4.76027 35.3295ZM32.9591 35.3732C32.9407 35.421 32.934 35.9286 32.9443 36.5012L32.963 37.5421L34.1246 37.5604L35.2862 37.579V36.4325V35.2862H34.1392C33.264 35.2862 32.9845 35.3067 32.9591 35.3732ZM7.17929 37.6983C7.14983 37.746 7.1234 38.9539 7.13451 39.7475L7.13805 40H20C32.817 40 32.862 39.9995 32.862 39.8653C32.862 39.7912 32.8998 39.7301 32.9461 39.7296C33.0118 39.7288 33.0123 39.7172 32.948 39.6763C32.8911 39.6401 32.8601 39.3258 32.847 38.6503L32.8283 37.6768L20.0209 37.6598C12.9769 37.6503 7.19815 37.6677 7.17929 37.6983Z" fill="white"/>
</svg>