<svg xmlns="http://www.w3.org/2000/svg" width="40" height="40" viewBox="0 0 40 40" fill="none">
<g clip-path="url(#clip0_4_352)">
<path fillRule="evenodd" clipRule="evenodd" d="M18.2518 3.26995L17.5636 3.28195L17.5493 4.33095C17.5376 5.18625 17.5199 5.45485 17.4534 5.78485C17.3835 6.13155 17.3766 6.25515 17.4055 6.64485C17.4496 7.24215 17.557 8.09345 17.5921 8.12485C17.7955 8.30635 19.4453 8.36215 19.985 8.20585L20.3102 8.11175L20.2912 7.14585C20.271 6.11685 20.2575 6.02895 20.0405 5.50765L19.9118 5.19865L20.0149 4.72935C20.1083 4.30445 20.1144 4.22415 20.08 3.88005C20.0592 3.67105 20.0416 3.46215 20.041 3.41595C20.0397 3.31275 19.6512 3.23455 19.2122 3.24905C19.0624 3.25395 18.6302 3.26345 18.2518 3.26995ZM6.02999 17.47L5.88379 17.62L5.90049 19.64C5.91949 21.933 5.94539 22.3633 6.07229 22.4902C6.17919 22.5971 6.42709 22.629 7.42839 22.665C8.30629 22.6965 8.40199 22.7262 8.61819 23.0337L8.73989 23.2068L8.75989 25.6869L8.77989 28.167L8.89209 28.2635C8.98639 28.3446 9.04719 28.3601 9.27209 28.3605C11.6849 28.365 11.7195 28.388 11.6894 29.968L11.671 30.94L11.7869 31.0494L11.9029 31.1587L12.7614 31.1851C13.521 31.2085 13.6821 31.2018 14.1599 31.1273C14.653 31.0504 14.9152 31.0414 17.1799 31.0234C18.5439 31.0125 19.7364 30.9919 19.8299 30.9776L19.9999 30.9516V29.9816V29.0116L20.2175 28.8058C20.3372 28.6926 20.4677 28.5982 20.5075 28.596C20.5473 28.5938 20.7599 28.5788 20.9799 28.5628C21.1999 28.5467 21.6088 28.5512 21.8887 28.5729L22.3974 28.6123L22.5554 28.5077C22.6423 28.4502 22.7622 28.3392 22.8217 28.2612L22.93 28.1192L22.8808 27.1412C22.8251 26.0368 22.8157 26.0831 23.1492 25.83C23.2916 25.7219 23.304 25.72 23.8655 25.72C24.945 25.72 25.2922 25.6571 25.5631 25.4124L25.7192 25.2713L25.7164 24.5257C25.7149 24.1156 25.7262 23.6868 25.7416 23.573C25.7686 23.3718 25.7654 23.3624 25.6273 23.2411C25.3737 23.0185 25.3454 22.857 25.3382 21.5959C25.3348 20.9887 25.3188 20.4705 25.3027 20.4445C25.2819 20.4108 25.0971 20.3989 24.6666 20.4033C24.3173 20.4069 23.8232 20.3819 23.5021 20.3443C22.4963 20.2267 22.509 20.2464 22.4739 18.76C22.4596 18.155 22.4461 17.6402 22.4439 17.6159C22.4412 17.5857 22.1155 17.5642 21.4099 17.5476C20.8145 17.5337 20.2204 17.4982 20.0019 17.4635C19.7478 17.4232 19.2905 17.4017 18.6066 17.3979L17.5894 17.3923L17.4847 17.4971L17.3799 17.6019L17.3943 18.5953C17.4177 20.2107 17.3777 20.2504 15.7374 20.242L14.7296 20.2369L14.6216 20.3653L14.5135 20.4937L14.525 21.5369C14.5427 23.1421 14.5934 23.0902 12.9855 23.112C11.8901 23.1269 11.8243 23.1186 11.574 22.9347C11.3232 22.7504 11.24 22.4936 11.2393 21.9021C11.2387 21.3959 11.2049 21.165 11.056 20.6526L10.9957 20.4452L10.6878 20.3459C10.153 20.1734 9.97579 20.1473 9.49939 20.1708C8.66279 20.212 8.43299 19.9797 8.38099 19.04C8.35529 18.5752 8.28139 18.1674 8.15299 17.78C8.06929 17.5278 7.37239 17.322 6.59799 17.3207L6.17609 17.32L6.02999 17.47ZM9.79989 34.4835C9.01249 34.6873 9.01269 34.6872 8.92359 34.9947C8.78889 35.4596 8.75989 35.6719 8.75989 36.1941V36.7043L8.89769 36.8378L9.03549 36.9714L10.2877 36.9413C10.9764 36.9248 11.9989 36.9072 12.5599 36.9021C13.2049 36.8963 13.7835 36.8685 14.1337 36.8265C14.6148 36.7687 15.2011 36.76 18.597 36.76C22.4927 36.76 22.9599 36.7455 22.9599 36.6242C22.9599 36.5996 22.916 36.3816 22.8624 36.1397L22.765 35.7L22.8333 35.2323C22.9012 34.7683 22.9011 34.7643 22.8208 34.7329C22.7763 34.7155 20.9201 34.6977 18.6959 34.6933C15.0567 34.6861 14.6182 34.6785 14.3159 34.6169C14.0525 34.5632 13.7207 34.546 12.7799 34.5374C12.1199 34.5313 11.2649 34.5071 10.8799 34.4837C10.0708 34.4345 9.98899 34.4345 9.79989 34.4835Z" fill="#2DE2E6"/>
<path fillRule="evenodd" clipRule="evenodd" d="M18.3801 2.86476C17.59 2.94206 17.4395 2.98676 17.3202 3.17986C17.2123 3.35436 17.1057 4.25196 17.1302 4.77896C17.1404 4.99946 17.1237 5.40476 17.0929 5.67946C16.9767 6.71886 17.1874 7.90836 17.5476 8.24556C17.919 8.59316 18.9316 8.75886 19.832 8.61936C20.5767 8.50396 20.8254 8.48276 21.6073 8.46786C22.6036 8.44896 22.6815 8.40986 22.7405 7.89996C22.7843 7.52176 22.7717 3.39536 22.7264 3.27646C22.6538 3.08566 22.4579 2.96036 22.227 2.95686C22.1132 2.95516 21.5521 2.93676 20.9801 2.91586C19.6055 2.86566 18.5775 2.84546 18.3801 2.86476ZM19.7624 3.28586C20.0028 3.32556 20.0402 3.34296 20.0412 3.41586C20.0418 3.46206 20.0594 3.67096 20.0802 3.87996C20.1146 4.22406 20.1085 4.30436 20.0151 4.72926L19.912 5.19856L20.0407 5.50756C20.2577 6.02886 20.2712 6.11676 20.2914 7.14576L20.3104 8.11166L19.9852 8.20576C19.4455 8.36206 17.7957 8.30626 17.5923 8.12476C17.5572 8.09336 17.4498 7.24206 17.4057 6.64476C17.3768 6.25506 17.3837 6.13146 17.4536 5.78476C17.5201 5.45476 17.5378 5.18616 17.5495 4.33086L17.5638 3.28186L18.252 3.26986C18.6304 3.26336 19.0626 3.25386 19.2124 3.24896C19.3622 3.24396 19.6097 3.26056 19.7624 3.28586ZM6.0392 17.09C5.9413 17.1395 5.8025 17.2579 5.7307 17.3531L5.6001 17.5262L5.6009 19.5731C5.6022 23.0433 5.5231 22.887 7.3126 22.9569L8.1251 22.9887L8.2799 23.1398L8.4347 23.2909L8.4481 25.7355C8.4658 28.9582 8.3094 28.6424 9.9078 28.6836C11.4354 28.7231 11.3763 28.6684 11.3385 30.0066L11.3122 30.94L11.4331 31.1265C11.5034 31.2351 11.6307 31.358 11.7376 31.4207L11.9214 31.5284L13.1907 31.5001C13.8889 31.4846 15.5041 31.4661 16.7801 31.4592C18.0561 31.4522 19.4871 31.4254 19.9601 31.3997C20.4727 31.3718 22.2904 31.3501 24.4601 31.3461C28.5251 31.3387 28.214 31.3612 28.3994 31.0611C28.4744 30.9397 28.4801 30.8635 28.4801 29.9774V29.0243L28.5833 28.8753C28.8109 28.5469 28.8994 28.5203 29.7692 28.5179C30.8892 28.515 31.0582 28.4906 31.2258 28.3077L31.3605 28.1607L31.3521 25.7284L31.3436 23.2961L31.4381 23.1432C31.4901 23.0591 31.6143 22.9385 31.7142 22.8751L31.8958 22.76H32.8825C34.355 22.76 34.2432 23.0292 34.2077 19.5703C34.2008 18.905 34.2078 18.1894 34.2232 17.9801L34.2511 17.5996L34.0456 17.3941L33.8401 17.1886L33.3901 17.2145C31.5179 17.3223 31.5207 17.3198 31.5203 18.9469L31.5201 19.5538L31.3882 19.7267C31.1417 20.0499 31.0885 20.0638 29.9893 20.0929C28.6105 20.1294 28.6698 20.0684 28.6546 21.4642C28.6425 22.5855 28.6373 22.6045 28.2832 22.8416L28.1064 22.96H27.1416H26.1768L26.0128 22.79C25.7264 22.4931 25.7263 22.4924 25.7263 21.3869C25.7263 19.9571 25.7943 20.0259 24.3385 19.9852C23.2727 19.9554 23.2362 19.9481 23.0201 19.7211L22.9001 19.595L22.8801 18.5456C22.8514 17.0375 22.9856 17.151 21.182 17.1098C16.6001 17.005 17.0285 16.8541 17.0437 18.568L17.0525 19.5725L16.8686 19.7463L16.6848 19.92H15.6611C14.1326 19.92 14.2023 19.8495 14.201 21.3953L14.2001 22.4105L14.0254 22.5853L13.8506 22.76H12.8592H11.8677L11.7139 22.5983L11.5601 22.4366L11.5595 21.9483C11.5578 20.5461 10.9168 19.88 9.5691 19.88H9.0307L8.8754 19.7247C8.7701 19.6194 8.7193 19.5325 8.7175 19.4547C8.6962 18.4989 8.5858 18.0785 8.2769 17.7768C8.1906 17.6926 8.1201 17.6345 8.1201 17.6477C8.1201 17.6608 8.1543 17.786 8.1961 17.9258C8.3205 18.3416 8.3556 18.5545 8.3831 19.06C8.4332 19.9777 8.6684 20.2117 9.4996 20.1708C9.976 20.1473 10.1532 20.1734 10.688 20.3459L10.9959 20.4452L11.0562 20.6526C11.2051 21.165 11.2389 21.3959 11.2395 21.9021C11.2402 22.4936 11.3234 22.7504 11.5742 22.9347C11.8245 23.1186 11.8903 23.1269 12.9857 23.112C14.5936 23.0902 14.5429 23.1421 14.5252 21.5369L14.5137 20.4937L14.6218 20.3653L14.7298 20.2369L15.7376 20.242C17.3779 20.2504 17.4179 20.2107 17.3945 18.5953L17.3801 17.6019L17.4849 17.4971L17.5896 17.3923L18.6068 17.3979C19.2907 17.4017 19.748 17.4232 20.0021 17.4635C20.2206 17.4982 20.8147 17.5337 21.4101 17.5476C22.1157 17.5642 22.4414 17.5857 22.4441 17.6159C22.4463 17.6402 22.4598 18.155 22.4741 18.76C22.5092 20.2464 22.4965 20.2267 23.5023 20.3443C23.8234 20.3819 24.3175 20.4069 24.6668 20.4033C25.0973 20.3989 25.2821 20.4108 25.3029 20.4445C25.319 20.4705 25.335 20.9887 25.3384 21.5959C25.3456 22.857 25.3739 23.0185 25.6275 23.2411C25.7656 23.3624 25.7688 23.3718 25.7418 23.573C25.7264 23.6868 25.7151 24.1156 25.7166 24.5257L25.7194 25.2713L25.5633 25.4124C25.2924 25.6571 24.9452 25.72 23.8657 25.72C23.3042 25.72 23.2918 25.7219 23.1494 25.83C22.8159 26.0831 22.8253 26.0368 22.881 27.1412L22.9302 28.1192L22.8219 28.2612C22.7624 28.3392 22.6425 28.4502 22.5556 28.5077L22.3976 28.6123L21.8889 28.5729C21.609 28.5512 21.2001 28.5467 20.9801 28.5628C20.7601 28.5788 20.5475 28.5938 20.5077 28.596C20.4679 28.5982 20.3374 28.6926 20.2177 28.8058L20.0001 29.0116V29.9816V30.9516L19.8301 30.9776C19.7366 30.9919 18.5441 31.0125 17.1801 31.0234C14.9154 31.0414 14.6532 31.0504 14.1601 31.1273C13.6823 31.2018 13.5212 31.2085 12.7616 31.1851L11.9031 31.1587L11.7871 31.0494L11.6712 30.94L11.6896 29.968C11.7197 28.388 11.6851 28.365 9.2723 28.3605C9.0474 28.3601 8.9866 28.3446 8.8923 28.2635L8.7801 28.167L8.7601 25.6869L8.7401 23.2068L8.6184 23.0337C8.4022 22.7262 8.3065 22.6965 7.4286 22.665C6.4273 22.629 6.1794 22.5971 6.0725 22.4902C5.9456 22.3633 5.9197 21.9331 5.9008 19.6362L5.8841 17.6124L6.0392 17.4609L6.1944 17.3094L6.7272 17.3302C7.1677 17.3474 7.3294 17.3722 7.6595 17.4728C8.1263 17.6151 8.1315 17.6141 7.9362 17.4188C7.5595 17.0421 6.4977 16.858 6.0392 17.09ZM9.6571 34.234C8.8088 34.5271 8.4416 35.1181 8.4406 36.192C8.44 36.8211 8.5287 37.0194 8.8952 37.2073C9.0483 37.2858 9.083 37.2862 11.7552 37.2357C13.2429 37.2076 16.3321 37.173 18.6201 37.1589C20.9081 37.1448 23.2931 37.1139 23.9201 37.0901C24.5471 37.0663 25.9331 37.0527 27.0001 37.0599C28.0671 37.0671 29.4063 37.0626 29.9761 37.0501L31.012 37.0272L31.1861 36.8605L31.3601 36.6937V35.7216C31.3601 34.8043 31.3554 34.7418 31.2762 34.6138C31.1181 34.3578 31.3463 34.3714 27.1328 34.3662C24.8348 34.3634 23.1435 34.3452 22.9328 34.3211C22.7195 34.2966 21.0736 34.2805 18.7676 34.2803C16.6707 34.2801 14.6997 34.263 14.3876 34.2422C13.1802 34.1618 9.8828 34.1561 9.6571 34.234ZM10.8801 34.4837C11.2651 34.5071 12.1201 34.5313 12.7801 34.5374C13.7209 34.546 14.0527 34.5632 14.3161 34.6169C14.6184 34.6785 15.0569 34.6861 18.6961 34.6933C20.9203 34.6977 22.7765 34.7155 22.821 34.7329C22.9013 34.7643 22.9014 34.7683 22.8335 35.2323L22.7652 35.7L22.8626 36.1397C22.9162 36.3816 22.9601 36.5996 22.9601 36.6242C22.9601 36.7455 22.4929 36.76 18.5972 36.76C15.2013 36.76 14.615 36.7687 14.1339 36.8265C13.7837 36.8685 13.2051 36.8963 12.5601 36.9021C11.9991 36.9072 10.9766 36.9248 10.2879 36.9413L9.0357 36.9714L8.8979 36.8378L8.7601 36.7043V36.1941C8.7601 35.6719 8.7891 35.4596 8.9238 34.9947C9.0079 34.7046 9.0072 34.7052 9.4401 34.5822C10.0083 34.4208 9.9315 34.426 10.8801 34.4837Z" fill="#920075"/>
<path fillRule="evenodd" clipRule="evenodd" d="M20.4081 0.2468C20.4252 0.6018 20.52 0.6158 20.52 0.2633C20.52 0.0523 20.5077 0 20.4581 0C20.4076 0 20.3984 0.0456 20.4081 0.2468ZM23.2134 1.44C23.2134 1.605 23.2205 1.6725 23.2291 1.59C23.2378 1.5075 23.2378 1.3725 23.2291 1.29C23.2205 1.2075 23.2134 1.275 23.2134 1.44ZM19.32 2.4295C19.199 2.4348 18.6011 2.4438 17.9914 2.4495C16.6797 2.4619 16.7537 2.435 16.7277 2.9091C16.6907 3.585 16.7231 7.5827 16.7676 7.82C16.7923 7.952 16.8165 8.1806 16.8213 8.3281C16.8261 8.4756 16.841 8.625 16.8545 8.6602C16.8688 8.6973 16.8625 8.7139 16.8395 8.6997C16.765 8.6536 16.8 8.7539 16.9001 8.8728L17.0002 8.9917L20.085 8.9965C21.7816 8.9992 23.1843 9.0103 23.2021 9.0213C23.268 9.062 23.3019 8.0574 23.2974 6.2C23.2914 3.7581 23.2708 2.5371 23.2347 2.4936C23.2021 2.4544 22.7906 2.4426 21.3914 2.4408C20.4006 2.4395 19.5787 2.4343 19.565 2.4292C19.5512 2.4242 19.441 2.4243 19.32 2.4295ZM24.02 2.48C23.9084 2.5 23.9869 2.5088 24.28 2.5093C24.612 2.5098 24.6623 2.5033 24.52 2.478C24.3106 2.4407 24.2378 2.441 24.02 2.48ZM20.5 2.7413C20.896 2.7523 21.5036 2.7686 21.8502 2.7775C22.9855 2.8065 22.9209 2.6688 22.9488 5.1174C22.9748 7.4015 22.9341 8.1815 22.7784 8.3857C22.6127 8.6029 22.5836 8.6083 21.3016 8.6634C20.6407 8.6918 19.9243 8.7358 19.7096 8.7612C17.7696 8.9909 16.9848 8.3463 16.9566 6.5C16.9301 4.7659 17.0274 3.3625 17.196 3.0475C17.32 2.8157 18.5049 2.641 19.52 2.7048C19.663 2.7138 20.104 2.7302 20.5 2.7413ZM24.2 2.76C24.156 2.7884 24.1826 2.7982 24.3 2.7966C24.4257 2.7948 24.4429 2.787 24.38 2.76C24.2748 2.7148 24.27 2.7148 24.2 2.76ZM26.0497 6.28C26.0499 6.7144 26.0596 6.8461 26.082 6.72C26.122 6.4956 26.1208 5.9402 26.08 5.78C26.0621 5.7098 26.0496 5.9172 26.0497 6.28ZM25.8034 6.22C25.805 6.3907 25.8155 6.4369 25.84 6.38C25.8869 6.2709 25.8869 6.1126 25.84 6.04C25.8127 5.9978 25.8019 6.0511 25.8034 6.22ZM25.5085 6.1197C25.4691 6.2701 25.5361 6.4387 25.593 6.3326C25.6549 6.2175 25.6524 6.1401 25.5849 6.0841C25.5416 6.0481 25.5252 6.0557 25.5085 6.1197ZM25.6859 6.22C25.6863 6.4045 25.6895 6.4112 25.7277 6.3064C25.7563 6.2279 25.7561 6.1662 25.7272 6.1064C25.6922 6.0341 25.6855 6.0526 25.6859 6.22ZM25.9714 6.22C25.9717 6.33 25.9795 6.3703 25.9887 6.3095C25.9979 6.2486 25.9977 6.1586 25.9882 6.1095C25.9787 6.0603 25.9711 6.11 25.9714 6.22ZM25.3212 6.222C25.3223 6.3254 25.3277 6.3309 25.3654 6.2661C25.3961 6.2132 25.3958 6.1798 25.3641 6.1481C25.332 6.116 25.3203 6.1359 25.3212 6.222ZM24.16 8.6553C24.16 8.6917 24.3159 8.7072 24.3656 8.6757C24.4026 8.6523 24.3784 8.641 24.29 8.6406C24.2185 8.6403 24.16 8.6469 24.16 8.6553ZM24.09 8.9494C24.1945 8.9576 24.3655 8.9576 24.47 8.9494C24.5745 8.9412 24.489 8.9344 24.28 8.9344C24.071 8.9344 23.9855 8.9412 24.09 8.9494ZM16.7552 9.0887C16.7737 9.1998 16.7793 9.2055 16.7919 9.1254C16.8001 9.0733 16.7903 9.0143 16.7701 8.9941C16.7479 8.9719 16.7421 9.0093 16.7552 9.0887ZM37.2572 11.0397C36.8093 11.1055 36.6125 11.5742 36.7532 12.24C36.7902 12.415 36.7915 12.411 36.8003 12.1C36.8091 11.7909 36.8105 11.7866 36.8419 11.9739C36.8834 12.2212 36.9191 12.2576 36.923 12.0567L36.9261 11.9L36.973 12.0271C37.0356 12.1966 37.08 12.2347 37.08 12.119C37.08 12.0275 37.0817 12.027 37.1387 12.1024C37.1967 12.179 37.1975 12.1789 37.2 12.1C37.2025 12.0211 37.2033 12.021 37.2613 12.0976C37.3143 12.1677 37.32 12.1685 37.32 12.1053C37.32 12.0668 37.338 12.0464 37.36 12.06C37.382 12.0736 37.4 12.0629 37.4 12.0362C37.4 12.006 37.4304 12.0151 37.48 12.06C37.5296 12.1049 37.56 12.114 37.56 12.0838C37.56 12.0571 37.5754 12.0448 37.5942 12.0564C37.6382 12.0836 37.8095 11.9029 37.7737 11.867C37.7588 11.8522 37.7705 11.84 37.7995 11.84C37.8373 11.84 37.8322 11.8176 37.7817 11.7619C37.7134 11.6864 37.7147 11.6828 37.8224 11.6558L37.9338 11.6279L37.8424 11.5539L37.7511 11.48L37.8456 11.4786L37.94 11.4772L37.8406 11.4221L37.7412 11.3671L37.8606 11.353C37.9769 11.3393 37.9753 11.3372 37.8 11.2726L37.62 11.2063L37.8 11.198L37.98 11.1897L37.74 11.1392L37.5 11.0887L37.84 11.079C38.1625 11.0698 38.1697 11.0677 37.98 11.0382C37.7356 11.0001 37.5242 11.0006 37.2572 11.0397ZM2.53051 11.1167C2.99141 11.244 3.08701 11.3523 3.18491 11.858L3.23951 12.14L3.22121 11.8689C3.18401 11.3197 2.99901 11.119 2.48001 11.065L2.26001 11.0421L2.53051 11.1167ZM37.193 11.2471C37.1121 11.294 37.0139 11.3918 36.9747 11.4646C36.9356 11.5373 36.8969 11.5902 36.8888 11.5821C36.8206 11.5139 37.1676 11.1585 37.3 11.1611C37.322 11.1615 37.2738 11.2002 37.193 11.2471ZM37.36 11.3176C37.2011 11.4016 37.118 11.487 37.0266 11.66C36.9917 11.726 36.9625 11.7602 36.9616 11.7359C36.9569 11.6054 37.3258 11.2366 37.4559 11.2418C37.4802 11.2427 37.437 11.2769 37.36 11.3176ZM21.31 11.7889C21.3815 11.7978 21.4985 11.7978 21.57 11.7889C21.6415 11.7801 21.583 11.7728 21.44 11.7728C21.297 11.7728 21.2385 11.7801 21.31 11.7889ZM5.00001 13.919C4.90011 13.9407 4.97931 13.951 5.27671 13.9547C5.50581 13.9576 5.68581 13.9532 5.67671 13.9449C5.63841 13.9104 5.12921 13.8908 5.00001 13.919ZM31.5074 13.978C31.2135 14.0828 31.1054 14.2486 31.0631 14.66L31.0384 14.9L31.1193 14.6025C31.242 14.1513 31.4108 14.0121 31.8971 13.9607L32.18 13.9309L31.92 13.9272C31.777 13.9252 31.5913 13.948 31.5074 13.978ZM16.7701 15.7C16.7705 15.788 16.7787 15.8193 16.7883 15.7695C16.7979 15.7198 16.7975 15.6478 16.7875 15.6095C16.7775 15.5713 16.7696 15.612 16.7701 15.7ZM23.2132 16.485C23.2198 16.7025 23.1526 16.7793 23.1069 16.6066C23.0912 16.5473 23.0888 16.5477 23.0846 16.61C23.0781 16.7089 23.0042 16.6969 22.9612 16.59L22.9251 16.5L22.9225 16.59C22.9199 16.6822 22.8405 16.7204 22.8394 16.63C22.839 16.5955 22.8297 16.5936 22.8094 16.6239C22.771 16.6814 23.063 16.6747 19.6837 16.6951L16.7073 16.713L16.7157 18.1129C16.7207 18.9307 16.7089 19.5222 16.6874 19.5354C16.6672 19.5479 16.0208 19.5594 15.2509 19.561L13.8511 19.5638L13.8504 19.6519C13.85 19.7004 13.8475 20.3385 13.8448 21.07L13.84 22.4H12.86H11.88V21.4824C11.88 20.8747 11.8944 20.5558 11.9227 20.5383C11.9462 20.5238 11.9558 20.4867 11.944 20.456C11.9322 20.4252 11.9427 20.4 11.9675 20.4C11.9922 20.4 11.9806 20.3649 11.9417 20.3219C11.8734 20.2464 11.8747 20.2429 11.981 20.2162L12.0909 20.1886L11.9955 20.1152C11.9063 20.0466 11.9053 20.0416 11.98 20.0396C12.0569 20.0375 12.0572 20.0353 11.9865 19.9817C11.9174 19.9294 11.9196 19.9252 12.0217 19.913C12.112 19.9022 12.0838 19.882 11.8554 19.7936C11.7041 19.7351 11.5712 19.6991 11.5601 19.7136C11.5303 19.7527 10.92 19.7599 10.92 19.7211C10.92 19.6294 10.6162 19.5864 9.85001 19.5696L9.04001 19.5518L9.03761 19.3059C9.02331 17.8294 8.97371 17.6837 8.47401 17.6502L8.18001 17.6305L8.31851 17.7259C8.66161 17.962 8.79871 18.3364 8.79971 19.04C8.80031 19.4649 8.80771 19.5092 8.89631 19.62L8.99221 19.74L9.60611 19.765C10.4859 19.8008 10.6268 19.8632 11.2427 20.4892C11.5685 20.8203 11.64 21.0584 11.64 21.813V22.3843L11.7719 22.5122L11.9038 22.64H12.8641H13.8243L13.9496 22.51L14.0749 22.38L14.0875 21.2581C14.1049 19.6959 13.9966 19.8 15.6044 19.8H16.6913L16.8127 19.67L16.9341 19.54L16.9371 18.4183C16.9412 16.8278 16.8185 16.9421 18.5152 16.9489C21.9636 16.9627 22.57 16.979 22.7404 17.0621C22.9804 17.1793 22.9951 17.2593 22.9977 18.4646C23.0009 19.9073 22.9025 19.8107 24.4 19.8426C25.9632 19.876 25.855 19.767 25.8723 21.3255L25.8846 22.4309L26.0254 22.5955L26.1662 22.76H27.1569H28.1475L28.3091 22.5968L28.4706 22.4337L28.4864 21.4058C28.5085 19.9621 28.5173 19.9507 29.6195 19.9307C30.8617 19.9082 30.9863 19.8921 31.1644 19.7313L31.32 19.5907V19.0824C31.32 18.2924 31.4544 17.543 31.631 17.3479C31.7573 17.2083 31.8958 17.1691 32.4902 17.1043C33.7245 16.9698 33.9756 17.0098 34.2628 17.3863L34.3889 17.5517L34.3799 19.9859C34.3679 23.2266 34.5102 22.96 32.7927 22.96H31.84L31.6812 23.1188L31.5223 23.2777L31.5112 25.7959C31.497 28.9824 31.6616 28.6532 30.0729 28.6724L29.0457 28.6849L28.8629 28.8458L28.68 29.0068L28.6798 29.9134C28.6795 30.9434 28.6593 31.0575 28.4333 31.3027C28.2164 31.5379 28.632 31.5163 23.82 31.5426C18.1421 31.5737 15.0122 31.5987 13.31 31.6268C12.23 31.6446 11.891 31.6383 11.79 31.5985C11.553 31.505 11.3931 31.3546 11.289 31.1271L11.1876 30.9057L11.213 29.9751L11.2384 29.0445L11.0946 28.9259L10.9507 28.8074L9.84541 28.7937C8.19201 28.7732 8.35871 29.1054 8.33361 25.78L8.31491 23.3L8.21001 23.19C8.10561 23.0806 8.10211 23.08 7.56461 23.08C6.38011 23.08 5.79161 22.9669 5.67321 22.7164C5.46111 22.2674 5.38531 17.7197 5.58361 17.34C5.75741 17.0071 5.92051 16.9418 6.61461 16.9273C7.42141 16.9105 7.76071 17.0299 8.00911 17.4183L8.08691 17.54L8.06771 17.2652C8.03001 16.7275 7.97151 16.7042 6.66001 16.7058C5.47841 16.7072 5.39381 16.7258 5.31961 17.0013C5.27971 17.1496 5.25621 22.7258 5.29371 23.1461L5.30491 23.2721L6.69891 23.2959C7.46561 23.3089 8.09851 23.3252 8.10531 23.332C8.11211 23.3387 8.11931 24.6156 8.12131 26.1694L8.12491 28.9946L9.05241 28.9972C9.56261 28.9987 10.1987 29.0115 10.466 29.0256L10.952 29.0512L10.977 29.4756C10.9907 29.709 10.9982 30.251 10.9935 30.68C10.984 31.5529 11.0158 31.7327 11.1939 31.8125C11.2747 31.8487 13.2317 31.86 19.4 31.86H27.5L27.64 31.9491C27.717 31.9981 27.8575 32.0786 27.9522 32.1281L28.1244 32.2181L28.2852 32.049C28.3778 31.9517 28.4829 31.8799 28.533 31.8799C28.9093 31.8792 28.9697 31.6943 28.9993 30.4514L29.0243 29.4028L29.1982 29.2263C29.4122 29.0092 29.4587 29.0026 30.8093 28.9979C31.7767 28.9946 31.8014 28.9907 31.8285 28.84C31.8345 28.807 31.8461 27.547 31.8543 26.04L31.8693 23.3L33.2385 23.28C33.9916 23.269 34.6162 23.2738 34.6266 23.2907C34.7408 23.4757 34.7878 17.8667 34.6782 17.14C34.6133 16.7098 34.6151 16.7101 32.64 16.7298C30.886 16.7472 31.0625 16.699 31.0494 17.1638C31.0435 17.3707 31.0226 17.774 31.0029 18.06C30.9831 18.346 30.9769 18.8005 30.989 19.07L31.011 19.56L29.9355 19.565C29.344 19.5678 28.752 19.5696 28.62 19.5691C28.488 19.5685 28.3463 19.5861 28.3052 19.608C28.264 19.63 28.2403 19.6319 28.2524 19.6123C28.2645 19.5927 28.2397 19.574 28.1972 19.5708C28.1548 19.5676 28.12 19.5829 28.12 19.6048C28.12 19.6268 28.1425 19.6312 28.17 19.6147C28.2095 19.591 28.2094 19.5978 28.1696 19.6469C28.1308 19.6949 28.1216 20.0212 28.1296 21.0646L28.14 22.42H27.16H26.18L26.1715 21L26.163 19.58L24.7715 19.5691C24.0062 19.5632 23.3571 19.5501 23.3291 19.5401C23.2893 19.5258 23.2779 19.2111 23.2766 18.0909C23.2756 17.3039 23.2594 16.57 23.2406 16.46L23.2064 16.26L23.2132 16.485ZM2.49371 17.62C2.49391 17.796 2.50091 17.863 2.50931 17.7689C2.51781 17.6749 2.51771 17.5309 2.50911 17.4489C2.50051 17.367 2.49361 17.444 2.49371 17.62ZM26.0537 18.54C26.0539 18.716 26.0609 18.783 26.0693 18.6889C26.0778 18.5949 26.0777 18.4509 26.0691 18.3689C26.0605 18.287 26.0536 18.364 26.0537 18.54ZM2.49201 19.52C2.49201 19.641 2.49951 19.6905 2.50871 19.63C2.51781 19.5695 2.51781 19.4705 2.50871 19.41C2.49951 19.3495 2.49201 19.399 2.49201 19.52ZM35.6193 19.4408C35.5468 19.5209 35.5471 19.5248 35.6325 19.6103L35.72 19.6978L35.801 19.6168L35.882 19.5358L35.7877 19.4473L35.6935 19.3588L35.6193 19.4408ZM11.8237 19.606C11.8353 19.6247 11.9472 19.6386 12.0724 19.6368C12.3355 19.6332 12.3107 19.6138 12.0113 19.5892C11.8966 19.5797 11.8122 19.5873 11.8237 19.606ZM11.84 19.7194C11.873 19.7411 11.9435 19.7591 11.9967 19.7594C12.1251 19.7602 12.0925 19.7375 11.92 19.7058C11.8215 19.6877 11.7978 19.6918 11.84 19.7194ZM37.4963 21.12C37.4963 21.483 37.5023 21.6315 37.5098 21.45C37.5172 21.2685 37.5172 20.9715 37.5098 20.79C37.5023 20.6085 37.4963 20.757 37.4963 21.12ZM34.654 25.24C34.654 25.427 34.6609 25.5035 34.6693 25.41C34.6777 25.3165 34.6777 25.1635 34.6693 25.07C34.6609 24.9765 34.654 25.053 34.654 25.24ZM34.3693 25.24C34.3693 25.317 34.3775 25.3485 34.3876 25.31C34.3976 25.2715 34.3976 25.2085 34.3876 25.17C34.3775 25.1315 34.3693 25.163 34.3693 25.24ZM5.29931 25.9735C5.28421 26.1349 5.28951 26.3644 5.31121 26.4835C5.34681 26.6798 5.35091 26.6523 5.35521 26.19C5.36061 25.6165 5.34021 25.5375 5.29931 25.9735ZM5.43001 25.955C5.39151 26.1281 5.39611 26.3578 5.44001 26.46C5.46831 26.5257 5.47511 26.5151 5.47821 26.4L5.48211 26.26L5.55781 26.42C5.62461 26.5612 5.63411 26.5682 5.63801 26.48C5.64241 26.3833 5.64451 26.3826 5.70131 26.4576C5.75701 26.5313 5.76001 26.5315 5.76001 26.4614C5.76001 26.3913 5.76381 26.3911 5.83641 26.4567C5.90921 26.5226 5.91401 26.5218 5.94001 26.44C5.96601 26.3582 5.97081 26.3574 6.04361 26.4233C6.08561 26.4613 6.12001 26.4736 6.12001 26.4505C6.12001 26.4275 6.16561 26.3972 6.22141 26.3832C6.38601 26.3419 6.43401 26.1814 6.31851 26.0584C6.26641 26.003 6.20051 25.9666 6.17191 25.9776C6.14341 25.9885 6.12001 25.9773 6.12001 25.9525C6.12001 25.9278 6.08491 25.9394 6.04191 25.9783C5.96641 26.0466 5.96291 26.0453 5.93621 25.939L5.90861 25.8291L5.83521 25.9245C5.76661 26.0137 5.76161 26.0147 5.75961 25.94C5.75751 25.8611 5.75671 25.861 5.69871 25.9376C5.64191 26.0128 5.63991 26.0122 5.63681 25.9176C5.63401 25.834 5.62301 25.8427 5.55971 25.9786L5.48591 26.1372L5.47291 25.9786L5.46001 25.82L5.43001 25.955ZM14.6672 33.75C14.6025 33.8148 14.4006 33.8217 11.9686 33.843C9.52101 33.8645 9.20981 33.8776 9.09811 33.964C9.06221 33.9917 8.93661 33.9986 8.41611 34.0014C8.36991 34.0017 8.28891 34.0494 8.23611 34.1074C8.18321 34.1654 8.16441 34.1987 8.19431 34.1814C8.23481 34.158 8.24231 34.1698 8.22381 34.2281C8.12361 34.5438 8.10401 37.1486 8.20041 37.3396C8.33181 37.6002 7.36011 37.5811 19.86 37.5692C32.7615 37.557 31.7152 37.593 31.8413 37.1564C31.8781 37.029 31.8545 34.0433 31.8164 34.0037C31.8078 33.9947 31.8194 33.9648 31.8423 33.9372C31.8691 33.9049 31.87 33.8785 31.8447 33.8629C31.8232 33.8496 31.7946 33.8563 31.7813 33.8778C31.7663 33.9022 31.7214 33.9033 31.6622 33.8808C31.6069 33.8598 28.1605 33.8435 23.4136 33.8419C15.2122 33.839 14.9192 33.8354 14.8358 33.7349C14.7764 33.6634 14.7515 33.6656 14.6672 33.75ZM7.60001 33.92L7.06001 33.9436L7.58761 33.9518C7.90541 33.9567 8.12511 33.9441 8.14001 33.92C8.15361 33.898 8.15921 33.8837 8.15241 33.8882C8.14561 33.8927 7.89701 33.907 7.60001 33.92ZM17.74 34.1279C20.71 34.1495 24.9194 34.174 27.0942 34.1823C31.4708 34.199 31.2202 34.1833 31.4174 34.4528C31.4953 34.5592 31.5007 34.628 31.5123 35.653L31.5246 36.7403L31.378 36.9115C31.0745 37.2661 31.4207 37.2394 27.1726 37.2358C24.5492 37.2335 23.2154 37.2474 22.74 37.2821C22.2418 37.3184 21.3223 37.325 19.3 37.3068C17.782 37.2931 15.793 37.2985 14.88 37.3189C13.967 37.3393 12.2532 37.3599 11.0716 37.3647L8.92321 37.3735L8.73161 37.2565C8.16871 36.913 8.15521 35.4489 8.70891 34.7939C9.30501 34.0888 9.49071 34.0331 11.14 34.0653C11.8 34.0781 14.77 34.1063 17.74 34.1279ZM34.6528 35.76C34.6528 35.903 34.6601 35.9615 34.6689 35.89C34.6778 35.8185 34.6778 35.7015 34.6689 35.63C34.6601 35.5585 34.6528 35.617 34.6528 35.76Z" fill="#0C0C0C"/>
<path fillRule="evenodd" clipRule="evenodd" d="M16.68 1.2V2.4H15.265H13.85L13.825 2.525C13.7827 2.7366 13.796 8.8242 13.839 8.9374L13.878 9.04H15.2785H16.679L16.6895 10.45L16.7 11.86L16.96 11.8853C17.2989 11.9183 22.7011 11.9183 23.04 11.8853L23.3 11.86L23.3105 10.45L23.321 9.04H24.7215H26.122L26.161 8.9374C26.2034 8.8258 26.2166 2.6462 26.1748 2.49L26.1507 2.4H24.7353H23.32V1.2V0H21.92H20.52V0.2633C20.52 0.6158 20.4252 0.6018 20.4081 0.2468L20.3962 0H18.5381H16.68V1.2ZM23.2291 1.59C23.2205 1.6725 23.2134 1.605 23.2134 1.44C23.2134 1.275 23.2205 1.2075 23.2291 1.29C23.2378 1.3725 23.2378 1.5075 23.2291 1.59ZM21.3914 2.4408C22.7906 2.4426 23.2021 2.4544 23.2347 2.4936C23.262 2.5266 23.2801 3.1261 23.2866 4.222C23.309 7.9659 23.2894 9.0753 23.2021 9.0213C23.1843 9.0103 21.7816 8.9992 20.085 8.9965L17.0002 8.9917L16.9001 8.8728C16.8 8.7539 16.765 8.6536 16.8395 8.6997C16.8625 8.7139 16.8688 8.6973 16.8545 8.6602C16.841 8.625 16.8261 8.4756 16.8213 8.3281C16.8165 8.1806 16.7923 7.952 16.7676 7.82C16.7231 7.5827 16.6907 3.585 16.7277 2.9091C16.7537 2.435 16.6797 2.4619 17.9914 2.4495C18.6011 2.4438 19.199 2.4348 19.32 2.4295C19.441 2.4243 19.5512 2.4242 19.565 2.4292C19.5787 2.4343 20.4006 2.4395 21.3914 2.4408ZM24.52 2.478C24.6623 2.5033 24.612 2.5098 24.28 2.5093C23.9869 2.5088 23.9084 2.5 24.02 2.48C24.2378 2.441 24.3106 2.4407 24.52 2.478ZM24.38 2.76C24.4429 2.787 24.4257 2.7948 24.3 2.7966C24.1826 2.7982 24.156 2.7884 24.2 2.76C24.27 2.7148 24.2748 2.7148 24.38 2.76ZM26.1123 6.22C26.1133 6.396 26.0997 6.621 26.082 6.72C26.0596 6.8461 26.0499 6.7144 26.0497 6.28C26.0496 5.9172 26.0621 5.7098 26.08 5.78C26.0968 5.846 26.1113 6.044 26.1123 6.22ZM25.8766 6.2C25.8714 6.4376 25.8056 6.4555 25.8034 6.22C25.8019 6.0511 25.8127 5.9978 25.84 6.04C25.8613 6.073 25.8778 6.145 25.8766 6.2ZM25.64 6.1875C25.64 6.2193 25.6189 6.2846 25.593 6.3326C25.5361 6.4387 25.4691 6.2701 25.5085 6.1197C25.5327 6.0271 25.64 6.0825 25.64 6.1875ZM25.7277 6.3064C25.6895 6.4112 25.6863 6.4045 25.6859 6.22C25.6855 6.0526 25.6922 6.0341 25.7272 6.1064C25.7561 6.1662 25.7563 6.2279 25.7277 6.3064ZM25.9887 6.3095C25.9795 6.3703 25.9717 6.33 25.9714 6.22C25.9711 6.11 25.9787 6.0603 25.9882 6.1095C25.9977 6.1586 25.9979 6.2486 25.9887 6.3095ZM25.3654 6.2661C25.3277 6.3309 25.3223 6.3254 25.3212 6.222C25.3203 6.1359 25.332 6.116 25.3641 6.1481C25.3958 6.1798 25.3961 6.2132 25.3654 6.2661ZM24.3656 8.6757C24.3159 8.7072 24.16 8.6917 24.16 8.6553C24.16 8.6469 24.2185 8.6403 24.29 8.6406C24.3784 8.641 24.4026 8.6523 24.3656 8.6757ZM24.47 8.9494C24.3655 8.9576 24.1945 8.9576 24.09 8.9494C23.9855 8.9412 24.071 8.9344 24.28 8.9344C24.489 8.9344 24.5745 8.9412 24.47 8.9494ZM16.7919 9.1254C16.7793 9.2055 16.7737 9.1998 16.7552 9.0887C16.7421 9.0093 16.7479 8.9719 16.7701 8.9941C16.7903 9.0143 16.8001 9.0733 16.7919 9.1254ZM0 12.8596V14.76H1.1998H2.3996L2.4098 19.03L2.42 23.3L3.83 23.3105L5.24 23.321V26.1325C5.24 28.2659 5.2516 28.9556 5.288 28.992C5.3235 29.0275 5.6942 29.04 6.708 29.04H8.08V31.42V33.8H6.7626C6.0034 33.8 5.4017 33.8165 5.3426 33.839L5.24 33.878V36.939V40H20H34.76V36.939V33.878L34.6574 33.839C34.5983 33.8165 33.9966 33.8 33.2374 33.8H31.92V31.42V29.04H33.292C34.3058 29.04 34.6765 29.0275 34.712 28.992C34.7484 28.9556 34.76 28.2659 34.76 26.1325V23.321L36.17 23.3105L37.58 23.3L37.5902 19.03L37.6004 14.76H38.8002H40V12.8596V10.9591L38.35 10.9696L36.7 10.98L36.6895 12.39L36.679 13.8H33.9221C32.2276 13.8 31.1257 13.815 31.0626 13.839L30.96 13.878V15.279V16.68H29.5624C28.4877 16.68 28.1575 16.6916 28.1333 16.73C28.116 16.7575 28.0948 17.3965 28.0863 18.15L28.0709 19.52H27.1354H26.2V18.2026C26.2 17.4434 26.1835 16.8417 26.161 16.7826L26.122 16.68H24.721H23.32V15.279V13.878L23.2174 13.839C23.0784 13.7862 16.9216 13.7862 16.7826 13.839L16.68 13.878V15.279V16.68H15.279H13.878L13.839 16.7826C13.8165 16.8417 13.8 17.4434 13.8 18.2026V19.52H12.8646H11.9291L11.9137 18.15C11.9052 17.3965 11.884 16.7575 11.8667 16.73C11.8425 16.6916 11.5123 16.68 10.4376 16.68H9.04V15.279V13.878L8.9374 13.839C8.8743 13.815 7.7724 13.8 6.0779 13.8H3.321L3.3105 12.39L3.3 10.98L1.65 10.9696L0 10.9591V12.8596ZM37.98 11.0382C38.1697 11.0677 38.1625 11.0698 37.84 11.079L37.5 11.0887L37.74 11.1392L37.98 11.1897L37.8 11.198L37.62 11.2063L37.8 11.2726C37.9753 11.3372 37.9769 11.3393 37.8606 11.353L37.7412 11.3671L37.8406 11.4221L37.94 11.4772L37.8456 11.4786L37.7511 11.48L37.8424 11.5539L37.9338 11.6279L37.8224 11.6558C37.7147 11.6828 37.7134 11.6864 37.7817 11.7619C37.8322 11.8176 37.8373 11.84 37.7995 11.84C37.7705 11.84 37.7588 11.8522 37.7737 11.867C37.8095 11.9029 37.6382 12.0836 37.5942 12.0564C37.5754 12.0448 37.56 12.0571 37.56 12.0838C37.56 12.114 37.5296 12.1049 37.48 12.06C37.4304 12.0151 37.4 12.006 37.4 12.0362C37.4 12.0629 37.382 12.0736 37.36 12.06C37.338 12.0464 37.32 12.0668 37.32 12.1053C37.32 12.1685 37.3143 12.1677 37.2613 12.0976C37.2033 12.021 37.2025 12.0211 37.2 12.1C37.1975 12.1789 37.1967 12.179 37.1387 12.1024C37.0817 12.027 37.08 12.0275 37.08 12.119C37.08 12.2347 37.0356 12.1966 36.973 12.0271L36.9261 11.9L36.923 12.0567C36.9191 12.2576 36.8834 12.2212 36.8419 11.9739C36.8105 11.7866 36.8091 11.7909 36.8003 12.1C36.7915 12.411 36.7902 12.415 36.7532 12.24C36.6661 11.8277 36.7809 11.2158 36.9638 11.118C37.1451 11.0209 37.6265 10.9831 37.98 11.0382ZM2.8716 11.1624C3.0857 11.2554 3.1945 11.4752 3.2212 11.8689L3.2395 12.14L3.1849 11.858C3.087 11.3523 2.9914 11.244 2.5305 11.1167L2.26 11.0421L2.48 11.065C2.601 11.0776 2.7772 11.1214 2.8716 11.1624ZM37.1319 11.2384C37.0178 11.308 36.8508 11.5441 36.8888 11.5821C36.8969 11.5902 36.9356 11.5373 36.9747 11.4646C37.0139 11.3918 37.1121 11.294 37.193 11.2471C37.2738 11.2002 37.322 11.1615 37.3 11.1611C37.278 11.1606 37.2024 11.1954 37.1319 11.2384ZM37.2769 11.331C37.1396 11.4235 36.9587 11.6558 36.9616 11.7359C36.9625 11.7602 36.9917 11.726 37.0266 11.66C37.118 11.487 37.2011 11.4016 37.36 11.3176C37.437 11.2769 37.4802 11.2427 37.4559 11.2418C37.4317 11.2408 37.3511 11.2809 37.2769 11.331ZM21.57 11.7889C21.4985 11.7978 21.3815 11.7978 21.31 11.7889C21.2385 11.7801 21.297 11.7728 21.44 11.7728C21.583 11.7728 21.6415 11.7801 21.57 11.7889ZM5.6767 13.9449C5.6858 13.9532 5.5058 13.9576 5.2767 13.9547C4.9793 13.951 4.9001 13.9407 5 13.919C5.1292 13.8908 5.6384 13.9104 5.6767 13.9449ZM31.8971 13.9607C31.4108 14.0121 31.242 14.1513 31.1193 14.6025L31.0384 14.9L31.0631 14.66C31.1191 14.1158 31.3491 13.9191 31.92 13.9272L32.18 13.9309L31.8971 13.9607ZM16.7883 15.7695C16.7787 15.8193 16.7705 15.788 16.7701 15.7C16.7696 15.612 16.7775 15.5713 16.7875 15.6095C16.7975 15.6478 16.7979 15.7198 16.7883 15.7695ZM23.2766 18.0909C23.2779 19.2111 23.2893 19.5258 23.3291 19.5401C23.3571 19.5501 24.0062 19.5632 24.7715 19.5691L26.163 19.58L26.1715 21L26.18 22.42H27.16H28.14L28.1296 21.0646C28.1216 20.0212 28.1308 19.6949 28.1696 19.6469C28.2094 19.5978 28.2095 19.591 28.17 19.6147C28.1425 19.6312 28.12 19.6268 28.12 19.6048C28.12 19.5829 28.1548 19.5676 28.1972 19.5708C28.2397 19.574 28.2645 19.5927 28.2524 19.6123C28.2403 19.6319 28.264 19.63 28.3052 19.608C28.3463 19.5861 28.488 19.5685 28.62 19.5691C28.752 19.5696 29.344 19.5678 29.9355 19.565L31.011 19.56L30.989 19.07C30.9769 18.8005 30.9831 18.346 31.0029 18.06C31.0226 17.774 31.0435 17.3707 31.0494 17.1638C31.0625 16.699 30.886 16.7472 32.64 16.7298C34.6151 16.7101 34.6133 16.7098 34.6782 17.14C34.7878 17.8667 34.7408 23.4757 34.6266 23.2907C34.6162 23.2738 33.9916 23.269 33.2385 23.28L31.8693 23.3L31.8543 26.04C31.8461 27.547 31.8345 28.807 31.8285 28.84C31.8014 28.9907 31.7767 28.9946 30.8093 28.9979C29.4587 29.0026 29.4122 29.0092 29.1982 29.2263L29.0243 29.4028L28.9993 30.4514C28.9697 31.6943 28.9093 31.8792 28.533 31.8799C28.4829 31.8799 28.3778 31.9517 28.2852 32.049L28.1244 32.2181L27.9522 32.1281C27.8575 32.0786 27.717 31.9981 27.64 31.9491L27.5 31.86H19.4C13.2317 31.86 11.2747 31.8487 11.1939 31.8125C11.0158 31.7327 10.984 31.5529 10.9935 30.68C10.9982 30.251 10.9907 29.709 10.977 29.4756L10.952 29.0512L10.466 29.0256C10.1987 29.0115 9.5626 28.9987 9.0524 28.9972L8.1249 28.9946L8.1213 26.1694C8.1193 24.6156 8.1121 23.3387 8.1053 23.332C8.0985 23.3252 7.4656 23.3089 6.6989 23.2959L5.3049 23.2721L5.2937 23.1461C5.2562 22.7258 5.2797 17.1496 5.3196 17.0013C5.3938 16.7258 5.4784 16.7072 6.66 16.7058C7.9923 16.7042 8.0372 16.7235 8.0714 17.3135L8.0897 17.6305L8.4269 17.6482C8.9785 17.6771 9.023 17.7977 9.0376 19.3059L9.04 19.5518L9.85 19.5696C10.6162 19.5864 10.92 19.6294 10.92 19.7211C10.92 19.7599 11.5303 19.7527 11.5601 19.7136C11.5712 19.6991 11.7041 19.7351 11.8554 19.7936C12.0838 19.882 12.112 19.9022 12.0217 19.913C11.9196 19.9252 11.9174 19.9294 11.9865 19.9817C12.0572 20.0353 12.0569 20.0375 11.98 20.0396C11.9053 20.0416 11.9063 20.0466 11.9955 20.1152L12.0909 20.1886L11.981 20.2162C11.8747 20.2429 11.8734 20.2464 11.9417 20.3219C11.9806 20.3649 11.9922 20.4 11.9675 20.4C11.9427 20.4 11.9322 20.4252 11.944 20.456C11.9558 20.4867 11.9462 20.5238 11.9227 20.5383C11.8944 20.5558 11.88 20.8747 11.88 21.4824V22.4H12.86H13.84L13.8448 21.07C13.8475 20.3385 13.85 19.7004 13.8504 19.6519L13.8511 19.5638L15.2509 19.561C16.0208 19.5594 16.6672 19.5479 16.6874 19.5354C16.7089 19.5222 16.7207 18.9307 16.7157 18.1129L16.7073 16.713L19.6837 16.6951C23.063 16.6747 22.771 16.6814 22.8094 16.6239C22.8297 16.5936 22.839 16.5955 22.8394 16.63C22.8405 16.7204 22.9199 16.6822 22.9225 16.59L22.9251 16.5L22.9612 16.59C23.0042 16.6969 23.0781 16.7089 23.0846 16.61C23.0888 16.5477 23.0912 16.5473 23.1069 16.6066C23.1526 16.7793 23.2198 16.7025 23.2132 16.485L23.2064 16.26L23.2406 16.46C23.2594 16.57 23.2756 17.3039 23.2766 18.0909ZM2.5093 17.7689C2.5009 17.863 2.4939 17.796 2.4937 17.62C2.4936 17.444 2.5005 17.367 2.5091 17.4489C2.5177 17.5309 2.5178 17.6749 2.5093 17.7689ZM26.0693 18.6889C26.0609 18.783 26.0539 18.716 26.0537 18.54C26.0536 18.364 26.0605 18.287 26.0691 18.3689C26.0777 18.4509 26.0778 18.5949 26.0693 18.6889ZM2.5087 19.63C2.4995 19.6905 2.492 19.641 2.492 19.52C2.492 19.399 2.4995 19.3495 2.5087 19.41C2.5178 19.4705 2.5178 19.5695 2.5087 19.63ZM35.801 19.6168L35.72 19.6978L35.6325 19.6103C35.5471 19.5248 35.5468 19.5209 35.6193 19.4408L35.6935 19.3588L35.7877 19.4473L35.882 19.5358L35.801 19.6168ZM12.26 19.62C12.282 19.6275 12.1976 19.6351 12.0724 19.6368C11.9472 19.6386 11.8353 19.6247 11.8237 19.606C11.8047 19.5753 12.1629 19.5868 12.26 19.62ZM12.0767 19.7457C12.1163 19.7797 11.8942 19.755 11.84 19.7194C11.7978 19.6918 11.8215 19.6877 11.92 19.7058C11.997 19.7199 12.0675 19.7379 12.0767 19.7457ZM37.5098 21.45C37.5023 21.6315 37.4963 21.483 37.4963 21.12C37.4963 20.757 37.5023 20.6085 37.5098 20.79C37.5172 20.9715 37.5172 21.2685 37.5098 21.45ZM34.6693 25.41C34.6609 25.5035 34.654 25.427 34.654 25.24C34.654 25.053 34.6609 24.9765 34.6693 25.07C34.6777 25.1635 34.6777 25.3165 34.6693 25.41ZM34.3876 25.31C34.3775 25.3485 34.3693 25.317 34.3693 25.24C34.3693 25.163 34.3775 25.1315 34.3876 25.17C34.3976 25.2085 34.3976 25.2715 34.3876 25.31ZM5.3552 26.19C5.3509 26.6523 5.3468 26.6798 5.3112 26.4835C5.2762 26.2911 5.3007 25.68 5.3434 25.68C5.3525 25.68 5.3579 25.9095 5.3552 26.19ZM5.5597 25.9786C5.623 25.8427 5.634 25.834 5.6368 25.9176C5.6399 26.0122 5.6419 26.0128 5.6987 25.9376C5.7567 25.861 5.7575 25.8611 5.7596 25.94C5.7616 26.0147 5.7666 26.0137 5.8352 25.9245L5.9086 25.8291L5.9362 25.939C5.9629 26.0453 5.9664 26.0466 6.0419 25.9783C6.0849 25.9394 6.12 25.9278 6.12 25.9525C6.12 25.9773 6.1434 25.9885 6.1719 25.9776C6.2005 25.9666 6.2664 26.003 6.3185 26.0584C6.434 26.1814 6.386 26.3419 6.2214 26.3832C6.1656 26.3972 6.12 26.4275 6.12 26.4505C6.12 26.4736 6.0856 26.4613 6.0436 26.4233C5.9708 26.3574 5.966 26.3582 5.94 26.44C5.914 26.5218 5.9092 26.5226 5.8364 26.4567C5.7638 26.3911 5.76 26.3913 5.76 26.4614C5.76 26.5315 5.757 26.5313 5.7013 26.4576C5.6445 26.3826 5.6424 26.3833 5.638 26.48C5.6341 26.5682 5.6246 26.5612 5.5578 26.42L5.4821 26.26L5.4782 26.4C5.4751 26.5151 5.4683 26.5257 5.44 26.46C5.3961 26.3578 5.3915 26.1281 5.43 25.955L5.46 25.82L5.4729 25.9786L5.4859 26.1372L5.5597 25.9786ZM14.8358 33.7349C14.9192 33.8354 15.2122 33.839 23.4136 33.8419C28.1605 33.8435 31.6069 33.8598 31.6622 33.8808C31.7214 33.9033 31.7663 33.9022 31.7813 33.8778C31.7946 33.8563 31.8232 33.8496 31.8447 33.8629C31.87 33.8785 31.8691 33.9049 31.8423 33.9372C31.8194 33.9648 31.8078 33.9947 31.8164 34.0037C31.8545 34.0433 31.8781 37.029 31.8413 37.1564C31.7152 37.593 32.7615 37.557 19.86 37.5692C7.3601 37.5811 8.3318 37.6002 8.2004 37.3396C8.104 37.1486 8.1236 34.5438 8.2238 34.2281C8.2423 34.1698 8.2348 34.158 8.1943 34.1814C8.1644 34.1987 8.1832 34.1654 8.2361 34.1074C8.2889 34.0494 8.3699 34.0017 8.4161 34.0014C8.9366 33.9986 9.0622 33.9917 9.0981 33.964C9.2098 33.8776 9.521 33.8645 11.9686 33.843C14.4006 33.8217 14.6025 33.8148 14.6672 33.75C14.7515 33.6656 14.7764 33.6634 14.8358 33.7349ZM8.14 33.92C8.1251 33.9441 7.9054 33.9567 7.5876 33.9518L7.06 33.9436L7.6 33.92C7.897 33.907 8.1456 33.8927 8.1524 33.8882C8.1592 33.8837 8.1536 33.898 8.14 33.92ZM34.6689 35.89C34.6601 35.9615 34.6528 35.903 34.6528 35.76C34.6528 35.617 34.6601 35.5585 34.6689 35.63C34.6778 35.7015 34.6778 35.8185 34.6689 35.89Z" fill="#040404"/>
<path fillRule="evenodd" clipRule="evenodd" d="M18.64 2.71906C17.0181 2.79936 17.0243 2.79056 16.9713 5.07126C16.9247 7.07676 16.9756 7.53126 17.3114 8.10696C17.6198 8.63576 18.5729 8.89576 19.7096 8.76116C19.9243 8.73576 20.6407 8.69176 21.3016 8.66336C22.5836 8.60826 22.6127 8.60286 22.7784 8.38566C22.9341 8.18146 22.9748 7.40146 22.9488 5.11736C22.9209 2.66876 22.9855 2.80646 21.8502 2.77746C20.4676 2.74216 19.7679 2.72036 19.52 2.70476C19.377 2.69576 18.981 2.70216 18.64 2.71906ZM20.98 2.91586C21.552 2.93676 22.1131 2.95516 22.2269 2.95686C22.4578 2.96036 22.6537 3.08566 22.7263 3.27646C22.7716 3.39536 22.7842 7.52176 22.7404 7.89996C22.6814 8.40986 22.6035 8.44896 21.6072 8.46786C20.8253 8.48276 20.5766 8.50396 19.8319 8.61936C18.9315 8.75886 17.9189 8.59316 17.5475 8.24556C17.1873 7.90836 16.9766 6.71886 17.0928 5.67946C17.1236 5.40476 17.1403 4.99946 17.1301 4.77896C17.1056 4.25196 17.2122 3.35436 17.3201 3.17986C17.4394 2.98676 17.5899 2.94206 18.38 2.86476C18.5774 2.84546 19.6054 2.86566 20.98 2.91586ZM5.92808 17.0051C5.48718 17.2234 5.47998 17.2648 5.47998 19.5744C5.47998 22.3281 5.53988 22.7839 5.91998 22.9241C6.15488 23.0106 6.88628 23.08 7.56458 23.08C8.10208 23.08 8.10558 23.0806 8.20998 23.19L8.31488 23.3L8.33358 25.78C8.35868 29.1054 8.19198 28.7732 9.84538 28.7937L10.9507 28.8074L11.0946 28.9259L11.2384 29.0445L11.213 29.9751L11.1876 30.9057L11.289 31.1271C11.3931 31.3546 11.553 31.505 11.79 31.5985C11.891 31.6383 12.23 31.6446 13.31 31.6268C15.0122 31.5987 18.1421 31.5737 23.82 31.5426C28.632 31.5163 28.2164 31.5379 28.4333 31.3027C28.6593 31.0575 28.6795 30.9434 28.6798 29.9134L28.68 29.0068L28.8629 28.8458L29.0457 28.6849L30.0729 28.6724C31.6616 28.6532 31.497 28.9824 31.5112 25.7959L31.5223 23.2777L31.6812 23.1188L31.84 22.96H32.7927C34.5102 22.96 34.3679 23.2266 34.3799 19.9859L34.3889 17.5517L34.2628 17.3863C33.9756 17.0098 33.7245 16.9698 32.4902 17.1043C31.8958 17.1691 31.7573 17.2083 31.631 17.3479C31.4544 17.543 31.32 18.2924 31.32 19.0824V19.5907L31.1644 19.7313C30.9863 19.8921 30.8617 19.9082 29.6195 19.9307C28.5173 19.9507 28.5085 19.9621 28.4864 21.4058L28.4706 22.4337L28.3091 22.5968L28.1475 22.76H27.1569H26.1662L26.0254 22.5955L25.8846 22.4309L25.8723 21.3255C25.855 19.767 25.9632 19.876 24.4 19.8426C22.9025 19.8107 23.0009 19.9073 22.9977 18.4646C22.9951 17.2593 22.9804 17.1793 22.7404 17.0621C22.57 16.979 21.9636 16.9627 18.5152 16.9489C16.8185 16.9421 16.9412 16.8278 16.9371 18.4183L16.9341 19.54L16.8127 19.67L16.6913 19.8H15.6044C13.9966 19.8 14.1049 19.6959 14.0875 21.2581L14.0749 22.38L13.9496 22.51L13.8243 22.64H12.86H11.8957L11.7678 22.5081L11.64 22.3762V21.8089C11.64 21.0588 11.568 20.8198 11.2427 20.4892C10.6268 19.8632 10.4859 19.8008 9.60608 19.765L8.99218 19.74L8.89978 19.624C8.81598 19.5188 8.80568 19.4573 8.78938 18.964C8.76468 18.2183 8.63868 17.9075 8.27938 17.7054L8.13998 17.627L8.28788 17.7835C8.59288 18.1062 8.69628 18.5086 8.71738 19.4547C8.71918 19.5325 8.76998 19.6194 8.87528 19.7247L9.03058 19.88H9.56898C10.9167 19.88 11.5577 20.5461 11.5594 21.9483L11.56 22.4366L11.7138 22.5983L11.8676 22.76H12.8591H13.8505L14.0253 22.5853L14.2 22.4105L14.2009 21.3953C14.2022 19.8495 14.1325 19.92 15.661 19.92H16.6847L16.8685 19.7463L17.0524 19.5725L17.0436 18.568C17.0284 16.8541 16.6 17.005 21.1819 17.1098C22.9855 17.151 22.8513 17.0375 22.88 18.5456L22.9 19.595L23.02 19.7211C23.2361 19.9481 23.2726 19.9554 24.3384 19.9852C25.7942 20.0259 25.7262 19.9571 25.7262 21.3869C25.7262 22.4924 25.7263 22.4931 26.0127 22.79L26.1767 22.96H27.1415H28.1063L28.2831 22.8416C28.6372 22.6045 28.6424 22.5855 28.6545 21.4642C28.6697 20.0684 28.6104 20.1294 29.9892 20.0929C31.0884 20.0638 31.1416 20.0499 31.3881 19.7267L31.52 19.5538L31.5202 18.9469C31.5206 17.3198 31.5178 17.3223 33.39 17.2145L33.84 17.1886L34.0455 17.3941L34.251 17.5996L34.2231 17.9801C34.2077 18.1894 34.2007 18.905 34.2076 19.5703C34.2431 23.0292 34.3549 22.76 32.8824 22.76H31.8957L31.7141 22.8751C31.6142 22.9385 31.49 23.0591 31.438 23.1432L31.3435 23.2961L31.352 25.7284L31.3604 28.1607L31.2257 28.3077C31.0581 28.4906 30.8891 28.515 29.7691 28.5179C28.8993 28.5203 28.8108 28.5469 28.5832 28.8753L28.48 29.0243V29.9774C28.48 30.8635 28.4743 30.9397 28.3993 31.0611C28.2139 31.3612 28.525 31.3387 24.46 31.3461C22.2903 31.3501 20.4726 31.3718 19.96 31.3997C19.487 31.4254 18.056 31.4522 16.78 31.4592C15.504 31.4661 13.8888 31.4846 13.1906 31.5001L11.9213 31.5284L11.7375 31.4207C11.6306 31.358 11.5033 31.2351 11.433 31.1265L11.3121 30.94L11.3384 30.0066C11.3762 28.6684 11.4353 28.7231 9.90768 28.6836C8.30928 28.6424 8.46568 28.9582 8.44798 25.7355L8.43458 23.2909L8.27978 23.1398L8.12498 22.9887L7.31248 22.9569C5.52298 22.887 5.60208 23.0433 5.60078 19.5731L5.59998 17.5262L5.73058 17.3531C6.11788 16.8396 7.39548 16.8782 7.93698 17.4197C8.08158 17.5642 8.08478 17.5654 8.02558 17.4508C7.78098 16.9777 6.52338 16.7105 5.92808 17.0051ZM9.71478 34.0989C9.32658 34.1973 9.05418 34.3855 8.70888 34.7939C8.15518 35.4489 8.16868 36.913 8.73158 37.2565L8.92318 37.3735L11.0716 37.3647C12.2532 37.3599 13.967 37.3393 14.88 37.3189C15.793 37.2985 17.782 37.2931 19.3 37.3068C21.3223 37.325 22.2418 37.3184 22.74 37.2821C23.2154 37.2474 24.5492 37.2335 27.1726 37.2358C31.4207 37.2394 31.0745 37.2661 31.378 36.9115L31.5246 36.7403L31.5123 35.653C31.5007 34.628 31.4953 34.5592 31.4174 34.4528C31.2202 34.1833 31.4708 34.199 27.0942 34.1823C21.8707 34.1623 12.6487 34.0947 11.14 34.0653C10.1732 34.0464 9.89618 34.053 9.71478 34.0989ZM14.3875 34.2422C14.6996 34.263 16.6706 34.2801 18.7675 34.2803C21.0735 34.2805 22.7194 34.2966 22.9327 34.3211C23.1434 34.3452 24.8347 34.3634 27.1327 34.3662C31.3462 34.3714 31.118 34.3578 31.2761 34.6138C31.3553 34.7418 31.36 34.8043 31.36 35.7216V36.6937L31.186 36.8605L31.0119 37.0272L29.976 37.0501C29.4062 37.0626 28.067 37.0671 27 37.0599C25.933 37.0527 24.547 37.0663 23.92 37.0901C23.293 37.1139 20.908 37.1448 18.62 37.1589C16.332 37.173 13.2428 37.2076 11.7551 37.2357C9.08288 37.2862 9.04818 37.2858 8.89508 37.2073C8.52858 37.0194 8.43988 36.8211 8.44048 36.192C8.44148 35.1181 8.80868 34.5271 9.65698 34.234C9.88268 34.1561 13.1801 34.1618 14.3875 34.2422Z" fill="#2DE2E6"/>
</g>
<defs>
<clipPath id="clip0_4_352">
<rect width="40" height="40" fill="white"/>
</clipPath>
</defs>
</svg>