<svg xmlns="http://www.w3.org/2000/svg" width="40" height="40" viewBox="0 0 40 40" fill="none">
<path fillRule="evenodd" clipRule="evenodd" d="M17.4304 3.1166L17.2998 3.2333L17.2717 4.3466C17.17 8.3597 17.1672 8.2926 17.4384 8.4528C17.6444 8.5744 19.5488 8.5506 20.0638 8.42C20.4303 8.327 20.5255 8.32 21.4214 8.32H22.3848L22.4923 8.2078L22.5998 8.0956V5.7133V3.3309L22.4944 3.2255L22.389 3.12H21.4209C20.7657 3.12 20.3247 3.1007 20.0563 3.0602C19.7819 3.0189 19.3367 3.0004 18.6104 3.0002L17.5612 3L17.4304 3.1166ZM19.6798 4.2821V5.2442L19.7808 5.3921C20.0249 5.7494 20.0798 6.0697 20.0798 7.1359V8.1077L19.7833 8.1938C19.3293 8.3257 17.673 8.3251 17.5325 8.193C17.4019 8.0703 17.3942 6.5208 17.5202 5.7044C17.5827 5.2998 17.5998 4.9878 17.5998 4.2544V3.32H18.6398H19.6798V4.2821ZM8.45985 11.5215C8.32785 11.5379 7.76295 11.5533 7.20455 11.5557C6.11905 11.5603 5.99615 11.5823 5.89385 11.7908C5.78135 12.0198 5.71565 22.346 5.82525 22.5531C5.95165 22.7917 5.99865 22.8 7.21965 22.8H8.32345L8.42165 22.7018L8.51985 22.6036L8.52025 21.5518C8.52075 20.301 8.58155 20.0189 8.92915 19.653L9.04975 19.526L8.88015 19.5691C8.37545 19.6972 8.27985 19.9823 8.27985 21.3603C8.27985 22.6917 8.40575 22.56 7.13345 22.56C6.25305 22.56 6.16665 22.5539 6.10605 22.4869C6.01105 22.3819 6.00485 14.7949 6.09935 14.22C6.14005 13.9721 6.15865 13.5516 6.15915 12.87L6.15985 11.88H7.11425C7.86755 11.88 8.17735 11.8632 8.58425 11.8004C9.34675 11.6827 13.7882 11.6767 13.8937 11.7931C13.9909 11.9005 13.9938 13.8003 13.8969 13.8971C13.8433 13.9507 13.695 13.96 12.8896 13.96C11.7441 13.96 11.3842 14.0268 11.168 14.2794C11.12 14.3355 10.9598 14.6631 10.9598 14.7051C10.9598 14.7153 11.0427 14.6605 11.1438 14.5832C11.5297 14.2886 11.6544 14.2634 12.8398 14.2405C14.3271 14.2117 14.2395 14.2977 14.2397 12.868C14.24 11.3191 14.5785 11.4785 11.3044 11.4859C9.87195 11.4891 8.59185 11.5052 8.45985 11.5215ZM26.0626 11.6379C25.8511 11.7773 25.8428 11.8222 25.8412 12.844C25.8391 14.2479 25.7157 14.1334 27.2598 14.16C28.6371 14.1837 28.7945 14.2223 28.9671 14.5775L29.0557 14.76H30.0078H30.9599V17.1414V19.5228L31.1298 19.5996C31.6181 19.8199 31.6545 19.9329 31.6709 21.28L31.6845 22.38L31.7897 22.49L31.8949 22.6H32.8604C33.818 22.6 33.8267 22.5992 33.9129 22.5074L33.9999 22.4148V17.1303V11.8458L33.8945 11.7629C33.7906 11.6811 33.7558 11.68 31.3644 11.6787C29.4634 11.6777 28.8534 11.6649 28.5398 11.6195C27.8861 11.5248 26.2153 11.5372 26.0626 11.6379ZM28.2306 12.8372C28.239 13.5602 28.2297 13.7817 28.1906 13.8066C28.1626 13.8243 27.6943 13.8391 27.1498 13.8394L26.1598 13.84V12.8593V11.8786L27.1898 11.8893L28.2199 11.9L28.2306 12.8372ZM23.1558 14.4108C22.8878 14.5899 22.8754 14.6547 22.8883 15.82C22.9038 17.2221 22.774 17.0924 24.1798 17.11C25.7281 17.1294 25.6798 17.1743 25.6798 15.7128C25.6798 14.5787 25.6604 14.4779 25.4226 14.3786C25.1603 14.269 23.3291 14.295 23.1558 14.4108ZM25.3267 14.6662C25.433 14.7624 25.4392 16.6502 25.3336 16.7669C25.2273 16.8844 23.358 16.8782 23.2398 16.76C23.1273 16.6475 23.1151 14.7957 23.226 14.6731C23.3222 14.5668 25.21 14.5606 25.3267 14.6662ZM17.4303 17.2626C17.2162 17.3788 17.1999 17.4674 17.1999 18.5108C17.1999 19.671 17.1389 19.9478 16.7974 20.3367L16.6754 20.4757L16.79 20.4428C17.3584 20.2798 17.4398 20.0547 17.4398 18.6456C17.4398 17.6189 17.4403 17.6135 17.5325 17.527L17.625 17.44H20.0054H22.3859L22.4728 17.5326C22.5584 17.6236 22.5598 17.6462 22.5599 18.9026C22.5601 20.4165 22.5585 20.4095 22.9256 20.4536C23.3247 20.5015 23.3294 20.4991 23.1612 20.33C22.8584 20.0254 22.8249 19.8558 22.8084 18.54C22.7944 17.4274 22.7904 17.3763 22.7099 17.29L22.6259 17.2L20.0828 17.2016C17.9115 17.203 17.5238 17.2119 17.4303 17.2626ZM16.7868 22.485C17.1114 22.8393 17.1989 23.2222 17.1995 24.2913C17.2 25.3252 17.1687 25.4535 16.8513 25.7181L16.6999 25.8444L15.5198 25.8224C14.8708 25.8103 13.8089 25.7909 13.1599 25.7794C11.8102 25.7554 11.8482 25.7601 11.6585 25.5935C11.4042 25.3702 11.3998 25.3476 11.3998 24.2679C11.3998 22.8295 11.4462 22.8721 9.89795 22.8888C8.71355 22.9015 8.67155 22.9114 8.62595 23.1872C8.56865 23.5344 8.59695 28.0757 8.65745 28.2204C8.77445 28.5004 8.85775 28.5197 9.95185 28.5199C11.0176 28.52 11.037 28.5237 11.265 28.7666C11.4774 28.9929 11.4799 29.0074 11.4799 30.0431V31.0114L11.6741 31.2057L11.8684 31.4L14.2642 31.3992C16.0869 31.3986 16.7889 31.3844 17.1999 31.34C17.6104 31.2956 18.32 31.2812 20.1599 31.2801C22.0789 31.2789 22.6586 31.2664 22.9599 31.22C23.2612 31.1736 23.8325 31.1613 25.7176 31.1607L28.0954 31.16L28.2076 31.0525L28.3199 30.945L28.3208 29.9425C28.3222 28.3426 28.3448 28.32 29.9527 28.32H30.9481L31.054 28.2219L31.1598 28.1238V25.7089V23.2939L31.0673 23.207C30.9268 23.075 29.1122 23.0715 28.9452 23.2029L28.8398 23.2858V24.2683C28.8398 25.5551 28.78 25.7369 28.2975 25.9174C27.9818 26.0356 26.5931 26.037 25.7998 25.92C25.3723 25.857 25.0501 25.8403 24.253 25.8402L23.246 25.84L23.0731 25.7081C22.7341 25.4495 22.7212 25.3975 22.7205 24.2828C22.7197 23.1129 22.7603 22.9237 23.0849 22.587L23.2732 22.3916L22.9666 22.4148C22.7978 22.4275 22.6351 22.4414 22.605 22.4457C22.4357 22.4694 22.3129 25.196 22.4517 25.8503C22.5119 26.1345 22.5269 26.1374 24.018 26.16L25.3398 26.18L25.3505 27.136C25.3645 28.369 25.4941 28.24 24.2409 28.24C22.5407 28.24 22.5198 28.261 22.5198 29.9664V30.96L20.1098 30.9608C17.899 30.9616 17.6601 30.9682 17.2198 31.0408C16.7788 31.1135 16.5429 31.12 14.3168 31.12H11.8938L11.8068 31.0274C11.7223 30.9375 11.7198 30.9063 11.7198 29.9421C11.7198 28.287 11.7129 28.28 10.0522 28.28C9.06025 28.28 9.05325 28.2794 8.96685 28.1874L8.87985 28.0948V25.7074C8.87985 23.3733 8.88165 23.3182 8.95985 23.24C9.03545 23.1644 9.09315 23.16 9.99985 23.16C11.2453 23.16 11.1198 23.033 11.1198 24.2927C11.1198 25.9993 11.163 26.04 12.9771 26.0401C13.7248 26.0401 14.1161 26.0571 14.3599 26.1C14.9048 26.196 16.6943 26.1853 16.9291 26.0846C17.3875 25.8881 17.448 25.6601 17.4321 24.1919L17.4198 23.06L17.3107 22.8379C17.2021 22.6167 17.0526 22.4943 16.7998 22.4196L16.6999 22.3901L16.7868 22.485ZM8.88395 34.395C8.62245 34.5358 8.60345 34.6235 8.60155 35.6978L8.59985 36.6557L8.70545 36.808C8.93455 37.1387 8.77325 37.1201 11.4045 37.1192C13.1743 37.1186 13.8707 37.1043 14.2799 37.06C14.7143 37.013 15.5741 37.0014 18.6798 37.0006C21.8967 36.9997 22.6059 36.9896 22.9363 36.9398C23.267 36.8899 23.9671 36.88 27.1483 36.88H30.9636L31.0617 36.7742L31.1598 36.6683V35.7011C31.1598 34.7419 31.159 34.7332 31.0673 34.647L30.9746 34.56L27.1572 34.5592C23.7927 34.5585 23.2995 34.5506 22.9998 34.4931C22.7062 34.4366 22.0781 34.423 18.3998 34.3934C8.51095 34.3136 9.03525 34.3135 8.88395 34.395ZM14.2963 34.6602C14.6268 34.71 15.33 34.7201 18.5163 34.7205C20.6192 34.7208 22.3804 34.7319 22.4298 34.7452L22.5198 34.7693V35.7247V36.68L18.6498 36.6821C15.2697 36.6839 14.7418 36.6923 14.4798 36.7478C14.2289 36.8011 13.7628 36.8141 11.6247 36.8279L9.06965 36.8444L8.97475 36.7552C8.84875 36.6368 8.82345 34.8086 8.94605 34.6731C9.03755 34.572 13.6372 34.5609 14.2963 34.6602Z" fill="#920075"/>
<path fillRule="evenodd" clipRule="evenodd" d="M17.5999 4.25435C17.5999 4.98775 17.5828 5.29975 17.5203 5.70435C17.3943 6.52075 17.4019 8.07025 17.5325 8.19295C17.6731 8.32505 19.3294 8.32565 19.7834 8.19375L20.0799 8.10765V7.13585C20.0799 6.06965 20.025 5.74935 19.7809 5.39205L19.6799 5.24415V4.28205V3.31995H18.6399H17.5999V4.25435ZM8.55989 11.8024C8.20519 11.8598 7.87789 11.8772 7.12989 11.8784L6.15989 11.8799L6.15919 12.8699C6.15869 13.5515 6.14009 13.972 6.09939 14.2199C5.99909 14.8298 6.01169 22.402 6.11299 22.4937C6.17679 22.5514 6.30899 22.5599 7.14609 22.5599C8.40389 22.5599 8.27989 22.6917 8.27989 21.3546C8.27989 19.9947 8.38089 19.688 8.86659 19.5732L9.01989 19.5369L9.03019 17.1484L9.04049 14.7599H9.99229H10.9441L11.0137 14.5699C11.2031 14.0527 11.4885 13.9599 12.8896 13.9599C13.695 13.9599 13.8434 13.9506 13.897 13.897C13.9997 13.7944 13.9904 11.8799 13.8868 11.7861C13.7702 11.6806 9.22709 11.6945 8.55989 11.8024ZM26.1599 12.8592V13.8399L27.1499 13.8393C27.6944 13.839 28.1627 13.8242 28.1907 13.8065C28.2298 13.7816 28.239 13.5601 28.2307 12.8371L28.2199 11.8999L27.1899 11.8892L26.1599 11.8785V12.8592ZM23.2261 14.673C23.1152 14.7956 23.1274 16.6474 23.2399 16.7599C23.3581 16.8781 25.2274 16.8843 25.3337 16.7668C25.4393 16.6501 25.4331 14.7623 25.3268 14.6661C25.2101 14.5605 23.3223 14.5667 23.2261 14.673ZM17.5293 17.5299C17.4481 17.6163 17.4442 17.6641 17.4323 18.7199C17.4169 20.0858 17.3632 20.2445 16.8576 20.4182L16.6999 20.4724L16.6892 21.4362C16.6805 22.2137 16.6887 22.3999 16.7313 22.3999C16.9173 22.3999 17.1999 22.6119 17.3083 22.8327L17.4199 23.0599L17.4322 24.1918C17.4481 25.66 17.3876 25.888 16.9292 26.0845C16.6943 26.1852 14.9048 26.1959 14.3599 26.0999C14.1161 26.057 13.7249 26.04 12.9772 26.04C11.1631 26.0399 11.1199 25.9992 11.1199 24.2926C11.1199 23.0329 11.2454 23.1599 9.99989 23.1599C9.09319 23.1599 9.03549 23.1643 8.95989 23.2399C8.88169 23.3181 8.87989 23.3732 8.87989 25.7129V28.106L8.97249 28.1929C9.06239 28.2774 9.09359 28.2799 10.0578 28.2799C11.7129 28.2799 11.7199 28.2869 11.7199 29.9476C11.7199 30.9395 11.7205 30.9465 11.8125 31.0329L11.9051 31.1199H14.3225C16.543 31.1199 16.779 31.1134 17.2199 31.0407C17.6602 30.9681 17.8991 30.9615 20.1099 30.9607L22.5199 30.9599V29.9663C22.5199 28.2609 22.5408 28.2399 24.241 28.2399C25.4942 28.2399 25.3645 28.3689 25.3506 27.1359L25.3399 26.1799L24.018 26.1599C22.527 26.1373 22.512 26.1344 22.4518 25.8502C22.313 25.1959 22.4358 22.4698 22.6051 22.4453C22.6352 22.4409 22.8084 22.427 22.9899 22.4144L23.3199 22.3914V21.4404V20.4893L23.0171 20.4609C22.5449 20.4167 22.5602 20.4692 22.56 18.8969L22.5599 17.6138L22.4673 17.5269L22.3747 17.4399H19.9943H17.6138L17.5293 17.5299ZM8.94609 34.673C8.82349 34.8085 8.84879 36.6367 8.97479 36.7551L9.06969 36.8443L11.6248 36.8278C13.7629 36.814 14.2289 36.801 14.4799 36.7477C14.7419 36.6922 15.2698 36.6838 18.6499 36.682L22.5199 36.6799V35.7246V34.7692L22.4299 34.7451C22.3804 34.7318 20.6193 34.7207 18.5164 34.7204C15.3301 34.72 14.6269 34.7099 14.2964 34.6601C13.6373 34.5608 9.03759 34.5719 8.94609 34.673Z" fill="#2DE2E6"/>
<path fillRule="evenodd" clipRule="evenodd" d="M16.6799 1.2V2.4H15.2646H13.8492L13.8251 2.49C13.8118 2.5395 13.8007 3.8175 13.8004 5.33L13.7999 8.08L9.78992 8.0847C7.58442 8.0872 5.66292 8.1007 5.51992 8.1147L5.25992 8.14L5.24942 9.5495L5.23892 10.959L3.82942 10.9695L2.41992 10.98V17.14V23.3L3.82992 23.3105L5.23992 23.321V26.1325C5.23992 28.2659 5.25152 28.9556 5.28792 28.992C5.32342 29.0275 5.69412 29.04 6.70792 29.04H8.07992V31.42V33.8H6.76252C6.00332 33.8 5.40162 33.8165 5.34252 33.839L5.23992 33.878V36.939V40H19.9999H34.7599V36.939V33.878L34.6573 33.839C34.5982 33.8165 33.9965 33.8 33.2373 33.8H31.9199V31.42V29.04H33.2919C34.3057 29.04 34.6764 29.0275 34.7119 28.992C34.7483 28.9556 34.7599 28.2659 34.7599 26.1325V23.321L36.1699 23.3105L37.5799 23.3V17.14V10.98L36.1704 10.9695L34.7609 10.959L34.7504 9.5495L34.7399 8.14L34.4799 8.1147C34.3369 8.1007 32.4154 8.0872 30.2099 8.0847L26.1999 8.08L26.1994 5.33C26.1991 3.8175 26.188 2.5395 26.1747 2.49L26.1506 2.4H24.7352H23.3199V1.2V0H19.9999H16.6799V1.2ZM21.0399 2.6748C22.7595 2.7046 22.8104 2.7127 22.9368 2.9791C23.0314 3.1785 23.0323 8.1975 22.9377 8.4338C22.8358 8.6884 22.7983 8.6959 21.4799 8.7232C20.8309 8.7367 20.0851 8.7704 19.8226 8.7981C19.1569 8.8683 17.3073 8.8409 17.1403 8.7584C16.8928 8.6361 16.8989 8.7107 16.9098 5.94C16.9225 2.6953 16.9138 2.7692 17.2964 2.6777C17.45 2.641 19.0173 2.6398 21.0399 2.6748ZM16.6799 10V10.96H15.7199H14.7599V10V9.04H15.7199H16.6799V10ZM25.2399 10V10.96H24.2799H23.3199V10V9.04H24.2799H25.2399V10ZM14.3056 11.2488C14.5099 11.3606 14.5302 11.4751 14.5502 12.6274C14.5701 13.7675 14.5289 14.2889 14.4095 14.4081C14.2997 14.5178 13.8656 14.5583 12.7925 14.5592C11.8233 14.56 11.498 14.5915 11.0894 14.7242L10.9589 14.7665L10.9694 16.1733L10.9799 17.58L12.3884 17.5905L13.7969 17.601L13.8084 19.002C13.8182 20.1952 13.8288 20.4086 13.8799 20.4409C13.9509 20.4857 16.6794 20.4946 16.6808 20.45C16.6814 20.4335 16.7202 20.285 16.7671 20.12C16.8434 19.8518 16.855 19.6821 16.8764 18.52C16.902 17.1335 16.9066 17.103 17.1095 16.97C17.208 16.9054 17.4194 16.8991 19.8263 16.8886L22.4363 16.8773L22.5181 16.7732C22.5957 16.6745 22.5999 16.6163 22.5999 15.6366C22.5999 13.9389 22.4811 14.0672 24.078 14.0396C25.627 14.0128 25.4799 14.1349 25.4799 12.8759C25.4799 11.1032 25.3964 11.1731 27.4599 11.2189C28.1419 11.234 29.9149 11.2585 31.3999 11.2732L34.0999 11.3L34.2289 11.392C34.4475 11.5479 34.4418 11.3843 34.4305 17.2264C34.4201 22.5426 34.4182 22.6625 34.3417 22.7755C34.2004 22.9842 34.1021 23 32.9418 23H31.8812L31.7505 23.1167L31.6199 23.2334L31.5999 25.7867C31.5783 28.5425 31.5835 28.4801 31.3637 28.6294C31.2719 28.6919 31.1316 28.7014 30.1476 28.7123L29.0352 28.7247L28.8776 28.8823L28.7199 29.04V30.0216C28.7199 31.2257 28.6116 31.4997 28.1052 31.5774C27.6614 31.6454 11.8796 31.6907 11.7061 31.6245C11.2281 31.4419 11.1599 31.2367 11.1599 29.9798C11.1599 28.7165 11.3168 28.851 9.81992 28.8315C8.95552 28.8203 8.63242 28.8028 8.55212 28.7628C8.32042 28.6475 8.31992 28.6411 8.31992 25.8636C8.31992 23.4285 8.31692 23.3251 8.24352 23.2344L8.16712 23.14L6.99352 23.1198C5.70732 23.0977 5.63382 23.0847 5.52032 22.8596C5.43992 22.7003 5.43722 12.1981 5.51752 11.7371C5.56782 11.4479 5.63212 11.3407 5.79992 11.2667C6.05822 11.1527 14.0992 11.1358 14.3056 11.2488ZM22.3999 12.86V13.8H19.9999H17.5999V12.86V11.92H19.9999H22.3999V12.86ZM26.0836 14.5963C25.9651 14.7148 25.9616 14.7514 25.9502 15.9819C25.9362 17.5085 26.0576 17.4 24.3633 17.4C23.3792 17.4 23.3257 17.4039 23.2253 17.4829L23.1199 17.5658L23.1202 18.5529C23.1205 19.5338 23.1486 19.8678 23.2649 20.27L23.3256 20.48L24.6927 20.4794C25.4836 20.479 26.0852 20.4628 26.1199 20.4409C26.171 20.4086 26.1816 20.1952 26.1914 19.002L26.2029 17.601L27.6114 17.5905L29.0199 17.58V16.16V14.74L28.7399 14.6409C28.3325 14.4967 26.2187 14.4612 26.0836 14.5963ZM16.6799 15.72V16.68H15.7199H14.7599V15.72V14.76H15.7199H16.6799V15.72ZM9.00282 19.67C8.86062 20.2009 8.83992 20.4224 8.83992 21.4156C8.83992 22.7337 8.67702 22.591 10.1999 22.6073C11.802 22.6245 11.6528 22.4746 11.6799 24.0936C11.6994 25.2562 11.7021 25.289 11.7862 25.3571C11.8761 25.4298 13.5419 25.48 15.8637 25.48H16.7145L16.7972 25.3638C16.8754 25.254 16.8799 25.1943 16.8799 24.2664C16.8799 23.3039 16.8585 23.078 16.717 22.55L16.6768 22.4H14.3029H11.9289L11.9139 20.9982C11.9012 19.8124 11.8897 19.5907 11.8394 19.5588C11.8053 19.5373 11.196 19.521 10.4114 19.5206L9.04302 19.52L9.00282 19.67ZM28.1604 19.5588C28.1101 19.5907 28.0986 19.8124 28.0859 20.9982L28.0709 22.4H25.6986H23.3263L23.265 22.59C23.0944 23.1191 23.0799 23.2504 23.0799 24.2683V25.265L23.1899 25.3686L23.2999 25.4721L24.4799 25.4965C25.1289 25.5099 26.2089 25.5313 26.8799 25.5441L28.0999 25.5672L28.247 25.4136L28.3942 25.26L28.4073 24.18C28.4262 22.6179 28.3395 22.7057 29.8799 22.6894C31.4042 22.6732 31.2795 22.783 31.2798 21.4564C31.2799 20.4693 31.2421 20.1989 31.0374 19.723L30.95 19.52L29.585 19.5206C28.8026 19.521 28.1945 19.5373 28.1604 19.5588ZM25.9999 34.1153C31.9261 34.1436 31.3922 34.1063 31.5281 34.5015C31.6329 34.806 31.6307 36.5884 31.5253 36.8203C31.4331 37.0233 31.2054 37.2248 31.0106 37.2759C30.9153 37.3008 26.8401 37.3318 19.9248 37.3602L8.98972 37.405L8.76482 37.2925C8.57382 37.197 8.52302 37.1468 8.42792 36.96L8.31582 36.74L8.32792 35.5381C8.34122 34.2017 8.34882 34.1626 8.61012 34.0823C8.73612 34.0436 12.3804 34.0505 25.9999 34.1153Z" fill="#040404"/>
<path fillRule="evenodd" clipRule="evenodd" d="M17.3057 2.72106C16.9685 2.82216 16.9702 2.80796 16.9426 5.77996C16.9169 8.55626 16.9155 8.53496 17.1328 8.69626C17.2735 8.80056 19.2666 8.84296 19.9297 8.75576C20.1334 8.72896 20.822 8.69636 21.46 8.68346C23.1449 8.64936 22.9597 9.01456 22.9599 5.72596C22.96 2.85226 22.9695 2.95296 22.6869 2.81386C22.4786 2.71126 17.618 2.62746 17.3057 2.72106ZM20.0565 3.06016C20.3249 3.10066 20.7659 3.11996 21.4211 3.11996H22.3891L22.4945 3.22546L22.6 3.33086V5.71326V8.09556L22.4925 8.20776L22.385 8.31996H21.4216C20.5257 8.31996 20.4305 8.32696 20.064 8.41996C19.549 8.55056 17.6445 8.57436 17.4386 8.45276C17.1673 8.29256 17.1701 8.35966 17.2718 4.34656L17.3 3.23326L17.4306 3.11656L17.5613 2.99996L18.6106 3.00016C19.3369 3.00036 19.7821 3.01886 20.0565 3.06016ZM7.23289 11.2373C5.73969 11.2625 5.74289 11.2619 5.60159 11.5436C5.51879 11.7088 5.47569 14.6327 5.48929 19.16L5.49999 22.74L5.59169 22.8686C5.72839 23.0602 5.86189 23.0795 7.05399 23.0798L8.12789 23.08L8.24399 23.2042L8.35999 23.3285V25.8583C8.35999 27.559 8.37409 28.4285 8.40299 28.5114C8.49289 28.7694 8.53479 28.7779 9.82899 28.8C11.3377 28.8258 11.1738 28.6755 11.2 30.0577L11.22 31.1134L11.3417 31.2863C11.5868 31.6349 11.6039 31.6385 13.04 31.6403C16.9797 31.6455 28.0702 31.5486 28.1778 31.5081C28.6269 31.3392 28.68 31.182 28.68 30.0204V29.0369L28.837 28.8685L28.9941 28.7L30.1163 28.68L31.2386 28.66L31.3638 28.5347C31.5512 28.3473 31.5564 28.2703 31.5583 25.6589C31.5602 23.0244 31.5486 23.15 31.8004 23.0198C31.8941 22.9713 32.109 22.96 32.9331 22.96C34.1035 22.96 34.1856 22.9435 34.3193 22.6813C34.4432 22.4385 34.4467 11.8483 34.323 11.6058C34.1667 11.2994 34.2082 11.3014 27.1529 11.2663C25.422 11.2577 25.5462 11.1431 25.5267 12.7668C25.5099 14.1742 25.6761 14.0136 24.2059 14.0425C22.5262 14.0755 22.64 13.964 22.64 15.5765V16.6755L22.5435 16.7878L22.447 16.9L19.8535 16.92C17.0563 16.9416 17.105 16.9376 16.9955 17.1544C16.9563 17.2321 16.9357 17.5875 16.9177 18.5C16.8928 19.7658 16.8792 19.8808 16.6958 20.38C16.6462 20.5151 16.8284 20.334 16.9488 20.1286C17.1696 19.7519 17.2 19.5563 17.2 18.5144C17.2 17.0487 16.8672 17.2 20.091 17.2H22.6261L22.71 17.29C22.7906 17.3763 22.7946 17.4274 22.8086 18.54C22.8248 19.8279 22.8544 19.9914 23.1282 20.3033C23.306 20.5057 23.3186 20.4745 23.2066 20.11C23.111 19.7986 23.1044 19.7186 23.0893 18.6903L23.0733 17.6005L23.1936 17.4803L23.3138 17.36H24.4182C26.0369 17.36 25.9245 17.4743 25.9575 15.7941C25.9782 14.7415 25.9862 14.6413 26.0562 14.5641C26.2396 14.3617 28.4595 14.4643 28.9253 14.6967C29.0622 14.7649 29.0629 14.7617 28.9575 14.555C28.7885 14.2239 28.6145 14.1834 27.26 14.16C25.7159 14.1334 25.8393 14.2479 25.8414 12.844C25.8435 11.4898 25.771 11.5603 27.16 11.561C27.8024 11.5614 28.2778 11.5815 28.54 11.6195C28.8536 11.6649 29.4636 11.6777 31.3646 11.6787C33.756 11.68 33.7907 11.6811 33.8946 11.7629L34 11.8458V17.1359V22.4261L33.9074 22.513C33.8177 22.5973 33.7854 22.6 32.8549 22.6H31.895L31.7898 22.49L31.6846 22.38L31.6711 21.28C31.6546 19.932 31.6159 19.8147 31.1136 19.5915L30.9595 19.5231L31.0212 19.6423C31.2663 20.1163 31.32 20.4371 31.32 21.4276C31.32 22.8078 31.4176 22.7144 29.96 22.7292C28.3904 22.7452 28.466 22.67 28.4476 24.2324L28.4351 25.2849L28.2733 25.4467L28.1114 25.6086L26.9057 25.5841C26.2426 25.5706 25.1572 25.5488 24.4937 25.5356L23.2875 25.5115L23.1613 25.3813L23.0351 25.2511L23.0482 24.1956L23.0613 23.14L23.1861 22.771C23.3261 22.357 23.2941 22.3306 23.0284 22.641C22.7614 22.953 22.7199 23.1741 22.7207 24.2828C22.7214 25.3975 22.7343 25.4495 23.0733 25.7081L23.2462 25.84L24.2531 25.8402C25.0502 25.8403 25.3725 25.857 25.8 25.92C26.5933 26.037 27.982 26.0356 28.2977 25.9174C28.7802 25.7369 28.84 25.5551 28.84 24.2683V23.2858L28.9454 23.2029C29.1182 23.067 30.9441 23.0753 31.073 23.2126L31.16 23.3052V25.7145V28.1238L31.0542 28.2219L30.9483 28.32L29.9442 28.3209C28.3426 28.3223 28.32 28.345 28.32 29.9512V30.945L28.2078 31.0525L28.0956 31.16L25.7178 31.1607C23.8326 31.1613 23.2613 31.1736 22.96 31.22C22.6587 31.2664 22.0791 31.2789 20.16 31.2801C18.3201 31.2812 17.6106 31.2956 17.2 31.34C16.7891 31.3844 16.087 31.3986 14.2643 31.3992L11.8686 31.4L11.6743 31.2057L11.48 31.0114V30.0431C11.48 29.0074 11.4776 28.9929 11.2652 28.7666C11.0372 28.5237 11.0178 28.52 9.95199 28.5199C8.85789 28.5197 8.77459 28.5004 8.65759 28.2204C8.59709 28.0757 8.56879 23.5344 8.62609 23.1872C8.67169 22.9114 8.71369 22.9015 9.89809 22.8888C11.4464 22.8721 11.4 22.8295 11.4 24.2679C11.4 25.7884 11.3521 25.7472 13.16 25.7794C13.809 25.7909 14.871 25.8103 15.52 25.8224L16.7 25.8444L16.8514 25.7181C17.1688 25.4535 17.2001 25.3252 17.1996 24.2913C17.1991 23.3149 17.1813 23.1941 16.9786 22.789C16.7668 22.3657 16.6425 22.307 16.7559 22.6839C16.8996 23.1615 16.92 23.3616 16.92 24.2955V25.2271L16.81 25.3761L16.7 25.525L14.3 25.4992L11.9 25.4734L11.77 25.3488L11.64 25.2243L11.6399 24.1222C11.6398 22.5369 11.7506 22.6456 10.1331 22.6423L9.04609 22.64L8.92309 22.5364L8.79999 22.4329L8.80029 21.4264C8.80059 20.4508 8.80409 20.4068 8.91359 19.9893L9.02669 19.5586L8.92939 19.6493C8.87589 19.6992 8.78719 19.8282 8.73229 19.936C8.53489 20.324 8.52089 20.4305 8.52039 21.5518L8.51999 22.6036L8.42179 22.7018L8.32359 22.8H7.21979C5.99879 22.8 5.95179 22.7917 5.82539 22.5531C5.71619 22.3469 5.78139 12.0192 5.89339 11.7924C6.01249 11.551 6.22179 11.5392 11.1132 11.4983C14.6008 11.4691 14.2397 11.3118 14.2397 12.86C14.2397 14.299 14.3282 14.2117 12.84 14.2405C11.6531 14.2634 11.53 14.2884 11.1412 14.5853C10.9002 14.7693 10.9135 14.7741 11.3202 14.6498C11.6455 14.5503 11.713 14.5448 12.9 14.5228C14.6491 14.4902 14.5 14.6451 14.5 12.86C14.5 11.4717 14.4891 11.3966 14.2696 11.2712C14.1707 11.2147 9.81819 11.1938 7.23289 11.2373ZM25.4227 14.3786C25.6606 14.4779 25.68 14.5787 25.68 15.7128C25.68 17.1743 25.7282 17.1294 24.18 17.11C22.7742 17.0924 22.904 17.2221 22.8885 15.82C22.8713 14.2716 22.8262 14.32 24.2872 14.32C25.0706 14.32 25.3124 14.3325 25.4227 14.3786ZM8.83999 34.0772C8.37359 34.1458 8.35999 34.1894 8.35999 35.6203C8.35999 36.9855 8.38409 37.0709 8.83369 37.2983C9.04389 37.4045 30.8644 37.3053 31.0821 37.1971C31.2793 37.0991 31.4739 36.8896 31.5242 36.7214C31.6075 36.4428 31.5542 34.6042 31.458 34.44C31.2935 34.1593 31.9589 34.183 23.36 34.1513C19.081 34.1355 15.085 34.1038 14.48 34.0808C13.3014 34.0359 9.13859 34.0332 8.83999 34.0772ZM18.4 34.3934C22.0782 34.423 22.7064 34.4366 23 34.4931C23.2997 34.5506 23.7929 34.5585 27.1574 34.5592L30.9748 34.56L31.0674 34.647C31.1592 34.7332 31.16 34.7419 31.16 35.7011V36.6683L31.0619 36.7742L30.9638 36.88H27.1484C23.9672 36.88 23.2671 36.8899 22.9365 36.9398C22.6061 36.9896 21.8969 36.9997 18.68 37.0006C15.5743 37.0014 14.7145 37.013 14.28 37.06C13.8708 37.1043 13.1745 37.1186 11.4047 37.1192C8.77339 37.1201 8.93469 37.1387 8.70559 36.808L8.59999 36.6557L8.60169 35.6978C8.60359 34.6235 8.62259 34.5358 8.88409 34.395C9.03539 34.3135 8.51109 34.3136 18.4 34.3934Z" fill="#2DE2E6"/>
<path fillRule="evenodd" clipRule="evenodd" d="M17.38 2.65974C17.358 2.66704 17.2907 2.68394 17.2305 2.69714C17.1038 2.72514 17.0058 2.85714 16.9595 3.06234C16.9187 3.24304 16.9661 3.20294 17.0201 3.01104C17.106 2.70584 17.121 2.70274 18.6128 2.67854L19.94 2.65694L18.68 2.65164C17.987 2.64874 17.402 2.65234 17.38 2.65974ZM21.26 2.71694C22.6921 2.74274 22.7728 2.75764 22.8969 3.01914C23.0071 3.25134 22.9905 8.24954 22.879 8.43244C22.739 8.66194 22.6401 8.67974 21.4913 8.68234C20.9241 8.68364 20.3897 8.69714 20.3038 8.71234C20.2179 8.72754 20.6859 8.73494 21.3438 8.72864C22.7389 8.71524 22.832 8.69824 22.9364 8.43724C23.0322 8.19784 23.0327 3.18104 22.9369 2.97914C22.8105 2.71274 22.7382 2.70044 21.28 2.69694L19.98 2.69384L21.26 2.71694ZM16.9378 4.44004C16.9378 5.11104 16.9432 5.38554 16.9499 5.05004C16.9566 4.71454 16.9566 4.16554 16.9499 3.83004C16.9432 3.49454 16.9378 3.76904 16.9378 4.44004ZM16.8978 7.02004C16.8979 7.72404 16.9033 8.00644 16.9099 7.64754C16.9166 7.28864 16.9166 6.71264 16.9099 6.36754C16.9033 6.02244 16.8978 6.31604 16.8978 7.02004ZM16.9409 8.47994C16.9676 8.65744 17.0627 8.75254 17.2401 8.77894L17.38 8.79974L17.2567 8.76054C17.11 8.71374 17.0092 8.61064 16.9576 8.45434C16.9221 8.34674 16.9211 8.34824 16.9409 8.47994ZM19.8505 8.78874C19.9114 8.79794 20.0014 8.79774 20.0505 8.78824C20.0997 8.77874 20.05 8.77114 19.94 8.77144C19.83 8.77174 19.7897 8.77954 19.8505 8.78874ZM18.0524 8.82994C18.3562 8.83674 18.8422 8.83674 19.1324 8.82994C19.4226 8.82314 19.174 8.81754 18.58 8.81754C17.986 8.81754 17.7486 8.82314 18.0524 8.82994ZM10.0929 11.19C10.815 11.1961 11.985 11.1961 12.6929 11.19C13.4008 11.1839 12.81 11.1789 11.38 11.1789C9.95003 11.1789 9.37083 11.1839 10.0929 11.19ZM5.92363 11.2434C5.51103 11.3244 5.47703 11.4775 5.48813 13.2033L5.49633 14.46L5.51813 13.06C5.54883 11.094 5.38493 11.2682 7.23293 11.2381L8.58003 11.2161L7.34003 11.2124C6.65803 11.2104 6.02063 11.2243 5.92363 11.2434ZM14.06 11.2262C14.104 11.2355 14.1811 11.2519 14.2312 11.2626C14.337 11.2852 14.4775 11.4947 14.4845 11.64C14.4878 11.7085 14.4951 11.7178 14.5076 11.6697C14.5656 11.4477 14.3391 11.1944 14.092 11.2046C14.0132 11.2079 14.0037 11.2143 14.06 11.2262ZM25.9236 11.2434C25.53 11.3207 25.48 11.5057 25.48 12.8856C25.48 13.866 25.4748 13.8982 25.3 13.9938C25.256 14.0179 25.2401 14.0381 25.2646 14.0388C25.2891 14.0395 25.3552 14.0039 25.4113 13.9597L25.5134 13.8794L25.5267 12.7697C25.546 11.1552 25.4304 11.2683 27.0929 11.2379L28.3 11.2158L27.2 11.2123C26.595 11.2103 26.0206 11.2243 25.9236 11.2434ZM28.68 11.2848C28.845 11.2984 30.0999 11.3119 31.4686 11.3148C34.264 11.3206 34.1727 11.3113 34.3239 11.6077C34.4468 11.8485 34.4424 22.4401 34.3193 22.6813C34.1856 22.9435 34.1035 22.96 32.9331 22.96C32.109 22.96 31.8941 22.9713 31.8004 23.0198C31.5486 23.15 31.5602 23.0244 31.5583 25.6589C31.5564 28.2703 31.5512 28.3473 31.3638 28.5347L31.2386 28.66L30.1163 28.68L28.9941 28.7L28.837 28.8685L28.68 29.0369V30.0204C28.68 31.0855 28.6738 31.1209 28.4536 31.3254C28.1953 31.5652 28.5711 31.548 22.8 31.5855C19.885 31.6045 18.238 31.6243 19.14 31.6295C20.042 31.6347 22.448 31.6257 24.4866 31.6095L28.1932 31.58L28.3663 31.4583C28.7038 31.221 28.7186 31.1612 28.7193 30.03L28.72 29.04L28.8777 28.8823L29.0353 28.7247L30.1477 28.7123C31.1317 28.7014 31.272 28.6919 31.3638 28.6294C31.5836 28.4801 31.5784 28.5425 31.6 25.7867L31.62 23.2334L31.7506 23.1167L31.8813 23H32.9419C34.1022 23 34.2005 22.9842 34.3418 22.7755C34.433 22.6408 34.4883 11.9681 34.3996 11.6384C34.3226 11.3526 34.1936 11.3016 33.52 11.2903C32.0989 11.2667 28.4093 11.2624 28.68 11.2848ZM14.5374 12.86C14.5375 13.432 14.5431 13.6604 14.5499 13.3676C14.5568 13.0748 14.5567 12.6068 14.5499 12.3276C14.543 12.0484 14.5374 12.288 14.5374 12.86ZM14.4659 14.1519C14.4362 14.3377 14.3492 14.4244 14.138 14.4783L13.98 14.5186L14.159 14.4974C14.4016 14.4686 14.6376 14.1443 14.5093 14.016C14.499 14.0057 14.4795 14.0669 14.4659 14.1519ZM22.895 14.0834C22.7445 14.1271 22.6945 14.182 22.6612 14.3402L22.636 14.46L22.6948 14.3331C22.7662 14.1789 22.8711 14.1188 23.1372 14.0797C23.3283 14.0517 23.3307 14.0499 23.18 14.0486C23.092 14.0478 22.9638 14.0635 22.895 14.0834ZM26.0429 14.5854C25.9973 14.6434 25.9607 14.7109 25.9616 14.7354C25.9625 14.7599 25.9901 14.7305 26.0229 14.67C26.0557 14.6095 26.0865 14.5562 26.0913 14.5516C26.0961 14.547 26.586 14.533 27.18 14.5204L28.26 14.4974L27.1929 14.4887L26.1258 14.48L26.0429 14.5854ZM12.31 14.5499C12.6015 14.5567 13.0785 14.5567 13.37 14.5499C13.6615 14.5431 13.423 14.5375 12.84 14.5375C12.257 14.5375 12.0185 14.5431 12.31 14.5499ZM22.6 15.5946C22.6 16.6226 22.5964 16.6742 22.5161 16.7846L22.4322 16.9L22.5361 16.7878L22.64 16.6755V15.5978C22.64 15.005 22.631 14.52 22.62 14.52C22.609 14.52 22.6 15.0036 22.6 15.5946ZM5.45923 18.54C5.45923 20.718 5.46413 21.6031 5.47003 20.507C5.47593 19.4108 5.47593 17.6288 5.47003 16.547C5.46413 15.4651 5.45923 16.362 5.45923 18.54ZM25.9246 16.8113C25.9174 17.0466 25.8208 17.2344 25.6715 17.3033L25.54 17.364L25.66 17.3403C25.8647 17.2999 26.0135 16.9876 25.9485 16.7347C25.9379 16.6936 25.9272 16.7281 25.9246 16.8113ZM17.2452 16.92C16.9087 16.9995 16.88 17.1288 16.8893 18.52L16.8966 19.62L16.9185 18.44C16.9421 17.1716 16.9541 17.0976 17.1544 16.9944C17.2389 16.9509 17.7746 16.9358 19.84 16.9192L22.42 16.8983L19.9 16.8932C18.514 16.8905 17.3193 16.9025 17.2452 16.92ZM23.2303 17.45C23.1785 17.4995 23.1703 17.513 23.2122 17.48C23.274 17.4312 23.4951 17.416 24.3941 17.3988L25.5 17.3775L24.4122 17.3688C23.333 17.3601 23.3237 17.3607 23.2303 17.45ZM23.0974 18.6C23.0974 19.161 23.103 19.3905 23.1099 19.11C23.1168 18.8295 23.1168 18.3705 23.1099 18.09C23.103 17.8095 23.0974 18.039 23.0974 18.6ZM31.2731 21.3254C31.2921 22.7756 31.4117 22.6537 29.944 22.6806C28.3275 22.7103 28.4264 22.6135 28.4069 24.1851L28.3934 25.2702L28.2457 25.4144L28.098 25.5586L27.059 25.57L26.02 25.5814L27.07 25.5907L28.12 25.6L28.2776 25.4424L28.4351 25.2849L28.4476 24.2324C28.466 22.67 28.3904 22.7452 29.96 22.7292C31.1098 22.7175 31.1582 22.7089 31.2582 22.4982C31.3231 22.3613 31.3481 20.5454 31.2872 20.3912C31.2722 20.3534 31.2659 20.7737 31.2731 21.3254ZM8.80933 21.383L8.80003 22.4261L8.91003 22.523L9.02003 22.62L8.93073 22.5182C8.84393 22.4192 8.84113 22.3872 8.83003 21.3782L8.81863 20.34L8.80933 21.383ZM5.50083 22.7145C5.51333 22.9236 5.60573 23.0299 5.80013 23.0589L5.94003 23.0797L5.81233 23.0393C5.66503 22.9927 5.53433 22.8288 5.50833 22.6582C5.49843 22.5932 5.49503 22.6185 5.50083 22.7145ZM10.18 22.6383C11.4446 22.662 11.4843 22.6692 11.5817 22.8931C11.6259 22.9949 11.6372 23.0031 11.6384 22.9344C11.6438 22.6439 11.4368 22.6002 10.1 22.6092L9.02003 22.6166L10.18 22.6383ZM11.6484 24.1276C11.6438 24.7368 11.6535 25.2437 11.67 25.2539C11.6865 25.2641 11.6954 24.9367 11.6898 24.5262C11.6709 23.1479 11.6568 23.0123 11.6484 24.1276ZM7.06393 23.1187C7.68363 23.1309 8.17273 23.1571 8.20583 23.18C8.23773 23.202 8.22943 23.1885 8.18753 23.15C8.11823 23.0865 8.01203 23.0808 7.04563 23.0887L5.98003 23.0975L7.06393 23.1187ZM23.0493 24.2422L23.04 25.2643L23.1726 25.3929L23.3053 25.5214L24.3026 25.51L25.3 25.4985L24.2975 25.4893L23.295 25.48L23.1882 25.3685L23.0814 25.2571L23.07 24.2385L23.0586 23.22L23.0493 24.2422ZM8.32003 25.8938C8.33623 28.0009 8.35063 28.5205 8.39523 28.6073C8.45633 28.7261 8.63383 28.8174 8.74683 28.7882C8.80503 28.7732 8.80123 28.7683 8.72863 28.7646C8.35903 28.7459 8.36003 28.7537 8.36003 25.8564C8.36003 24.464 8.34653 23.3164 8.33003 23.3062C8.31353 23.296 8.30903 24.4604 8.32003 25.8938ZM16.8973 24.26C16.8973 24.81 16.903 25.0405 16.9099 24.7723C16.9168 24.5041 16.9168 24.0541 16.9099 23.7723C16.903 23.4905 16.8974 23.71 16.8973 24.26ZM11.8746 25.4507C11.8915 25.4676 12.3722 25.4765 12.9427 25.4706L13.98 25.4599L12.9119 25.44C12.3245 25.429 11.8577 25.4338 11.8746 25.4507ZM14.7725 25.5099C15.1424 25.5166 15.7364 25.5165 16.0925 25.5099C16.4486 25.5033 16.146 25.4979 15.42 25.4979C14.694 25.4979 14.4026 25.5033 14.7725 25.5099ZM25.5511 25.5493C25.6451 25.5578 25.7891 25.5577 25.8711 25.5491C25.953 25.5405 25.876 25.5336 25.7 25.5337C25.524 25.5339 25.457 25.5409 25.5511 25.5493ZM9.39003 28.8299C9.68153 28.8367 10.1585 28.8367 10.45 28.8299C10.7415 28.8231 10.503 28.8175 9.92003 28.8175C9.33703 28.8175 9.09853 28.8231 9.39003 28.8299ZM11.1773 30.02C11.1773 30.57 11.183 30.8005 11.1899 30.5323C11.1968 30.2641 11.1968 29.8141 11.1899 29.5323C11.183 29.2505 11.1774 29.47 11.1773 30.02ZM11.24 31.1815C11.24 31.3079 11.6131 31.645 11.7454 31.6382C11.7645 31.6373 11.7122 31.6007 11.6293 31.5569C11.5464 31.5132 11.4249 31.4033 11.3593 31.3127C11.2937 31.2221 11.24 31.1631 11.24 31.1815ZM13.1929 31.67C13.97 31.6761 15.23 31.6761 15.9929 31.67C16.7558 31.6639 16.12 31.6589 14.58 31.6589C13.04 31.6589 12.4158 31.6639 13.1929 31.67ZM8.79053 34.0683C8.84023 34.0779 8.91223 34.0775 8.95053 34.0675C8.98873 34.0575 8.94803 34.0496 8.86003 34.0501C8.77203 34.0505 8.74073 34.0587 8.79053 34.0683ZM14.05 34.0694C14.1545 34.0776 14.3255 34.0776 14.43 34.0694C14.5345 34.0612 14.449 34.0544 14.24 34.0544C14.031 34.0544 13.9455 34.0612 14.05 34.0694ZM8.45823 34.1782C8.40423 34.2322 8.36073 34.3177 8.36163 34.3682C8.36293 34.4479 8.37043 34.4432 8.41843 34.3329C8.44883 34.2631 8.52463 34.1783 8.58683 34.1445C8.66913 34.0999 8.68043 34.0828 8.62823 34.0816C8.58873 34.0807 8.51223 34.1242 8.45823 34.1782ZM16.77 34.11C17.9085 34.1159 19.7715 34.1159 20.91 34.11C22.0485 34.1041 21.117 34.0993 18.84 34.0993C16.563 34.0993 15.6315 34.1041 16.77 34.11ZM27.06 34.1591C31.5682 34.1822 31.2968 34.1649 31.458 34.44C31.5336 34.5691 31.541 34.6576 31.5533 35.58C31.5678 36.6812 31.5524 36.7908 31.3534 36.9943C31.0738 37.2803 31.4237 37.2578 26.9 37.2804L22.82 37.3007L26.88 37.3095C31.3952 37.3192 31.1047 37.3357 31.3679 37.055C31.5842 36.8244 31.6002 36.7285 31.5982 35.6713C31.5962 34.5386 31.5625 34.3628 31.32 34.2215C31.1816 34.1409 31.1326 34.14 27.08 34.1391L22.98 34.1381L27.06 34.1591ZM8.33773 35.62C8.33773 36.258 8.34323 36.5134 8.34993 36.1876C8.35673 35.8617 8.35663 35.3397 8.34993 35.0276C8.34313 34.7154 8.33763 34.982 8.33773 35.62ZM8.36243 36.82C8.35793 36.9844 8.73503 37.3616 8.90003 37.3577C8.92203 37.3572 8.88603 37.3283 8.82003 37.2935C8.64843 37.2031 8.52353 37.081 8.43793 36.92C8.39703 36.843 8.36303 36.798 8.36243 36.82ZM16.5931 37.35C17.7442 37.3559 19.6162 37.3559 20.7531 37.35C21.8899 37.3441 20.948 37.3393 18.66 37.3393C16.372 37.3393 15.4419 37.3441 16.5931 37.35ZM10.29 37.39C11.0325 37.3961 12.2475 37.3961 12.99 37.39C13.7325 37.3839 13.125 37.3789 11.64 37.3789C10.155 37.3789 9.54753 37.3839 10.29 37.39Z" fill="#340468"/>
</svg>