<svg xmlns="http://www.w3.org/2000/svg" width="40" height="40" viewBox="0 0 40 40" fill="none">
<g clip-path="url(#clip0_4_366)">
<path fillRule="evenodd" clipRule="evenodd" d="M14.6939 8.9388C14.5577 9.0343 14.5178 10.6514 14.6342 11.36C14.7094 11.8176 14.7173 12.0622 14.7282 14.2467C14.7348 15.5593 14.7497 16.6429 14.7613 16.6546C14.773 16.6662 15.295 16.6828 15.9213 16.6914C17.7166 16.7161 17.6428 16.6211 17.5739 18.8198C17.5243 20.402 17.6337 20.2621 16.4146 20.3016C15.6636 20.326 14.7823 20.4045 14.7355 20.4512C14.548 20.6387 14.5256 25.1064 14.7112 25.287C14.7834 25.3572 16.0343 25.44 17.0232 25.44C17.5593 25.44 17.6001 25.4606 17.6002 25.7314L17.6004 25.94L17.6761 25.8158C17.7785 25.648 17.9745 25.5341 18.2847 25.4621L18.5432 25.4022L18.9417 25.5554C19.5597 25.7931 19.5244 25.7933 19.7397 25.55C20.0995 25.1432 20.2201 24.5939 20.1025 23.8968C20.0657 23.6786 20.0104 23.2872 19.9796 23.0271C19.9488 22.7671 19.9127 22.5195 19.8992 22.4771C19.8842 22.4298 19.9081 22.353 19.9609 22.2788C20.2114 21.927 20.2271 21.5454 20.0145 20.9732L19.8336 20.4864L19.9312 19.9932C20.0164 19.5627 20.0244 19.4517 19.9941 19.12C19.9401 18.5296 19.9417 18.4875 20.0368 18.0271L20.1263 17.5943L19.9881 17.3071C19.912 17.1492 19.7951 16.94 19.7282 16.8422L19.6066 16.6644L19.6984 16.4822C19.7489 16.382 19.8366 16.1707 19.8933 16.0126L19.9965 15.7253L19.9171 15.4387C19.757 14.8612 19.4626 14.5207 18.8868 14.2473L18.5935 14.108L18.1433 14.234C17.5742 14.3933 17.598 14.3953 17.3995 14.17C17.1324 13.8669 17.1246 13.8382 17.0952 13.0538C17.0551 11.9853 17.065 11.9391 17.3833 11.7082L17.6428 11.52H18.1402C18.4138 11.52 18.8316 11.4912 19.0686 11.456C19.4398 11.4008 19.5691 11.3988 20.0003 11.4415C20.3845 11.4796 20.591 11.4805 20.8874 11.4456C21.0999 11.4205 21.5247 11.4 21.8313 11.4H22.389L22.453 11.175C22.5076 10.9828 22.5106 10.885 22.473 10.505C22.4392 10.1633 22.4409 9.9453 22.4804 9.566C22.5241 9.1464 22.5234 9.0666 22.476 9.0366C22.4452 9.0171 21.323 9.0008 19.9801 9.0003C18.0803 8.9995 17.4294 8.9862 17.0401 8.94C16.3488 8.858 14.8104 8.8572 14.6939 8.9388ZM21.3824 25.1962C21.3214 25.295 21.4202 25.4083 21.4951 25.3255C21.5641 25.2492 21.5638 25.2448 21.4858 25.2031C21.4387 25.1778 21.3956 25.175 21.3824 25.1962ZM17.6001 28.5969C17.6001 28.9244 17.2966 29 15.9831 29C15.426 29 14.9154 29.0109 14.8486 29.0243L14.7271 29.0486L14.7222 30.3014C14.7184 31.2768 14.7287 31.5641 14.7687 31.5986C14.797 31.6229 14.9096 31.6983 15.0189 31.7661L15.2178 31.8894L15.0989 31.9868C14.8492 32.1915 14.7649 32.2158 14.739 32.0906C14.6485 31.6539 14.7643 31.6822 13.1801 31.7088C11.9627 31.7293 11.8957 31.7343 11.8101 31.8121C11.6803 31.9301 11.6736 33.8019 11.801 34.378C11.8677 34.6801 11.8801 34.8868 11.8801 35.7023V36.6686L12.126 36.6943C12.4412 36.7273 13.1745 36.7272 13.7896 36.6941L14.2716 36.6682L14.2993 36.3358C14.3153 36.1438 14.3579 35.9427 14.4002 35.8598C14.4567 35.749 14.4651 35.687 14.4368 35.5884C14.3873 35.4158 14.3893 34.72 14.4393 34.72C14.4609 34.72 14.5464 34.628 14.6293 34.5156L14.7801 34.3112L15.2601 34.3359C15.9573 34.3719 16.7325 34.1844 17.1128 33.8879L17.2054 33.8157L17.1428 33.3665C17.0772 32.8962 17.0638 32.4413 17.1055 32.0948L17.1301 31.8895L17.4751 31.7855C17.6649 31.7283 18.0721 31.6201 18.3801 31.545C19.693 31.2248 19.8692 31.077 19.909 30.2625C19.9497 29.4294 19.8264 28.9239 19.536 28.7336C19.228 28.5318 17.6001 28.4169 17.6001 28.5969ZM21.3615 29.8774C21.3071 29.979 21.3109 30.0446 21.3763 30.1307C21.4616 30.2431 21.5795 30.0463 21.5136 29.9016C21.4581 29.78 21.4171 29.7734 21.3615 29.8774ZM25.1622 34.6975C25.1197 34.7487 25.1197 34.7713 25.1622 34.8225C25.2299 34.9041 25.3046 34.7966 25.2491 34.6975C25.2174 34.6408 25.2093 34.6408 25.1622 34.6975Z" fill="#2DE2E6"/>
<path fillRule="evenodd" clipRule="evenodd" d="M14.6749 8.78531C14.4558 8.92551 14.4401 8.99891 14.4142 10.0077C14.3951 10.7528 14.4033 11.0321 14.4551 11.3984C14.5076 11.7689 14.52 12.2177 14.5199 13.7384C14.5198 15.7727 14.571 16.5369 14.7179 16.6919C14.8219 16.8017 15.4101 16.8845 16.0629 16.8813C16.8639 16.8773 17.1237 16.9837 17.3108 17.3923L17.4113 17.6119L17.3825 18.5917C17.3402 20.0292 17.2757 20.1171 16.26 20.1194C15.6818 20.1208 14.8551 20.2862 14.7143 20.4288C14.6756 20.4679 14.5948 20.68 14.5348 20.9L14.4256 21.3L14.4228 22.8C14.4176 25.6131 14.3584 25.5149 16.1 25.5822C16.958 25.6154 17.1848 25.696 17.3555 26.0281C17.4261 26.1655 17.4655 28.0214 17.4019 28.2142C17.2566 28.6545 16.9721 28.7978 16.24 28.7995C15.4429 28.8014 14.756 28.8682 14.6714 28.952C14.5893 29.0333 14.5358 29.5667 14.5243 30.42C14.5101 31.4627 14.4312 31.5178 12.907 31.5496C11.8147 31.5724 11.7293 31.5887 11.6227 31.7948C11.5342 31.966 11.5299 33.9291 11.617 34.4C11.6631 34.6493 11.6799 34.9991 11.6799 35.7118C11.68 37.014 11.6173 36.9691 13.34 36.9013C13.758 36.8848 16.6118 36.8648 19.6817 36.8568C25.0319 36.8428 25.287 36.8388 25.8323 36.7611C26.2623 36.6998 26.6109 36.68 27.2608 36.68H28.1205L28.1194 34.286L28.1182 31.8919L27.6878 31.8658C26.9267 31.8195 26.549 31.8663 26.3943 32.0258C26.2337 32.1915 26.174 32.1948 26.1399 32.0396C26.1187 31.9432 26.0705 31.8989 25.8976 31.8171C25.5088 31.6332 25.3101 31.2821 25.2582 30.6876L25.2297 30.36L25.1048 30.3599C24.9374 30.3596 24.7281 30.2264 24.6963 30.0996C24.6663 29.98 24.7215 29.9067 25.02 29.6695C25.2114 29.5175 25.2209 29.5006 25.24 29.2783C25.264 28.9996 25.2645 28.9998 24.625 29.0003C23.8309 29.0008 23.6915 29.0286 23.5917 29.2062C23.4392 29.4776 23.3301 29.5147 23.2988 29.306C23.2662 29.0883 23.259 29.0787 23.0335 28.9484C22.5888 28.6916 22.5392 28.4138 22.5466 26.22C22.5489 25.5204 22.9656 25.2271 23.9 25.2673C25.2537 25.3255 25.3292 25.2514 25.251 23.9414L25.2289 23.5717L24.9745 23.4462L24.72 23.3207V22.849V22.3772L24.9744 22.2517L25.2287 22.1263L25.2572 21.6639C25.2729 21.4096 25.2767 21.1871 25.2658 21.1694C25.2549 21.1517 25.2405 21.0155 25.2338 20.8665C25.2135 20.4152 25.2713 20.4279 23.3754 20.4558C23.1153 20.4596 22.8497 20.273 22.7006 19.9817L22.58 19.746L22.5681 18.6913C22.5524 17.2935 22.634 16.9657 23.05 16.7559C23.2642 16.6479 23.2397 16.6797 23.2936 16.4393L23.34 16.2324L23.4449 16.3151C23.5026 16.3606 23.5788 16.4589 23.6143 16.5336C23.6908 16.695 23.9291 16.727 24.77 16.6893L25.24 16.6682V16.4584C25.24 16.305 25.2232 16.2421 25.1775 16.2246C25.1425 16.2111 25.1276 16.1801 25.1436 16.1541C25.1607 16.1265 25.155 16.1184 25.1296 16.1341C25.1061 16.1486 25.077 16.1379 25.065 16.1102C25.053 16.0826 25.0519 16.114 25.0625 16.18C25.0817 16.2989 25.0814 16.2991 25.0347 16.2C25.0087 16.145 24.9905 16.086 24.9941 16.0689C24.9978 16.0518 24.9737 16.0274 24.9406 16.0147C24.9075 16.002 24.8904 15.9755 24.9026 15.9558C24.9148 15.9361 24.9012 15.9197 24.8724 15.9194C24.8339 15.9189 24.836 15.9076 24.88 15.8768C24.9261 15.8445 24.9178 15.8411 24.8439 15.862C24.7652 15.8843 24.7525 15.8772 24.7735 15.8225C24.7881 15.7844 24.7826 15.766 24.7607 15.7796C24.6368 15.8561 24.7001 15.2319 24.8458 14.94C24.8902 14.851 24.9927 14.7382 25.0766 14.6859L25.2275 14.5918L25.2532 13.7368C25.2674 13.2665 25.2674 12.7715 25.2534 12.6368L25.2278 12.3919L25.0439 12.3136C24.6404 12.1416 24.3515 11.9182 24.4129 11.8256C24.4921 11.7063 24.7858 11.5684 25.0253 11.538L25.2306 11.512L25.2579 11.2705C25.2729 11.1377 25.2724 10.5815 25.2567 10.0345L25.2282 9.04001L24.7841 9.03651C23.8199 9.02881 23.5019 9.04431 23.41 9.10371C23.3309 9.15481 23.32 9.15461 23.32 9.10201C23.32 9.06401 23.2435 9.02081 23.11 8.98351C22.9945 8.95121 22.828 8.90211 22.74 8.87441C22.6225 8.83751 21.8635 8.81611 19.88 8.79381C18.395 8.77711 16.64 8.75331 15.98 8.74081C14.9001 8.72041 14.7695 8.72491 14.6749 8.78531ZM17.54 8.87841C17.8247 8.91141 18.5681 8.91701 20.12 8.89791C22.3306 8.87071 22.789 8.89571 22.9451 9.05181C23.0069 9.11351 22.9441 11.709 22.8424 13.3C22.8233 13.5998 22.8249 13.9894 22.8462 14.22C22.8666 14.44 22.8713 15.0693 22.8567 15.6185L22.8301 16.617L22.72 16.7585C22.5268 17.0067 22.5116 17.1079 22.4791 18.36C22.4403 19.851 22.4772 20.1239 22.75 20.3634L22.895 20.4908L22.8369 20.9658C22.7808 21.4248 22.782 21.4575 22.8717 21.9304C22.9956 22.5835 22.9737 23.2148 22.8048 23.8574C22.7178 24.1885 22.6984 24.3246 22.7253 24.4174C22.7447 24.4848 22.7891 24.6913 22.8239 24.8762L22.8872 25.2124L22.7628 25.3097C22.4652 25.5426 22.4333 25.7641 22.4735 27.32C22.5082 28.6659 22.5232 28.7632 22.7265 28.9665C22.8172 29.0572 22.8209 29.0875 22.8494 29.9908C22.8819 31.0229 22.8883 31.0498 23.1575 31.293L23.3202 31.44L23.8701 31.4398C24.1726 31.4398 24.582 31.4131 24.78 31.3805C25.256 31.3023 25.2256 31.2959 25.3133 31.4943C25.3557 31.5901 25.4646 31.7281 25.5552 31.801C25.7172 31.9311 25.7201 31.9379 25.7235 32.1967C25.7254 32.3415 25.7391 32.55 25.7538 32.66C25.7685 32.77 25.7674 32.986 25.7515 33.14C25.7013 33.6227 25.7104 33.8862 25.7925 34.333L25.8721 34.766L25.7568 35.2057C25.6933 35.4475 25.6323 35.6602 25.6211 35.6783C25.6099 35.6964 25.6272 35.8977 25.6596 36.1256C25.7438 36.7178 25.7665 36.6643 25.41 36.7143C25.0324 36.7674 25.283 36.7653 19.4673 36.7631C16.8142 36.7622 14.3138 36.7795 13.8073 36.8023C12.7379 36.8505 11.9348 36.8207 11.83 36.7289C11.767 36.6737 11.7599 36.5698 11.7587 35.6838C11.7578 34.917 11.7414 34.6072 11.6846 34.2794C11.6227 33.9221 11.6147 33.7086 11.6316 32.8606L11.6515 31.8624L11.7627 31.7512L11.8738 31.64L12.5069 31.6388C14.6001 31.635 14.5615 31.6631 14.6197 30.1004L14.66 29.0208L14.7654 28.9704C14.8386 28.9354 15.1688 28.916 15.8454 28.9068C17.4923 28.8844 17.5302 28.8463 17.5218 27.2263C17.5133 25.5709 17.5126 25.5701 16.205 25.5164C15.2264 25.4761 14.7635 25.4191 14.6705 25.3274C14.3901 25.0507 14.418 20.9364 14.7034 20.4745C14.7815 20.3482 15.437 20.2327 16.24 20.2038C17.4457 20.1605 17.4577 20.1437 17.4591 18.5L17.46 17.38L17.36 17.2022C17.1728 16.8693 17.025 16.8264 15.9423 16.7915C14.8418 16.7559 14.7578 16.7414 14.7107 16.5789C14.6511 16.3735 14.598 14.2663 14.6245 13.16C14.648 12.1806 14.6431 12.0574 14.5598 11.54C14.4781 11.032 14.4718 10.8894 14.4919 10.0053L14.5141 9.03051L14.6234 8.91641C14.776 8.75721 16.3177 8.73711 17.54 8.87841ZM23.7278 10.8683L23.8158 10.962L23.7343 11.0435C23.444 11.3338 23.253 11.2304 23.3016 10.8091L23.326 10.5982L23.4829 10.6864C23.5692 10.7349 23.6794 10.8168 23.7278 10.8683ZM23.3683 13.8955C23.3356 13.9968 23.3284 13.9493 23.3292 13.64L23.3302 13.26L23.3693 13.5155C23.3952 13.6845 23.3949 13.8131 23.3683 13.8955ZM23.3631 21.4929C23.3323 21.5237 23.3215 21.4452 23.3251 21.218L23.3302 20.9L23.3682 21.1749C23.3946 21.3658 23.393 21.463 23.3631 21.4929ZM23.3682 24.5451L23.3302 24.82L23.3251 24.502C23.3215 24.2748 23.3323 24.1963 23.3631 24.2271C23.393 24.257 23.3946 24.3542 23.3682 24.5451ZM24.48 30.8579C24.48 30.9695 24.3461 31.016 24.1376 30.9769C23.9661 30.9447 23.9665 30.9335 24.1476 30.722L24.2952 30.5496L24.3876 30.657C24.4384 30.7161 24.48 30.8065 24.48 30.8579ZM27.6118 32.7758C27.7394 32.8058 27.8521 32.8388 27.8625 32.8491C27.8728 32.8595 27.7151 32.9779 27.512 33.1124C27.1038 33.3827 27.1098 33.3835 27.0349 33.0514C26.9589 32.7143 27.0881 32.6526 27.6118 32.7758Z" fill="#920075"/>
<path fillRule="evenodd" clipRule="evenodd" d="M15.2117 8.79122C14.7438 8.80212 14.7303 8.80502 14.6235 8.91642L14.5142 9.03052L14.492 10.0053C14.4719 10.8894 14.4782 11.032 14.5599 11.54C14.6432 12.0574 14.6481 12.1806 14.6246 13.16C14.5981 14.2663 14.6512 16.3735 14.7108 16.5789C14.7579 16.7414 14.8419 16.7559 15.9424 16.7915C17.0251 16.8264 17.1729 16.8693 17.3601 17.2022L17.4601 17.38L17.4592 18.5C17.4578 20.1437 17.4458 20.1605 16.2401 20.2038C15.8231 20.2188 15.4107 20.2569 15.2201 20.2981C14.8595 20.3759 14.7693 20.4203 15.0401 20.3868C15.1391 20.3745 15.6521 20.3453 16.1801 20.3219C17.6842 20.2553 17.526 20.4253 17.5748 18.823C17.642 16.6198 17.7166 16.7161 15.9213 16.6914C15.295 16.6828 14.773 16.6662 14.7613 16.6546C14.7497 16.6429 14.7348 15.5593 14.7282 14.2467C14.7173 12.0622 14.7094 11.8176 14.6342 11.36C14.5178 10.6514 14.5577 9.03432 14.6939 8.93882C14.8104 8.85722 16.3488 8.85802 17.0401 8.94002C17.4294 8.98622 18.0803 8.99952 19.9801 9.00032C21.323 9.00082 22.4452 9.01712 22.476 9.03662C22.5234 9.06662 22.5241 9.14642 22.4804 9.56602C22.4409 9.94532 22.4392 10.1633 22.473 10.505C22.5106 10.885 22.5076 10.9828 22.453 11.175L22.389 11.4H21.8313C21.5247 11.4 21.0999 11.4205 20.8874 11.4456C20.591 11.4805 20.3845 11.4796 20.0003 11.4415C19.5691 11.3988 19.4398 11.4008 19.0686 11.456C18.8316 11.4912 18.4138 11.52 18.1402 11.52H17.6428L17.3833 11.7082C17.065 11.9391 17.0551 11.9853 17.0952 13.0538C17.1246 13.8382 17.1324 13.8669 17.3995 14.17C17.598 14.3953 17.5742 14.3933 18.1433 14.234L18.5935 14.108L18.8868 14.2473C19.4626 14.5207 19.757 14.8612 19.9171 15.4387L19.9965 15.7253L19.8933 16.0126C19.8366 16.1707 19.7489 16.382 19.6984 16.4822L19.6066 16.6644L19.7282 16.8422C19.7951 16.94 19.912 17.1492 19.9881 17.3071L20.1263 17.5943L20.0368 18.0271C19.9417 18.4875 19.9401 18.5296 19.9941 19.12C20.0244 19.4517 20.0164 19.5627 19.9312 19.9932L19.8336 20.4864L20.0145 20.9732C20.2271 21.5454 20.2114 21.927 19.9609 22.2788C19.9081 22.353 19.8842 22.4298 19.8992 22.4771C19.9127 22.5195 19.9488 22.7671 19.9796 23.0271C20.0104 23.2872 20.0657 23.6786 20.1025 23.8968C20.2201 24.5939 20.0995 25.1432 19.7397 25.55C19.5244 25.7933 19.5597 25.7931 18.9417 25.5554L18.5432 25.4022L18.2847 25.4621C17.9745 25.5341 17.7785 25.648 17.6761 25.8158L17.6004 25.94L17.6002 25.7314C17.6001 25.4606 17.5593 25.44 17.0232 25.44C16.0343 25.44 14.7834 25.3572 14.7112 25.287C14.5368 25.1173 14.5322 21.4413 14.7053 20.58C14.7186 20.514 14.7185 20.4704 14.7051 20.483C14.422 20.7505 14.3915 25.0519 14.6706 25.3274C14.7636 25.4191 15.2265 25.4761 16.2051 25.5164C17.5127 25.5701 17.5134 25.5709 17.5219 27.2263C17.5303 28.8463 17.4924 28.8844 15.8455 28.9068C15.1689 28.916 14.8387 28.9354 14.7655 28.9704L14.6601 29.0208L14.6198 30.1004C14.5616 31.6631 14.6002 31.635 12.507 31.6388L11.8739 31.64L11.7628 31.7512L11.6516 31.8624L11.6317 32.8606C11.6148 33.7086 11.6228 33.9221 11.6847 34.2794C11.7415 34.6072 11.7579 34.917 11.7588 35.6838C11.76 36.5698 11.7671 36.6737 11.8301 36.7289C11.9349 36.8207 12.738 36.8505 13.8074 36.8023C14.3139 36.7795 16.8143 36.7622 19.4674 36.7631C25.2831 36.7653 25.0325 36.7674 25.4101 36.7143C25.7666 36.6643 25.7439 36.7178 25.6597 36.1256C25.6273 35.8977 25.61 35.6964 25.6212 35.6783C25.6324 35.6602 25.6934 35.4475 25.7569 35.2057L25.8722 34.766L25.7926 34.333C25.7105 33.8862 25.7014 33.6227 25.7516 33.14C25.7675 32.986 25.7686 32.77 25.7539 32.66C25.7392 32.55 25.7255 32.3415 25.7236 32.1967C25.7202 31.9379 25.7173 31.9311 25.5553 31.801C25.4647 31.7281 25.3558 31.5901 25.3134 31.4943C25.2257 31.2959 25.2561 31.3023 24.7801 31.3805C24.5821 31.4131 24.1727 31.4398 23.8702 31.4398L23.3203 31.44L23.1576 31.293C22.8884 31.0498 22.882 31.0229 22.8495 29.9908C22.821 29.0875 22.8173 29.0572 22.7266 28.9665C22.5233 28.7632 22.5083 28.6659 22.4736 27.32C22.4334 25.7641 22.4653 25.5426 22.7629 25.3097L22.8873 25.2124L22.824 24.8762C22.7892 24.6913 22.7448 24.4848 22.7254 24.4174C22.6985 24.3246 22.7179 24.1885 22.8049 23.8574C22.9738 23.2148 22.9957 22.5835 22.8718 21.9304C22.7821 21.4575 22.7809 21.4248 22.837 20.9658L22.8951 20.4908L22.7501 20.3634C22.4773 20.1239 22.4404 19.851 22.4792 18.36C22.5117 17.1079 22.5269 17.0067 22.7201 16.7585L22.8302 16.617L22.8568 15.6185C22.8714 15.0693 22.8667 14.44 22.8463 14.22C22.825 13.9894 22.8234 13.5998 22.8425 13.3C22.9442 11.709 23.007 9.11352 22.9452 9.05182C22.7891 8.89572 22.3307 8.87072 20.1201 8.89792C18.5682 8.91702 17.8248 8.91142 17.5401 8.87842C17.0438 8.82112 15.8492 8.77632 15.2117 8.79122ZM21.4951 25.3255C21.424 25.4041 21.4234 25.4041 21.3918 25.3186C21.3478 25.1999 21.3879 25.1507 21.4858 25.2031C21.5638 25.2448 21.5641 25.2492 21.4951 25.3255ZM19.1059 28.5936C19.7908 28.7443 19.9654 29.1073 19.909 30.2625C19.8692 31.077 19.693 31.2248 18.3801 31.545C18.0721 31.6201 17.6649 31.7283 17.4751 31.7855L17.1301 31.8895L17.1055 32.0948C17.0638 32.4413 17.0772 32.8962 17.1428 33.3665L17.2054 33.8157L17.1128 33.8879C16.7325 34.1844 15.9573 34.3719 15.2601 34.3359L14.7801 34.3112L14.6293 34.5156C14.5464 34.628 14.4609 34.72 14.4393 34.72C14.3893 34.72 14.3873 35.4158 14.4368 35.5884C14.4651 35.687 14.4567 35.749 14.4002 35.8598C14.3579 35.9427 14.3153 36.1438 14.2993 36.3358L14.2716 36.6682L13.7896 36.6941C13.1745 36.7272 12.4412 36.7273 12.126 36.6943L11.8801 36.6686V35.7023C11.8801 34.8868 11.8677 34.6801 11.801 34.378C11.6736 33.8019 11.6803 31.9301 11.8101 31.8121C11.8957 31.7343 11.9627 31.7293 13.1801 31.7088C14.7643 31.6822 14.6485 31.6539 14.739 32.0906C14.7649 32.2158 14.8492 32.1915 15.0989 31.9868L15.2178 31.8894L15.0189 31.7661C14.9096 31.6983 14.797 31.6229 14.7687 31.5986C14.7287 31.5641 14.7184 31.2768 14.7222 30.3014L14.7271 29.0486L14.8486 29.0243C14.9154 29.0109 15.426 29 15.9831 29C17.2966 29 17.6001 28.9244 17.6001 28.5969C17.6001 28.4879 18.6154 28.4857 19.1059 28.5936ZM21.5136 29.9016C21.5795 30.0463 21.4616 30.2431 21.3763 30.1307C21.3109 30.0446 21.3071 29.979 21.3615 29.8774C21.4171 29.7734 21.4581 29.78 21.5136 29.9016ZM25.2491 34.8225C25.2174 34.8792 25.2093 34.8792 25.1622 34.8225C25.1197 34.7713 25.1197 34.7487 25.1622 34.6975C25.2299 34.6159 25.3046 34.7234 25.2491 34.8225Z" fill="#2DE2E6"/>
<path fillRule="evenodd" clipRule="evenodd" d="M15.1201 8.43839C14.1618 8.48359 14.1541 8.49769 14.1507 10.22C14.1456 12.7707 14.2203 16.0024 14.2898 16.24C14.5171 17.0175 14.8199 17.1863 16.0601 17.2268L16.7001 17.2477L16.8701 17.4122L17.0401 17.5767V18.5652V19.5538L16.8729 19.6969L16.7057 19.84L16.1829 19.8405C14.9993 19.8415 14.4239 20.2338 14.1849 21.2026C14.1076 21.5159 14.0904 24.0414 14.1622 24.5323C14.3018 25.4864 14.3862 25.6244 14.9005 25.7388C15.3943 25.8487 15.6686 25.8783 16.1979 25.8792C17.0365 25.8806 17.0249 25.8631 17.0582 27.1704C17.0912 28.4664 17.0983 28.4586 15.8401 28.4951C14.2495 28.5412 14.2001 28.5979 14.2001 30.3796V30.9507L14.04 31.0953C13.9519 31.1749 13.8574 31.2418 13.83 31.2439C13.8025 31.246 13.2909 31.2595 12.693 31.2739C11.4702 31.3033 11.432 31.3128 11.3309 31.6144C11.2751 31.7811 11.2688 33.1053 11.313 35.3664L11.3401 36.7528L11.4639 36.9064C11.7456 37.2559 10.9893 37.2234 18.607 37.2132C23.402 37.2067 25.5198 37.1902 25.9643 37.156C26.3348 37.1274 26.9037 37.117 27.3643 37.1304L28.1401 37.1529L28.3501 36.9373L28.5601 36.7217L28.5699 35.4908C28.5753 34.8139 28.5736 33.72 28.566 33.06C28.5464 31.3406 28.6246 31.4304 27.16 31.4463C26.0536 31.4584 26.0548 31.4587 25.8168 31.1153L25.7126 30.9649L25.6975 29.9627C25.6758 28.518 25.7426 28.584 24.3001 28.5816C23.2343 28.5798 23.2614 28.586 23.0584 28.3004L22.9201 28.1059V27.151C22.9201 26.0991 22.9226 26.0864 23.1754 25.8434L23.3176 25.7067L24.2601 25.7164C25.7999 25.7321 25.6858 25.9252 25.6895 23.2961C25.6945 19.8304 25.7934 20.0535 24.2344 20.0137L23.3001 19.9898L23.1873 19.8849C22.9124 19.6293 22.9105 19.6191 22.926 18.5476L22.9401 17.5779L23.092 17.3711C23.2802 17.1146 23.275 17.1162 23.9254 17.1242C24.2904 17.1287 24.568 17.1094 24.8001 17.0633C25.7339 16.8778 25.704 17.0494 25.6967 11.92C25.6916 8.34179 25.8126 8.63509 24.3314 8.61039C23.8082 8.60169 23.2901 8.57569 23.1801 8.55259C23.0611 8.52769 21.7485 8.49549 19.9401 8.47309C18.2681 8.45239 16.6121 8.43089 16.2601 8.42519C15.9081 8.41939 15.3951 8.42539 15.1201 8.43839ZM19.8801 8.79379C21.8636 8.81609 22.6226 8.83749 22.7401 8.87439C22.8281 8.90209 22.9946 8.95119 23.1101 8.98349C23.2436 9.02079 23.3201 9.06399 23.3201 9.10199C23.3201 9.15459 23.331 9.15479 23.4101 9.10369C23.502 9.04429 23.82 9.02879 24.7842 9.03649L25.2283 9.03999L25.2568 10.0345C25.2725 10.5815 25.273 11.1377 25.258 11.2705L25.2307 11.512L25.0254 11.538C24.7859 11.5684 24.4922 11.7063 24.413 11.8256C24.3516 11.9182 24.6405 12.1416 25.044 12.3136L25.2279 12.3919L25.2535 12.6368C25.2675 12.7715 25.2675 13.2665 25.2533 13.7368L25.2276 14.5918L25.0767 14.6859C24.9928 14.7382 24.8903 14.851 24.8459 14.94C24.7002 15.2319 24.6369 15.8561 24.7608 15.7796C24.7827 15.766 24.7882 15.7844 24.7736 15.8225C24.7526 15.8772 24.7653 15.8843 24.844 15.862C24.9179 15.8411 24.9262 15.8445 24.8801 15.8768C24.8361 15.9076 24.834 15.9189 24.8725 15.9194C24.9013 15.9197 24.9149 15.9361 24.9027 15.9558C24.8905 15.9755 24.9076 16.002 24.9407 16.0147C24.9738 16.0274 24.9979 16.0518 24.9942 16.0689C24.9906 16.086 25.0088 16.145 25.0348 16.2C25.0815 16.2991 25.0818 16.2989 25.0626 16.18C25.052 16.114 25.0531 16.0826 25.0651 16.1102C25.0771 16.1379 25.1062 16.1486 25.1297 16.1341C25.1551 16.1184 25.1608 16.1265 25.1437 16.1541C25.1277 16.1801 25.1426 16.2111 25.1776 16.2246C25.2233 16.2421 25.2401 16.305 25.2401 16.4584V16.6682L24.7701 16.6893C23.9292 16.727 23.6909 16.695 23.6144 16.5336C23.5789 16.4589 23.5027 16.3606 23.445 16.3151L23.3401 16.2324L23.2937 16.4393C23.2398 16.6797 23.2643 16.6479 23.0501 16.7559C22.6341 16.9657 22.5525 17.2935 22.5682 18.6913L22.5801 19.746L22.7007 19.9817C22.8498 20.273 23.1154 20.4596 23.3755 20.4558C25.2714 20.4279 25.2136 20.4152 25.2339 20.8665C25.2406 21.0155 25.255 21.1517 25.2659 21.1694C25.2768 21.1871 25.273 21.4096 25.2573 21.6639L25.2288 22.1263L24.9745 22.2517L24.7201 22.3772V22.849V23.3207L24.9746 23.4462L25.229 23.5717L25.2511 23.9414C25.3293 25.2514 25.2538 25.3255 23.9001 25.2673C22.9657 25.2271 22.549 25.5204 22.5467 26.22C22.5393 28.4138 22.5889 28.6916 23.0336 28.9484C23.2591 29.0787 23.2663 29.0883 23.2989 29.306C23.3302 29.5147 23.4393 29.4776 23.5918 29.2062C23.6916 29.0286 23.831 29.0008 24.6251 29.0003C25.2646 28.9998 25.2641 28.9996 25.2401 29.2783C25.221 29.5006 25.2115 29.5175 25.0201 29.6695C24.7216 29.9067 24.6664 29.98 24.6964 30.0996C24.7282 30.2264 24.9375 30.3596 25.1049 30.3599L25.2298 30.36L25.2583 30.6876C25.3102 31.2821 25.5089 31.6332 25.8977 31.8171C26.0706 31.8989 26.1188 31.9432 26.14 32.0396C26.1741 32.1948 26.2338 32.1915 26.3944 32.0258C26.5491 31.8663 26.9268 31.8195 27.6879 31.8658L28.1183 31.8919L28.1195 34.286L28.1206 36.68H27.2609C26.611 36.68 26.2624 36.6998 25.8324 36.7611C25.2871 36.8388 25.032 36.8428 19.6818 36.8568C16.6119 36.8648 13.7581 36.8848 13.3401 36.9013C11.6174 36.9691 11.6801 37.014 11.68 35.7118C11.68 34.9991 11.6632 34.6493 11.6171 34.4C11.53 33.9291 11.5343 31.966 11.6228 31.7948C11.7294 31.5887 11.8148 31.5724 12.9071 31.5496C14.4313 31.5178 14.5102 31.4627 14.5244 30.42C14.5359 29.5667 14.5894 29.0333 14.6715 28.952C14.7561 28.8682 15.443 28.8014 16.2401 28.7995C16.9722 28.7978 17.2567 28.6545 17.402 28.2142C17.4656 28.0214 17.4262 26.1655 17.3556 26.0281C17.1849 25.696 16.9581 25.6154 16.1001 25.5822C14.3585 25.5149 14.4177 25.6131 14.4229 22.8L14.4257 21.3L14.5349 20.9C14.5949 20.68 14.6757 20.4679 14.7144 20.4288C14.8552 20.2862 15.6819 20.1208 16.2601 20.1194C17.2758 20.1171 17.3403 20.0292 17.3826 18.5917L17.4114 17.6119L17.3109 17.3923C17.1238 16.9837 16.864 16.8773 16.063 16.8813C15.4102 16.8845 14.822 16.8017 14.718 16.6919C14.5711 16.5369 14.5199 15.7727 14.52 13.7384C14.5201 12.2177 14.5077 11.7689 14.4552 11.3984C14.4034 11.0321 14.3952 10.7528 14.4143 10.0077C14.4499 8.62479 14.3447 8.70989 15.9801 8.74079C16.6401 8.75329 18.3951 8.77709 19.8801 8.79379ZM23.3017 10.8091C23.2531 11.2304 23.4441 11.3338 23.7344 11.0435L23.8159 10.962L23.7279 10.8683C23.6795 10.8168 23.5693 10.7349 23.483 10.6864L23.3261 10.5982L23.3017 10.8091ZM23.3293 13.64C23.3285 13.9493 23.3357 13.9968 23.3684 13.8955C23.395 13.8131 23.3953 13.6845 23.3694 13.5155L23.3303 13.26L23.3293 13.64ZM23.3252 21.218C23.3216 21.4452 23.3324 21.5237 23.3632 21.4929C23.3931 21.463 23.3947 21.3658 23.3683 21.1749L23.3303 20.9L23.3252 21.218ZM23.3252 24.502L23.3303 24.82L23.3683 24.5451C23.3947 24.3542 23.3931 24.257 23.3632 24.2271C23.3324 24.1963 23.3216 24.2748 23.3252 24.502ZM24.1477 30.722C23.9666 30.9335 23.9662 30.9447 24.1377 30.9769C24.4599 31.0374 24.5812 30.882 24.3877 30.657L24.2953 30.5496L24.1477 30.722ZM27.0389 32.7814C26.9985 32.8301 26.9977 32.886 27.035 33.0514C27.1099 33.3835 27.1039 33.3827 27.5121 33.1124C27.7152 32.9779 27.8729 32.8595 27.8626 32.8491C27.7592 32.7458 27.1126 32.6926 27.0389 32.7814Z" fill="#920075"/>
<path fillRule="evenodd" clipRule="evenodd" d="M13.8391 5.34259C13.8166 5.40169 13.8001 6.00179 13.8001 6.75799V8.07089L12.4215 8.08599C11.5413 8.09569 11.0279 8.11619 11.0013 8.14279C10.9729 8.17119 10.963 9.67209 10.9699 12.8822L10.9801 17.58L12.3901 17.5905L13.8001 17.601V18.5605V19.52H12.4575C11.6085 19.52 11.0864 19.5352 11.0375 19.5614C10.9619 19.6018 10.9601 19.6807 10.9601 22.8624V26.122L11.0627 26.161C11.1218 26.1835 11.7235 26.2 12.4827 26.2H13.8001V27.1354V28.0709L12.4301 28.0863C11.6766 28.0948 11.0376 28.116 11.0101 28.1333C10.9717 28.1575 10.9601 28.4876 10.9601 29.5618V30.959L9.55008 30.9695L8.14008 30.98L8.11478 31.24C8.10078 31.383 8.08728 33.4125 8.08478 35.75L8.08008 40H20.0001H31.9201L31.9154 35.75C31.9129 33.4125 31.8994 31.383 31.8854 31.24L31.8601 30.98L30.4501 30.9695L29.0401 30.959V29.5618C29.0401 28.4876 29.0285 28.1575 28.9901 28.1333C28.9626 28.116 28.3236 28.0948 27.5701 28.0863L26.2001 28.0709V27.1354V26.2H27.5175C28.2767 26.2 28.8784 26.1835 28.9375 26.161L29.0401 26.122V22.8624C29.0401 19.6807 29.0383 19.6018 28.9627 19.5614C28.9138 19.5352 28.3917 19.52 27.5427 19.52H26.2001V18.5605V17.601L27.6101 17.5905L29.0201 17.58L29.0303 12.8822C29.0372 9.67209 29.0273 8.17119 28.9989 8.14279C28.9723 8.11619 28.4589 8.09569 27.5787 8.08599L26.2001 8.07089V6.75799C26.2001 6.00179 26.1836 5.40169 26.1611 5.34259L26.1221 5.23999H20.0001H13.8781L13.8391 5.34259ZM19.9401 8.47309C21.7485 8.49549 23.0611 8.52769 23.1801 8.55259C23.2901 8.57569 23.8082 8.60169 24.3314 8.61039C25.8126 8.63509 25.6916 8.34179 25.6967 11.92C25.704 17.0494 25.7339 16.8778 24.8001 17.0633C24.568 17.1094 24.2904 17.1287 23.9254 17.1242C23.275 17.1162 23.2802 17.1146 23.092 17.3711L22.9401 17.5779L22.926 18.5476C22.9105 19.6191 22.9124 19.6293 23.1873 19.8849L23.3001 19.9898L24.2344 20.0137C25.7934 20.0535 25.6945 19.8304 25.6895 23.2961C25.6858 25.9252 25.7999 25.7321 24.2601 25.7164L23.3176 25.7067L23.1754 25.8434C22.9226 26.0864 22.9201 26.0991 22.9201 27.151V28.1059L23.0584 28.3004C23.2614 28.586 23.2343 28.5798 24.3001 28.5816C25.7426 28.584 25.6758 28.518 25.6975 29.9627L25.7126 30.9649L25.8168 31.1153C26.0548 31.4587 26.0536 31.4584 27.16 31.4463C28.6246 31.4304 28.5464 31.3406 28.566 33.06C28.5736 33.72 28.5753 34.8139 28.5699 35.4908L28.5601 36.7217L28.3501 36.9373L28.1401 37.1529L27.3643 37.1304C26.9037 37.117 26.3348 37.1274 25.9643 37.156C25.5198 37.1902 23.402 37.2067 18.607 37.2132C10.9893 37.2234 11.7456 37.2559 11.4639 36.9064L11.3401 36.7528L11.313 35.3664C11.2688 33.1053 11.2751 31.7811 11.3309 31.6144C11.432 31.3128 11.4702 31.3033 12.693 31.2739C13.2909 31.2595 13.8025 31.246 13.83 31.2439C13.8574 31.2418 13.9519 31.1749 14.04 31.0953L14.2001 30.9507V30.3796C14.2001 28.5979 14.2495 28.5412 15.8401 28.4951C17.0983 28.4586 17.0912 28.4664 17.0582 27.1704C17.0249 25.8631 17.0365 25.8806 16.1979 25.8792C15.6686 25.8783 15.3943 25.8487 14.9005 25.7388C14.3862 25.6244 14.3018 25.4864 14.1622 24.5323C14.0904 24.0414 14.1076 21.5159 14.1849 21.2026C14.4239 20.2338 14.9993 19.8415 16.1829 19.8405L16.7057 19.84L16.8729 19.6969L17.0401 19.5538V18.5652V17.5767L16.8701 17.4122L16.7001 17.2477L16.0601 17.2268C14.8199 17.1863 14.5171 17.0175 14.2898 16.24C14.1547 15.7781 14.0988 9.16679 14.227 8.81999C14.3598 8.46079 14.6759 8.39949 16.2601 8.42519C16.6121 8.43089 18.2681 8.45239 19.9401 8.47309Z" fill="#0C0C0C"/>
</g>
<defs>
<clipPath id="clip0_4_366">
<rect width="40" height="40" fill="white"/>
</clipPath>
</defs>
</svg>